<svg   viewBox="0 0 20 21" fill="none" xmlns="http://www.w3.org/2000/svg">
<path fill-rule="evenodd" clip-rule="evenodd" d="M7.63543 5.14884C8.82758 4.62199 10.1615 4.50835 11.4256 4.82595C12.6897 5.14355 13.8115 5.8742 14.6131 6.90197C15.4146 7.92972 15.85 9.19576 15.8501 10.4991C15.8501 11.1849 15.7232 11.7246 15.508 12.0708C15.317 12.378 15.0476 12.5572 14.6044 12.5572C14.1613 12.5572 13.8918 12.378 13.7008 12.0708C13.4856 11.7246 13.3588 11.1849 13.3588 10.4991V7.79096C13.3588 7.43197 13.0677 7.14096 12.7088 7.14096C12.3498 7.14096 12.0588 7.43197 12.0588 7.79096V7.84536C11.4903 7.40384 10.7762 7.14096 10.0007 7.14096C8.14602 7.14096 6.64255 8.64443 6.64255 10.4991C6.64255 12.3537 8.14602 13.8572 10.0007 13.8572C11.0216 13.8572 11.9361 13.4016 12.552 12.6826C12.5666 12.7077 12.5815 12.7326 12.5968 12.7572C13.0151 13.4301 13.6935 13.8572 14.6044 13.8572C15.5154 13.8572 16.1937 13.4301 16.6121 12.7572C17.0061 12.1232 17.1501 11.3088 17.1501 10.499C17.15 8.90599 16.6178 7.35865 15.6382 6.10249C14.6585 4.84634 13.2874 3.95332 11.7424 3.56514C10.1974 3.17696 8.56701 3.31585 7.10994 3.95978C5.65288 4.6037 4.45258 5.71578 3.6995 7.11955C2.94642 8.52331 2.68371 10.1384 2.95304 11.7085C3.22237 13.2785 4.00831 14.7137 5.18617 15.7862C6.36403 16.8588 7.86633 17.5073 9.45471 17.6288C11.0431 17.7503 12.6265 17.3379 13.9538 16.457C14.2529 16.2585 14.3345 15.8551 14.136 15.556C13.9375 15.2569 13.5341 15.1753 13.235 15.3738C12.149 16.0946 10.8534 16.432 9.55387 16.3326C8.25429 16.2331 7.02514 15.7026 6.06143 14.825C5.09773 13.9475 4.45468 12.7733 4.23432 11.4887C4.01396 10.2041 4.22891 8.88264 4.84506 7.7341C5.46122 6.58556 6.44328 5.67569 7.63543 5.14884ZM12.0588 10.4991C12.0588 9.3624 11.1373 8.44096 10.0007 8.44096C8.86399 8.44096 7.94255 9.3624 7.94255 10.4991C7.94255 11.6357 8.86399 12.5572 10.0007 12.5572C11.1373 12.5572 12.0588 11.6357 12.0588 10.4991Z"  fill=""/>
</svg>
