<svg    viewBox="0 0 21 21" fill="none" xmlns="http://www.w3.org/2000/svg">
<path d="M8.71706 5.17475C9.33002 4.82455 10.025 4.64338 10.7309 4.64977L10.7319 4.64978C12.9359 4.66617 14.7184 6.50257 14.7184 8.7384V9.19965C14.7184 11.0005 14.999 12.2749 15.3486 13.1633C15.4801 13.4973 15.8575 13.6615 16.1915 13.5301C16.5256 13.3986 16.6898 13.0212 16.5583 12.6872C16.2779 11.9746 16.0184 10.8656 16.0184 9.19965V8.7384C16.0184 5.81353 13.6848 3.37228 10.7427 3.34983C9.80655 3.34135 8.88499 3.58159 8.07216 4.04599C7.76046 4.22408 7.65214 4.62113 7.83023 4.93282C8.00831 5.24452 8.40536 5.35284 8.71706 5.17475Z"  fill=""/>
<path fill-rule="evenodd" clip-rule="evenodd" d="M5.98211 4.08243C5.74063 3.8168 5.32954 3.79723 5.06391 4.03871C4.79828 4.28019 4.77871 4.69128 5.02019 4.9569L5.1361 5.08441L6.05203 6.09193C5.54618 6.70406 5.39613 8.07249 5.38434 8.68018V9.19965C5.38434 11.4349 4.91726 12.6681 4.55634 13.2893C4.45277 13.4666 4.39764 13.6679 4.3965 13.8732C4.39537 14.079 4.44851 14.2814 4.55058 14.46C4.65265 14.6387 4.80003 14.7873 4.97785 14.8908C5.15568 14.9943 5.35765 15.0491 5.56341 15.0496L5.56508 15.0496H7.97423C8.00646 15.7263 8.28948 16.3688 8.77073 16.85C9.2827 17.362 9.97709 17.6496 10.7011 17.6496C11.4252 17.6496 12.1195 17.362 12.6315 16.85C13.1128 16.3688 13.3958 15.7263 13.428 15.0496H14.1954L15.4201 16.3969C15.6616 16.6625 16.0727 16.6821 16.3383 16.4406C16.604 16.1991 16.6235 15.788 16.3821 15.5224L14.9657 13.9644L14.9623 13.9606L7.35297 5.59038C7.34712 5.58367 7.34111 5.57705 7.33495 5.57055L5.98211 4.08243ZM9.27705 15.0496C9.30731 15.3812 9.45261 15.6934 9.68997 15.9308C9.95814 16.1989 10.3219 16.3496 10.7011 16.3496C11.0804 16.3496 11.4441 16.1989 11.7123 15.9308C11.9496 15.6934 12.0949 15.3812 12.1252 15.0496H9.27705ZM6.68434 9.19965C6.68434 11.4456 6.24742 12.872 5.78685 13.7496H13.0136L6.99311 7.12712C6.78945 7.61614 6.68342 8.14325 6.68434 8.67854L6.68434 8.67965L6.68434 9.19965Z"  fill=""/>
</svg>
