<svg    viewBox="0 0 21 21" fill="none" xmlns="http://www.w3.org/2000/svg">
<path fill-rule="evenodd" clip-rule="evenodd" d="M13.2269 15.0496H15.6361L15.6377 15.0496C15.8435 15.0491 16.0454 14.9943 16.2232 14.8908C16.401 14.7873 16.5484 14.6388 16.6505 14.4601C16.7526 14.2815 16.8058 14.0791 16.8047 13.8734C16.8047 13.6441 16.6985 13.3892 16.6454 13.2903C16.2846 12.6693 15.8173 11.4359 15.8173 9.19958V8.73833C15.8173 5.81309 13.4832 3.37159 10.5405 3.34971C9.838 3.34535 9.1408 3.48006 8.49063 3.7461C7.84046 4.01213 7.24938 4.40422 6.75145 4.89976C6.25352 5.3953 5.85859 5.98449 5.58943 6.63337C5.32033 7.28211 5.18226 7.97769 5.18318 8.68002C5.16065 9.68183 4.96365 12.006 4.35588 13.2881C4.30237 13.3893 4.19533 13.6481 4.19533 13.8732C4.19419 14.0789 4.24734 14.2814 4.34941 14.46C4.45148 14.6387 4.59886 14.7873 4.77668 14.8908C4.95451 14.9943 5.15648 15.0491 5.36224 15.0496L5.36392 15.0496H7.77308C7.80532 15.7263 8.08834 16.3688 8.56959 16.85C9.08156 17.362 9.77595 17.6496 10.5 17.6496C11.224 17.6496 11.9184 17.362 12.4304 16.85C12.9117 16.3688 13.1947 15.7263 13.2269 15.0496ZM10.5312 4.64968C10.0004 4.64644 9.47422 4.74826 8.98294 4.94927C8.49155 5.15034 8.04481 5.44668 7.66847 5.82121C7.29214 6.19574 6.99365 6.64105 6.79022 7.13147C6.58679 7.62189 6.48244 8.14773 6.48318 8.67867L6.48318 9.19958C6.48318 9.37235 6.48059 9.54026 6.47561 9.70345C6.41952 11.5406 6.05962 12.7788 5.6643 13.5938C5.63822 13.6475 5.61199 13.6995 5.58568 13.7496H6.3343H11.5852H15.4144C14.954 12.872 14.5173 11.4456 14.5173 9.19958V8.73833C14.5173 6.50262 12.735 4.66628 10.5312 4.64968ZM11.9241 15.0496H9.07591C9.10616 15.3812 9.25146 15.6934 9.48883 15.9308C9.75701 16.1989 10.1207 16.3496 10.5 16.3496C10.8793 16.3496 11.243 16.1989 11.5112 15.9308C11.7485 15.6934 11.8938 15.3812 11.9241 15.0496Z"  fill=""/>
</svg>
