<svg    viewBox="0 0 21 21" fill="none" xmlns="http://www.w3.org/2000/svg">
<path fill-rule="evenodd" clip-rule="evenodd" d="M6.62837 4.64961V15.8268L10.1551 13.6223C10.3658 13.4906 10.6333 13.4906 10.8441 13.6223L14.3718 15.8269V4.64961H6.62837ZM5.6843 3.70554C5.9122 3.47764 6.22129 3.34961 6.54359 3.34961H14.4566C14.7789 3.34961 15.088 3.47764 15.3159 3.70554C15.5438 3.93344 15.6718 4.24253 15.6718 4.56483V16.9996C15.6718 17.2359 15.5436 17.4536 15.337 17.5681C15.1303 17.6827 14.8778 17.676 14.6774 17.5508L10.4996 14.94L6.3229 17.5508C6.12252 17.676 5.86996 17.6827 5.66328 17.5681C5.45661 17.4536 5.32837 17.2359 5.32837 16.9996V4.56483C5.32837 4.24253 5.4564 3.93344 5.6843 3.70554Z"  fill=""/>
</svg>
