<svg    viewBox="0 0 21 21" fill="none" xmlns="http://www.w3.org/2000/svg">
<path fill-rule="evenodd" clip-rule="evenodd" d="M4.7801 5.43662C4.66727 5.43662 4.57581 5.52808 4.57581 5.6409V7.17231C4.57581 7.28513 4.66727 7.37659 4.7801 7.37659H5.57107L5.59814 7.37634H15.4039L15.4309 7.37659H16.2201C16.3329 7.37659 16.4244 7.28513 16.4244 7.17231V5.6409C16.4244 5.52808 16.3329 5.43662 16.2201 5.43662H4.7801ZM3.3501 7.17231C3.3501 7.75752 3.70164 8.26062 4.20508 8.48196C4.18091 8.58617 4.16814 8.69475 4.16814 8.8063V16.0576C4.16814 16.8473 4.80837 17.4875 5.59814 17.4875H15.4038C16.1936 17.4875 16.8338 16.8473 16.8338 16.0576V8.8063C16.8338 8.69449 16.821 8.58567 16.7967 8.48125C17.2993 8.25954 17.6501 7.75689 17.6501 7.17231V5.6409C17.6501 4.85115 17.0099 4.21094 16.2201 4.21094H4.7801C3.99033 4.21094 3.3501 4.85115 3.3501 5.6409V7.17231ZM5.39385 8.8063C5.39385 8.69691 5.47983 8.6076 5.58791 8.60227H15.4141C15.5222 8.6076 15.6081 8.69691 15.6081 8.8063V16.0576C15.6081 16.1704 15.5167 16.2618 15.4038 16.2618H5.59814C5.48531 16.2618 5.39385 16.1704 5.39385 16.0576V8.8063ZM8.04811 10.6142C7.70964 10.6142 7.43525 10.8886 7.43525 11.227C7.43525 11.5655 7.70964 11.8399 8.04811 11.8399H12.951C13.2894 11.8399 13.5638 11.5655 13.5638 11.227C13.5638 10.8886 13.2894 10.6142 12.951 10.6142H8.04811Z"  fill=""/>
</svg>
