<svg    viewBox="0 0 21 21" fill="none" xmlns="http://www.w3.org/2000/svg">
<path fill-rule="evenodd" clip-rule="evenodd" d="M7.24994 3.34961C7.60892 3.34961 7.89994 3.64062 7.89994 3.99961V4.43294H13.0999V3.99961C13.0999 3.64062 13.391 3.34961 13.7499 3.34961C14.1089 3.34961 14.3999 3.64062 14.3999 3.99961V4.43294H15.9166C16.5747 4.43294 17.1083 4.96647 17.1083 5.62461V16.4579C17.1083 17.1161 16.5747 17.6496 15.9166 17.6496H5.08327C4.42513 17.6496 3.8916 17.1161 3.8916 16.4579V5.62461C3.8916 4.96647 4.42513 4.43294 5.08327 4.43294H6.59994V3.99961C6.59994 3.64062 6.89095 3.34961 7.24994 3.34961ZM6.59994 5.73294H5.1916V7.68294H15.8083V5.73294H14.3999V6.16628C14.3999 6.52526 14.1089 6.81628 13.7499 6.81628C13.391 6.81628 13.0999 6.52526 13.0999 6.16628V5.73294H7.89994V6.16628C7.89994 6.52526 7.60892 6.81628 7.24994 6.81628C6.89095 6.81628 6.59994 6.52526 6.59994 6.16628V5.73294ZM15.8083 8.98294H5.1916V16.3496H15.8083V8.98294ZM7.41244 11.041C7.41244 10.6821 7.70345 10.3911 8.06244 10.3911H9.95827C10.2081 10.3911 10.4359 10.5343 10.5441 10.7595C10.6524 10.9847 10.6219 11.252 10.4658 11.4471L9.93672 12.1085C10.0837 12.2224 10.2119 12.3597 10.316 12.5153C10.4744 12.7523 10.5719 13.0246 10.5999 13.3083C10.6279 13.5919 10.5855 13.878 10.4765 14.1414C10.3675 14.4047 10.1953 14.6371 9.97506 14.818C9.75482 14.9989 9.49337 15.1227 9.21387 15.1784C8.93437 15.2342 8.64544 15.2201 8.37266 15.1375C8.09988 15.0549 7.85168 14.9064 7.65003 14.7049C7.39604 14.4513 7.39578 14.0397 7.64947 13.7857C7.90316 13.5317 8.31471 13.5315 8.56871 13.7851C8.61912 13.8355 8.68117 13.8726 8.74937 13.8933C8.81756 13.9139 8.88979 13.9174 8.95967 13.9035C9.02955 13.8896 9.09491 13.8586 9.14997 13.8134C9.20503 13.7682 9.24809 13.7101 9.27533 13.6443C9.30258 13.5784 9.31317 13.5069 9.30617 13.436C9.29917 13.3651 9.2748 13.297 9.2352 13.2377C9.19561 13.1785 9.14202 13.13 9.07918 13.0964C9.01634 13.0628 8.94619 13.0452 8.87494 13.0452C8.62507 13.0452 8.39733 12.902 8.28909 12.6768C8.18085 12.4516 8.21128 12.1843 8.36737 11.9892L8.60586 11.691H8.06244C7.70345 11.691 7.41244 11.4 7.41244 11.041ZM12.9573 10.4597C13.1775 10.5698 13.3166 10.7949 13.3166 11.0411V14.5619C13.3166 14.9209 13.0256 15.2119 12.6666 15.2119C12.3076 15.2119 12.0166 14.9209 12.0166 14.5619V12.3411L11.9733 12.3736C11.6861 12.589 11.2787 12.5308 11.0633 12.2436C10.8479 11.9564 10.9061 11.549 11.1933 11.3336L12.2766 10.5211C12.4736 10.3734 12.7371 10.3496 12.9573 10.4597Z"  fill=""/>
</svg>
