<svg    viewBox="0 0 21 20" fill="none" xmlns="http://www.w3.org/2000/svg">
<path fill-rule="evenodd" clip-rule="evenodd" d="M4.45972 3.03999C4.20588 2.78615 3.79432 2.78615 3.54048 3.03999C3.28664 3.29382 3.28664 3.70538 3.54048 3.95921L6.74327 7.16195C6.75031 7.16934 6.75756 7.17658 6.765 7.18368L8.70829 9.12693C8.7157 9.13472 8.72327 9.14229 8.731 9.14965L11.8499 12.2685C11.8572 12.2762 11.8648 12.2837 11.8726 12.2911L15.0324 15.451C15.0377 15.4564 15.043 15.4618 15.0485 15.467L16.5405 16.959C16.7944 17.2129 17.2059 17.2129 17.4598 16.959C17.7136 16.7052 17.7136 16.2936 17.4598 16.0398L16.8397 15.4197C16.9579 15.3498 17.068 15.2649 17.1667 15.1662C17.4763 14.8566 17.65 14.4369 17.65 13.9995V7.99954C17.65 7.56202 17.4763 7.14228 17.1667 6.83275C16.8572 6.52334 16.4375 6.34956 16 6.34956H14.325L13.02 4.60959C12.8972 4.44591 12.7046 4.34959 12.5 4.34959H8.49999C8.29539 4.34959 8.10274 4.44591 7.97998 4.60958L7.14399 5.72422L4.45972 3.03999ZM8.07257 6.65277L9.28538 7.86556C9.65512 7.69484 10.0669 7.59955 10.5 7.59955C10.5277 7.59955 10.5554 7.59994 10.583 7.60071C12.1462 7.64464 13.4 8.92566 13.4 10.4995C13.4 10.607 13.3941 10.7133 13.3827 10.8179C13.348 11.1345 13.2623 11.4361 13.134 11.7141L15.7694 14.3495H16C16.0928 14.3495 16.1819 14.3126 16.2475 14.2469C16.2694 14.225 16.2881 14.2005 16.3033 14.174C16.3336 14.1214 16.35 14.0613 16.35 13.9995V7.99954C16.35 7.90663 16.3131 7.81768 16.2476 7.75213C16.182 7.68655 16.0928 7.64954 16 7.64954H14C13.7954 7.64954 13.6027 7.55322 13.48 7.38955L12.175 5.64957H8.88502H8.82499L8.07257 6.65277ZM12.0909 10.6711C12.0969 10.6147 12.1 10.5575 12.1 10.4995C12.1 9.61586 11.3836 8.89953 10.5 8.89953C10.442 8.89953 10.3847 8.90259 10.3284 8.90857L12.0909 10.6711ZM3.83338 6.83282C4.14281 6.52341 4.56249 6.34956 5.0001 6.34956C5.35909 6.34956 5.65011 6.64057 5.65011 6.99955C5.65011 7.35853 5.35909 7.64954 5.0001 7.64954C4.90729 7.64954 4.81826 7.68641 4.75262 7.75205C4.68698 7.81769 4.6501 7.90672 4.6501 7.99954V13.9995C4.6501 14.0923 4.687 14.1813 4.75257 14.2469C4.81827 14.3126 4.90734 14.3495 5.0001 14.3495H13.2189C13.5779 14.3495 13.8689 14.6405 13.8689 14.9994C13.8689 15.3584 13.5779 15.6494 13.2189 15.6494H5.0001C4.56242 15.6494 4.14279 15.4755 3.83342 15.1662C3.52391 14.8568 3.3501 14.437 3.3501 13.9995V7.99954C3.3501 7.56193 3.52395 7.14225 3.83338 6.83282ZM8.37967 9.50313C8.73423 9.5593 8.97613 9.89227 8.91995 10.2468C8.90694 10.329 8.90012 10.4135 8.90012 10.5001C8.90012 11.3837 9.61646 12.1 10.5001 12.1C10.5867 12.1 10.6713 12.0932 10.7533 12.0802C11.1079 12.024 11.4409 12.2659 11.4971 12.6204C11.5533 12.975 11.3114 13.308 10.9569 13.3642C10.8077 13.3878 10.6551 13.4 10.5001 13.4C8.89849 13.4 7.60011 12.1017 7.60011 10.5001C7.60011 10.3451 7.61233 10.1925 7.63596 10.0434C7.69214 9.68884 8.02511 9.44695 8.37967 9.50313Z"  fill=""/>
</svg>
