<svg    viewBox="0 0 21 20" fill="none" xmlns="http://www.w3.org/2000/svg">
<path fill-rule="evenodd" clip-rule="evenodd" d="M8.5001 4.34961C8.29551 4.34961 8.10285 4.44594 7.9801 4.60961L6.6751 6.34961H5.0001C4.56248 6.34961 4.14279 6.52347 3.83337 6.83288C3.52394 7.14232 3.3501 7.562 3.3501 7.99961V13.9996C3.3501 14.4372 3.52391 14.8569 3.83342 15.1664C4.14279 15.4757 4.56242 15.6496 5.0001 15.6496H16.0001C16.4377 15.6496 16.8574 15.4757 17.1668 15.1663C17.4762 14.8569 17.6501 14.4372 17.6501 13.9996V7.99961C17.6501 7.56193 17.4762 7.14229 17.1669 6.83292C16.8574 6.52343 16.4377 6.34961 16.0001 6.34961H14.3251L13.0201 4.60961C12.8973 4.44594 12.7047 4.34961 12.5001 4.34961H8.5001ZM8.8251 5.64961L7.5201 7.38961C7.39734 7.55328 7.20469 7.64961 7.0001 7.64961H5.0001C4.98038 7.64961 4.96084 7.65127 4.94166 7.65452L4.75261 7.75211C4.68698 7.81776 4.6501 7.90679 4.6501 7.99961V13.9996C4.6501 14.0925 4.687 14.1815 4.75257 14.247C4.81827 14.3127 4.90734 14.3496 5.0001 14.3496H16.0001C16.0929 14.3496 16.182 14.3127 16.2476 14.2471C16.3132 14.1815 16.3501 14.0924 16.3501 13.9996V7.99961C16.3501 7.90685 16.3132 7.81778 16.2475 7.75207L15.8858 7.64961H14.0001C13.7955 7.64961 13.6029 7.55328 13.4801 7.38961L13.0788 6.85449L12.1751 5.64961H8.8251ZM10.5001 7.59961C8.89847 7.59961 7.6001 8.89798 7.6001 10.4996C7.6001 12.1012 8.89847 13.3996 10.5001 13.3996C12.1017 13.3996 13.4001 12.1012 13.4001 10.4996C13.4001 8.89798 12.1017 7.59961 10.5001 7.59961ZM8.9001 10.4996C8.9001 9.61595 9.61644 8.89961 10.5001 8.89961C11.3838 8.89961 12.1001 9.61595 12.1001 10.4996C12.1001 11.3833 11.3838 12.0996 10.5001 12.0996C9.61644 12.0996 8.9001 11.3833 8.9001 10.4996Z"  fill=""/>
</svg>
