<svg   viewBox="0 0 20 21" fill="none" xmlns="http://www.w3.org/2000/svg">
<path fill-rule="evenodd" clip-rule="evenodd" d="M2.85011 10.4996C2.85011 6.55077 6.05127 3.34961 10.0001 3.34961C13.949 3.34961 17.1501 6.55078 17.1501 10.4996C17.1501 14.4485 13.949 17.6496 10.0001 17.6496C8.95176 17.6496 7.95461 17.4236 7.05608 17.0171L3.61577 17.6392C3.38556 17.6809 3.15074 17.5956 3.00091 17.4159C2.85108 17.2362 2.80936 16.9899 2.89166 16.7709L3.86681 14.1764C3.22129 13.1018 2.85011 11.8432 2.85011 10.4996ZM5.19657 14.3335L4.51151 16.1562L7.03557 15.6997L7.04086 15.6989C7.202 15.6714 7.3594 15.7058 7.48874 15.7848C8.24897 16.1467 9.09998 16.3496 10.0001 16.3496C13.231 16.3496 15.8501 13.7305 15.8501 10.4996C15.8501 7.26874 13.231 4.64961 10.0001 4.64961C6.76924 4.64961 4.15011 7.26874 4.15011 10.4996C4.15011 11.6801 4.49908 12.7771 5.09937 13.6955C5.23746 13.8699 5.28231 14.1109 5.19657 14.3335Z"  fill=""/>
</svg>
