<svg    viewBox="0 0 21 21" fill="none" xmlns="http://www.w3.org/2000/svg">
<path fill-rule="evenodd" clip-rule="evenodd" d="M10.5001 4.64961C7.26923 4.64961 4.6501 7.26874 4.6501 10.4996C4.6501 13.7305 7.26923 16.3496 10.5001 16.3496C13.731 16.3496 16.3501 13.7305 16.3501 10.4996C16.3501 7.26874 13.731 4.64961 10.5001 4.64961ZM3.3501 10.4996C3.3501 6.55077 6.55126 3.34961 10.5001 3.34961C14.4489 3.34961 17.6501 6.55077 17.6501 10.4996C17.6501 14.4484 14.4489 17.6496 10.5001 17.6496C6.55126 17.6496 3.3501 14.4484 3.3501 10.4996ZM7.87381 7.87332C8.12765 7.61948 8.53921 7.61948 8.79305 7.87332L10.5001 9.58037L12.2071 7.87332C12.461 7.61948 12.8725 7.61948 13.1264 7.87332C13.3802 8.12716 13.3802 8.53872 13.1264 8.79256L11.4193 10.4996L13.1264 12.2067C13.3802 12.4605 13.3802 12.8721 13.1264 13.1259C12.8725 13.3797 12.461 13.3797 12.2071 13.1259L10.5001 11.4188L8.79305 13.1259C8.53921 13.3797 8.12765 13.3797 7.87381 13.1259C7.61997 12.8721 7.61997 12.4605 7.87381 12.2067L9.58086 10.4996L7.87381 8.79256C7.61997 8.53872 7.61997 8.12716 7.87381 7.87332Z"  fill=""/>
</svg>
