<svg    viewBox="0 0 21 21" fill="none" xmlns="http://www.w3.org/2000/svg">
<path fill-rule="evenodd" clip-rule="evenodd" d="M10.5001 4.64961C7.26923 4.64961 4.6501 7.26874 4.6501 10.4996C4.6501 13.7305 7.26923 16.3496 10.5001 16.3496C13.731 16.3496 16.3501 13.7305 16.3501 10.4996C16.3501 7.26874 13.731 4.64961 10.5001 4.64961ZM3.3501 10.4996C3.3501 6.55077 6.55126 3.34961 10.5001 3.34961C14.4489 3.34961 17.6501 6.55077 17.6501 10.4996C17.6501 14.4484 14.4489 17.6496 10.5001 17.6496C6.55126 17.6496 3.3501 14.4484 3.3501 10.4996ZM13.9494 8.4258C14.1973 8.68548 14.1877 9.09692 13.9281 9.34479L9.95583 13.1365C9.70465 13.3762 9.30938 13.3762 9.05821 13.1365L7.07212 11.2406C6.81245 10.9927 6.80288 10.5813 7.05075 10.3216C7.29862 10.062 7.71007 10.0524 7.96974 10.3003L9.50702 11.7677L13.0305 8.40443C13.2901 8.15656 13.7016 8.16613 13.9494 8.4258Z"  fill=""/>
</svg>
