<svg    viewBox="0 0 21 21" fill="none" xmlns="http://www.w3.org/2000/svg">
<path fill-rule="evenodd" clip-rule="evenodd" d="M10.5001 4.64961C7.26923 4.64961 4.6501 7.26874 4.6501 10.4996C4.6501 13.7305 7.26923 16.3496 10.5001 16.3496C13.731 16.3496 16.3501 13.7305 16.3501 10.4996C16.3501 7.26874 13.731 4.64961 10.5001 4.64961ZM3.3501 10.4996C3.3501 6.55077 6.55126 3.34961 10.5001 3.34961C14.4489 3.34961 17.6501 6.55077 17.6501 10.4996C17.6501 14.4484 14.4489 17.6496 10.5001 17.6496C6.55126 17.6496 3.3501 14.4484 3.3501 10.4996ZM10.5001 7.14128C10.8591 7.14128 11.1501 7.43229 11.1501 7.79128V9.84961H13.2084C13.5674 9.84961 13.8584 10.1406 13.8584 10.4996C13.8584 10.8586 13.5674 11.1496 13.2084 11.1496H11.1501V13.2079C11.1501 13.5669 10.8591 13.8579 10.5001 13.8579C10.1411 13.8579 9.8501 13.5669 9.8501 13.2079V11.1496H7.79176C7.43278 11.1496 7.14176 10.8586 7.14176 10.4996C7.14176 10.1406 7.43278 9.84961 7.79176 9.84961H9.8501V7.79128C9.8501 7.43229 10.1411 7.14128 10.5001 7.14128Z"  fill=""/>
</svg>
