<svg    viewBox="0 0 21 21" fill="none" xmlns="http://www.w3.org/2000/svg">
<path fill-rule="evenodd" clip-rule="evenodd" d="M4.6501 10.4996C4.6501 7.26874 7.26923 4.64961 10.5001 4.64961C13.731 4.64961 16.3501 7.26874 16.3501 10.4996C16.3501 13.7305 13.731 16.3496 10.5001 16.3496C7.26923 16.3496 4.6501 13.7305 4.6501 10.4996ZM10.5001 3.34961C6.55126 3.34961 3.3501 6.55077 3.3501 10.4996C3.3501 14.4484 6.55126 17.6496 10.5001 17.6496C14.4489 17.6496 17.6501 14.4484 17.6501 10.4996C17.6501 6.55077 14.4489 3.34961 10.5001 3.34961ZM13.7 10.5C13.7 12.2673 12.2673 13.7 10.5 13.7C8.73269 13.7 7.3 12.2673 7.3 10.5C7.3 8.73269 8.73269 7.3 10.5 7.3C12.2673 7.3 13.7 8.73269 13.7 10.5ZM15 10.5C15 12.9853 12.9853 15 10.5 15C8.01472 15 6 12.9853 6 10.5C6 8.01472 8.01472 6 10.5 6C12.9853 6 15 8.01472 15 10.5Z"  fill=""/>
</svg>
