<svg   viewBox="0 0 20 21" fill="none" xmlns="http://www.w3.org/2000/svg">
<path fill-rule="evenodd" clip-rule="evenodd" d="M10.7969 5.04554C9.71802 4.83094 8.59974 4.94108 7.58346 5.36204C6.56718 5.78299 5.69856 6.49586 5.08742 7.41048C4.47629 8.32511 4.1501 9.40042 4.1501 10.5004C4.1501 11.6004 4.47629 12.6757 5.08742 13.5904C5.69856 14.505 6.56718 15.2179 7.58346 15.6388C8.59974 16.0598 9.71802 16.1699 10.7969 15.9553C11.8758 15.7407 12.8668 15.211 13.6446 14.4332C13.8984 14.1793 14.31 14.1793 14.5638 14.4332C14.8177 14.687 14.8177 15.0986 14.5638 15.3524C13.6042 16.3121 12.3816 16.9656 11.0505 17.2303C9.71946 17.4951 8.33979 17.3592 7.08597 16.8399C5.83215 16.3205 4.76049 15.441 4.00651 14.3126C3.25253 13.1842 2.8501 11.8576 2.8501 10.5004C2.8501 9.1433 3.25253 7.81665 4.00651 6.68824C4.76049 5.55983 5.83215 4.68034 7.08597 4.16099C8.33979 3.64164 9.71946 3.50576 11.0505 3.77052C12.3816 4.03528 13.6042 4.6888 14.5638 5.64844L15.8501 6.93468V5.11568C15.8501 4.7567 16.1411 4.46568 16.5001 4.46568C16.8591 4.46568 17.1501 4.7567 17.1501 5.11568V8.50391C17.1501 8.8629 16.8591 9.15391 16.5001 9.15391H13.1119C12.7529 9.15391 12.4619 8.8629 12.4619 8.50391C12.4619 8.14493 12.7529 7.85391 13.1119 7.85391H14.9309L13.6446 6.56768L14.1042 6.10805L13.6446 6.56767C12.8668 5.78985 11.8758 5.26014 10.7969 5.04554Z"  fill=""/>
</svg>
