<svg   viewBox="0 0 20 21" fill="none" xmlns="http://www.w3.org/2000/svg">
<path fill-rule="evenodd" clip-rule="evenodd" d="M8.94944 3.77052C10.2805 3.50576 11.6602 3.64164 12.914 4.16099C14.1678 4.68034 15.2395 5.55983 15.9934 6.68824C16.7474 7.81665 17.1499 9.1433 17.1499 10.5004C17.1499 11.8576 16.7474 13.1842 15.9934 14.3126C15.2395 15.441 14.1678 16.3205 12.914 16.8399C11.6602 17.3592 10.2805 17.4951 8.94944 17.2303C7.61839 16.9656 6.39574 16.3121 5.43611 15.3524C5.18227 15.0986 5.18227 14.687 5.43611 14.4332C5.68995 14.1793 6.1015 14.1793 6.35535 14.4332C7.13317 15.211 8.12418 15.7407 9.20305 15.9553C10.2819 16.1699 11.4002 16.0598 12.4165 15.6388C13.4328 15.2179 14.3014 14.505 14.9125 13.5904C15.5237 12.6757 15.8499 11.6004 15.8499 10.5004C15.8499 9.40042 15.5237 8.32511 14.9125 7.41048C14.3014 6.49586 13.4328 5.78299 12.4165 5.36204C11.4002 4.94108 10.2819 4.83094 9.20305 5.04554C8.12418 5.26014 7.13317 5.78985 6.35535 6.56767L6.35534 6.56768L5.0691 7.85391H6.88808C7.24707 7.85391 7.53808 8.14493 7.53808 8.50391C7.53808 8.8629 7.24707 9.15391 6.88808 9.15391H3.49985C3.14087 9.15391 2.84985 8.8629 2.84985 8.50391V5.11568C2.84985 4.7567 3.14087 4.46568 3.49985 4.46568C3.85884 4.46568 4.14985 4.7567 4.14985 5.11568V6.93468L5.43611 5.64844C5.43611 5.64844 5.43611 5.64843 5.43611 5.64843C6.39574 4.6888 7.61839 4.03528 8.94944 3.77052Z"  fill=""/>
</svg>
