<svg    viewBox="0 0 21 21" fill="none" xmlns="http://www.w3.org/2000/svg">
<path fill-rule="evenodd" clip-rule="evenodd" d="M10.5001 4.64961C7.26923 4.64961 4.6501 7.26874 4.6501 10.4996C4.6501 13.7305 7.26923 16.3496 10.5001 16.3496C13.731 16.3496 16.3501 13.7305 16.3501 10.4996C16.3501 7.26874 13.731 4.64961 10.5001 4.64961ZM3.3501 10.4996C3.3501 6.55077 6.55126 3.34961 10.5001 3.34961C14.4489 3.34961 17.6501 6.55077 17.6501 10.4996C17.6501 14.4484 14.4489 17.6496 10.5001 17.6496C6.55126 17.6496 3.3501 14.4484 3.3501 10.4996ZM10.5001 6.05794C10.8591 6.05794 11.1501 6.34896 11.1501 6.70794V9.84961H14.2918C14.6507 9.84961 14.9418 10.1406 14.9418 10.4996C14.9418 10.8586 14.6507 11.1496 14.2918 11.1496H10.5001C10.1411 11.1496 9.8501 10.8586 9.8501 10.4996V6.70794C9.8501 6.34896 10.1411 6.05794 10.5001 6.05794Z"  fill=""/>
</svg>
