<svg    viewBox="0 0 21 21" fill="none" xmlns="http://www.w3.org/2000/svg">
<path fill-rule="evenodd" clip-rule="evenodd" d="M3.3501 10.4996C3.3501 6.55077 6.55126 3.34961 10.5001 3.34961C14.449 3.34961 17.6501 6.55078 17.6501 10.4996C17.6501 14.4485 14.449 17.6496 10.5001 17.6496C6.55127 17.6496 3.3501 14.4485 3.3501 10.4996ZM11.8764 16.1868C14.2386 15.6172 16.042 13.6141 16.3144 11.1496H13.6013C13.4148 12.9413 12.8233 14.6633 11.8764 16.1868ZM13.6013 9.84961H16.3144C16.042 7.38511 14.2386 5.38203 11.8764 4.81242C12.8233 6.33589 13.4148 8.05794 13.6013 9.84961ZM9.12379 4.81243C6.76159 5.38204 4.95824 7.38512 4.6858 9.84961H7.39893C7.5854 8.05794 8.17688 6.3359 9.12379 4.81243ZM8.70683 9.84961C8.9072 8.13765 9.52326 6.50114 10.5001 5.08289C11.4769 6.50114 12.093 8.13765 12.2934 9.84961H8.70683ZM8.70683 11.1496H12.2934C12.093 12.8616 11.4769 14.498 10.5001 15.9163C9.52326 14.498 8.9072 12.8616 8.70683 11.1496ZM7.39893 11.1496C7.5854 12.9413 8.17689 14.6633 9.12381 16.1868C6.7616 15.6172 4.95823 13.6141 4.6858 11.1496H7.39893Z"  fill=""/>
</svg>
