<svg    viewBox="0 0 21 21" fill="none" xmlns="http://www.w3.org/2000/svg">
<path fill-rule="evenodd" clip-rule="evenodd" d="M5.4376 3.34961C4.52633 3.34961 3.7876 4.08834 3.7876 4.99961V13.4996C3.7876 14.4109 4.52633 15.1496 5.4376 15.1496H13.9376C14.8489 15.1496 15.5876 14.4109 15.5876 13.4996V4.99961C15.5876 4.08835 14.8489 3.34961 13.9376 3.34961H5.4376ZM5.0876 4.99961C5.0876 4.80631 5.2443 4.64961 5.4376 4.64961H13.9376C14.1309 4.64961 14.2876 4.8063 14.2876 4.99961V13.4996C14.2876 13.6929 14.1309 13.8496 13.9376 13.8496H5.4376C5.24429 13.8496 5.0876 13.6929 5.0876 13.4996V4.99961ZM18.0876 6.99961C18.0876 6.64062 17.7966 6.34961 17.4376 6.34961C17.0786 6.34961 16.7876 6.64062 16.7876 6.99961V15.9996C16.7876 16.0924 16.7507 16.1815 16.6851 16.2471C16.6195 16.3127 16.5304 16.3496 16.4376 16.3496H7.4376C7.07861 16.3496 6.7876 16.6406 6.7876 16.9996C6.7876 17.3586 7.07861 17.6496 7.4376 17.6496H16.4376C16.8752 17.6496 17.2949 17.4757 17.6043 17.1663C17.9137 16.8569 18.0876 16.4372 18.0876 15.9996V6.99961Z"  fill=""/>
</svg>
