<svg    viewBox="0 0 21 21" fill="none" xmlns="http://www.w3.org/2000/svg">
<path fill-rule="evenodd" clip-rule="evenodd" d="M5.0001 4.64961C4.90727 4.64961 4.81825 4.68648 4.75261 4.75212C4.68697 4.81776 4.6501 4.90678 4.6501 4.99961V15.9996C4.6501 16.0925 4.687 16.1815 4.75257 16.247C4.81827 16.3127 4.90734 16.3496 5.0001 16.3496H16.0001C16.0929 16.3496 16.182 16.3127 16.2476 16.2471C16.3132 16.1815 16.3501 16.0924 16.3501 15.9996V11.4996C16.3501 11.1406 16.6411 10.8496 17.0001 10.8496C17.3591 10.8496 17.6501 11.1406 17.6501 11.4996V15.9996C17.6501 16.4372 17.4762 16.8569 17.1668 17.1663C16.8574 17.4757 16.4377 17.6496 16.0001 17.6496H5.0001C4.56242 17.6496 4.14279 17.4757 3.83342 17.1664C3.52391 16.8569 3.3501 16.4372 3.3501 15.9996V4.99961C3.3501 4.562 3.52394 4.14232 3.83337 3.83288C4.14281 3.52345 4.56249 3.34961 5.0001 3.34961H9.5001C9.85908 3.34961 10.1501 3.64062 10.1501 3.99961C10.1501 4.35859 9.85908 4.64961 9.5001 4.64961H5.0001ZM17.4597 3.53999C17.5956 3.67586 17.6587 3.85691 17.6492 4.03478C17.6498 4.04697 17.6501 4.05924 17.6501 4.07158V7.52391C17.6501 7.86947 17.3623 8.14961 17.0073 8.14961C16.6523 8.14961 16.3645 7.86947 16.3645 7.52391V5.55441L10.9597 10.9592C10.7059 11.2131 10.2943 11.2131 10.0405 10.9592C9.78664 10.7054 9.78664 10.2938 10.0405 10.04L15.4795 4.60102H13.4929C13.1379 4.60102 12.8501 4.32088 12.8501 3.97531C12.8501 3.62975 13.1379 3.34961 13.4929 3.34961H16.9084C16.9245 3.34961 16.9404 3.35011 16.9562 3.35108C17.1369 3.33893 17.3216 3.4019 17.4597 3.53999Z"  fill=""/>
</svg>
