<svg    viewBox="0 0 21 21" fill="none" xmlns="http://www.w3.org/2000/svg">
<path fill-rule="evenodd" clip-rule="evenodd" d="M4.21676 6.78964C4.53289 6.61954 4.92705 6.73792 5.09716 7.05404C5.36723 7.55595 5.71899 8.01643 6.13718 8.41993C6.16147 8.43981 6.18458 8.46168 6.20628 8.48552C7.29391 9.50114 8.81038 10.1388 10.5008 10.1388C12.1867 10.1388 13.6996 9.50449 14.7866 8.49353C14.8129 8.46375 14.8413 8.43693 14.8714 8.41311C15.2865 8.01124 15.6358 7.55313 15.9043 7.05405C16.0744 6.73792 16.4686 6.61954 16.7847 6.78964C17.1009 6.95974 17.2192 7.35391 17.0491 7.67003C16.8184 8.09884 16.5412 8.50108 16.2239 8.87132L18.2176 10.5421C18.4927 10.7727 18.5288 11.1827 18.2983 11.4578C18.0677 11.733 17.6577 11.7691 17.3826 11.5385L15.2851 9.78066C14.6528 10.2897 13.9271 10.6986 13.1365 10.983L14.0951 13.3971C14.2276 13.7308 14.0645 14.1086 13.7309 14.2411C13.3972 14.3736 13.0193 14.2105 12.8869 13.8769L11.8713 11.3193C11.4268 11.3978 10.9686 11.4388 10.5008 11.4388C10.0311 11.4388 9.57112 11.3975 9.125 11.3184L8.10909 13.8769C7.97661 14.2105 7.59874 14.3736 7.26509 14.2411C6.93145 14.1086 6.76837 13.7308 6.90085 13.3971L7.86013 10.9812C7.07116 10.6968 6.34689 10.2883 5.71575 9.78008L3.61757 11.5385C3.34244 11.7691 2.93247 11.733 2.70188 11.4578C2.4713 11.1827 2.50742 10.7727 2.78255 10.5421L4.77702 8.87063C4.45996 8.50059 4.18295 8.09858 3.95236 7.67004C3.78226 7.35391 3.90064 6.95975 4.21676 6.78964Z"  fill=""/>
</svg>
