<svg    viewBox="0 0 21 21" fill="none" xmlns="http://www.w3.org/2000/svg">
<path fill-rule="evenodd" clip-rule="evenodd" d="M17.1735 10.3989C17.1823 10.4113 17.2 10.4462 17.2 10.5C17.2 10.5539 17.1823 10.5888 17.1735 10.6012C16.563 11.3325 15.5871 12.3792 14.3894 13.236C13.1749 14.1048 11.8422 14.7 10.5 14.7C9.15779 14.7 7.82512 14.1048 6.6106 13.236C5.41286 12.3792 4.43701 11.3324 3.82643 10.6011C3.81767 10.5887 3.8 10.5539 3.8 10.5C3.8 10.4461 3.81767 10.4113 3.82643 10.399C4.43701 9.66759 5.41286 8.62084 6.6106 7.76404C7.82513 6.89523 9.15779 6.3 10.5 6.3C11.8422 6.3 13.1749 6.89523 14.3894 7.76405C15.5871 8.62081 16.563 9.66751 17.1735 10.3989ZM2.5 10.5C2.5 10.8404 2.6132 11.1686 2.8177 11.4213C4.11247 12.975 7.05962 16 10.5 16C13.9404 16 16.8876 12.975 18.1824 11.4213C18.3868 11.1686 18.5 10.8404 18.5 10.5C18.5 10.1597 18.3868 9.83142 18.1824 9.57876C16.8876 8.025 13.9404 5 10.5 5C7.05962 5 4.11247 8.025 2.8177 9.57876C2.6132 9.83142 2.5 10.1597 2.5 10.5ZM11.7 10.5C11.7 11.1627 11.1627 11.7 10.5 11.7C9.83726 11.7 9.3 11.1627 9.3 10.5C9.3 9.83726 9.83726 9.3 10.5 9.3C11.1627 9.3 11.7 9.83726 11.7 10.5ZM10.5 13C11.8807 13 13 11.8807 13 10.5C13 9.11929 11.8807 8 10.5 8C9.11929 8 8 9.11929 8 10.5C8 11.8807 9.11929 13 10.5 13Z"  fill=""/>
</svg>
