<svg    viewBox="0 0 21 21" fill="none" xmlns="http://www.w3.org/2000/svg">
<path fill-rule="evenodd" clip-rule="evenodd" d="M6.2501 5.99947H7.35786C7.43376 6.84032 8.1405 7.49922 9.00111 7.49922H12.0011C12.8617 7.49922 13.5685 6.84032 13.6444 5.99947H14.7501C14.8429 5.99947 14.932 6.03638 14.9975 6.10194C15.0632 6.16765 15.1001 6.25672 15.1001 6.34947V16.3495C15.1001 16.4423 15.0632 16.5313 14.9976 16.597C14.932 16.6626 14.8429 16.6995 14.7501 16.6995H6.2501C6.15734 16.6995 6.06828 16.6626 6.00257 16.5969C5.93701 16.5314 5.9001 16.4423 5.9001 16.3495V6.34947C5.9001 6.25666 5.93699 6.16762 6.00262 6.10197C6.06827 6.03634 6.15729 5.99947 6.2501 5.99947ZM14.7501 4.69947H13.5183C13.266 4.11125 12.6817 3.69922 12.0011 3.69922H9.00111C8.32055 3.69922 7.73622 4.11125 7.48397 4.69947H6.2501C5.81248 4.69947 5.39281 4.87332 5.08338 5.18273C4.77397 5.49216 4.6001 5.91185 4.6001 6.34947V16.3495C4.6001 16.787 4.77393 17.2068 5.08342 17.5162C5.39279 17.8255 5.81242 17.9995 6.2501 17.9995H14.7501C15.1877 17.9995 15.6074 17.8256 15.9168 17.5162C16.2262 17.2068 16.4001 16.7871 16.4001 16.3495V6.34947C16.4001 5.91179 16.2262 5.49215 15.9169 5.18278C15.6074 4.87329 15.1877 4.69947 14.7501 4.69947ZM9.00111 4.99922C8.80781 4.99922 8.65111 5.15592 8.65111 5.34922V5.84922C8.65111 6.04251 8.80782 6.19922 9.00111 6.19922H12.0011C12.1944 6.19922 12.3511 6.04251 12.3511 5.84922V5.34922C12.3511 5.15592 12.1944 4.99922 12.0011 4.99922H9.00111ZM13.5186 10.2394C13.734 9.95221 13.6758 9.54479 13.3886 9.3294C13.1014 9.11401 12.694 9.17221 12.4786 9.4594L9.84757 12.9675L8.85919 12.3086C8.56049 12.1094 8.15693 12.1901 7.9578 12.4888C7.75867 12.7875 7.83938 13.1911 8.13808 13.3902L9.63808 14.3902C9.92512 14.5816 10.3116 14.5154 10.5186 14.2394L13.5186 10.2394Z"  fill=""/>
</svg>
