<svg    viewBox="0 0 21 21" fill="none" xmlns="http://www.w3.org/2000/svg">
<path fill-rule="evenodd" clip-rule="evenodd" d="M4.7715 5.02266L9.176 9.8676C9.37742 10.0892 9.48903 10.3779 9.48903 10.6773V15.893L11.5112 14.5449V10.6773C11.5112 10.3779 11.6228 10.0892 11.8242 9.8676L16.2287 5.02266H4.7715ZM3.89701 3.91763C4.09242 3.79039 4.3206 3.72266 4.55379 3.72266H16.4464C16.6796 3.72266 16.9078 3.79039 17.1032 3.91763C17.2986 4.04487 17.4529 4.22613 17.5472 4.43939C17.6415 4.65265 17.6719 4.88872 17.6346 5.1189C17.5973 5.34909 17.4939 5.56349 17.3371 5.73603L12.8112 10.7145V14.5964C12.8112 14.7946 12.7622 14.9897 12.6687 15.1644C12.5752 15.3391 12.44 15.488 12.2752 15.5979L10.0604 17.0744C9.87913 17.1953 9.66845 17.2647 9.45084 17.2752C9.23323 17.2857 9.01684 17.237 8.82475 17.1342C8.63266 17.0314 8.47208 16.8784 8.36012 16.6915C8.24816 16.5046 8.18903 16.2908 8.18903 16.0729V10.7145L3.66313 5.73603C3.50627 5.56349 3.4029 5.34909 3.3656 5.1189C3.3283 4.88871 3.35866 4.65264 3.453 4.43939C3.54733 4.22613 3.70159 4.04487 3.89701 3.91763Z"  fill=""/>
</svg>
