<svg   viewBox="0 0 20 21" fill="none" xmlns="http://www.w3.org/2000/svg">
<path fill-rule="evenodd" clip-rule="evenodd" d="M9.03304 3.9022C9.38623 3.96642 9.6205 4.3048 9.55628 4.65799L9.00621 7.68338H12.0182L12.6106 4.42544C12.6748 4.07224 13.0132 3.83798 13.3664 3.9022C13.7196 3.96642 13.9538 4.3048 13.8896 4.65799L13.3395 7.68338H16.5001C16.8591 7.68338 17.1501 7.9744 17.1501 8.33338C17.1501 8.69237 16.8591 8.98338 16.5001 8.98338H13.1032L12.5517 12.0167H15.7122C16.0712 12.0167 16.3622 12.3077 16.3622 12.6667C16.3622 13.0257 16.0712 13.3167 15.7122 13.3167H12.3153L11.7229 16.5747C11.6587 16.9279 11.3204 17.1621 10.9672 17.0979C10.614 17.0337 10.3797 16.6953 10.4439 16.3421L10.994 13.3167H7.98197L7.38961 16.5747C7.3254 16.9279 6.98702 17.1621 6.63382 17.0979C6.28063 17.0337 6.04637 16.6953 6.11058 16.3421L6.66065 13.3167H3.5001C3.14111 13.3167 2.8501 13.0257 2.8501 12.6667C2.8501 12.3077 3.14111 12.0167 3.5001 12.0167H6.89702L7.44853 8.98338H4.28798C3.92899 8.98338 3.63798 8.69237 3.63798 8.33338C3.63798 7.9744 3.92899 7.68338 4.28798 7.68338H7.6849L8.27725 4.42544C8.34147 4.07224 8.67985 3.83798 9.03304 3.9022ZM8.76985 8.98338L8.21833 12.0167H11.2303L11.7819 8.98338H8.76985Z"  fill=""/>
</svg>
