<svg   viewBox="0 0 20 21" fill="none" xmlns="http://www.w3.org/2000/svg">
<path fill-rule="evenodd" clip-rule="evenodd" d="M4.06058 10.5296L10.0047 16.0885L15.9489 10.5296C17.3571 9.06307 17.0561 6.87879 15.8217 5.60817C15.2183 4.98713 14.4214 4.62537 13.5402 4.6899C12.659 4.75442 11.596 5.25329 10.4874 6.55097C10.3653 6.694 10.1894 6.77594 10.0047 6.77594C9.82003 6.77594 9.64422 6.694 9.52204 6.55098C8.41358 5.25337 7.34879 4.75257 6.46505 4.68646C5.58133 4.62035 4.78238 4.98077 4.17822 5.60015C2.94355 6.86592 2.63955 9.04987 4.06058 10.5296ZM10.0047 5.14708C8.8773 4.01253 7.6969 3.44612 6.55808 3.36093C5.25552 3.26348 4.10363 3.80373 3.27124 4.65708C1.63593 6.33359 1.12243 9.37556 3.16114 11.4805C3.16863 11.4882 3.17631 11.4957 3.18416 11.5031L9.57266 17.4776C9.81789 17.7069 10.1916 17.7069 10.4368 17.4776L16.8253 11.5031C16.8332 11.4957 16.8409 11.4882 16.8484 11.4805C18.8768 9.38617 18.3603 6.34459 16.7305 4.66699C15.9002 3.81231 14.7506 3.26892 13.4491 3.36421C12.3113 3.44753 11.1319 4.01287 10.0047 5.14708Z"  fill=""/>
</svg>
