<svg    viewBox="0 0 21 21" fill="none" xmlns="http://www.w3.org/2000/svg">
<path fill-rule="evenodd" clip-rule="evenodd" d="M10.4866 4.83353L4.76129 10.1769C4.69037 10.2431 4.6501 10.3358 4.6501 10.4328V15.9453C4.6501 16.1386 4.8068 16.2953 5.0001 16.2953H8.09521V13.2544C8.09521 12.7297 8.52054 12.3044 9.04521 12.3044L11.9452 12.3044C12.4699 12.3044 12.8952 12.7298 12.8952 13.2544V16.2953H16.0001C16.1934 16.2953 16.3501 16.1386 16.3501 15.9453V10.4341C16.3501 10.3368 16.3096 10.2439 16.2383 10.1777L10.4866 4.83353ZM9.8379 3.66076C10.2023 3.32067 10.7676 3.32004 11.1327 3.65932L17.1232 9.22535C17.4592 9.53754 17.6501 9.97548 17.6501 10.4341V15.9453C17.6501 16.8566 16.9114 17.5953 16.0001 17.5953H12.5452C12.0205 17.5953 11.5952 17.17 11.5952 16.6453V13.6044H9.39521V16.6453C9.39521 17.17 8.96988 17.5953 8.44521 17.5953H5.0001C4.08883 17.5953 3.3501 16.8566 3.3501 15.9453V10.4328C3.3501 9.97543 3.53994 9.53859 3.8743 9.22653L9.8379 3.66076Z"  fill=""/>
</svg>
