<svg    viewBox="0 0 21 21" fill="none" xmlns="http://www.w3.org/2000/svg">
<path fill-rule="evenodd" clip-rule="evenodd" d="M4.6501 10.4996C4.6501 7.26874 7.26923 4.64961 10.5001 4.64961C13.731 4.64961 16.3501 7.26874 16.3501 10.4996C16.3501 13.7305 13.731 16.3496 10.5001 16.3496C7.26923 16.3496 4.6501 13.7305 4.6501 10.4996ZM10.5001 3.34961C6.55126 3.34961 3.3501 6.55077 3.3501 10.4996C3.3501 14.4484 6.55126 17.6496 10.5001 17.6496C14.4489 17.6496 17.6501 14.4484 17.6501 10.4996C17.6501 6.55077 14.4489 3.34961 10.5001 3.34961ZM9.95843 9.30794C9.59945 9.30794 9.30843 9.59896 9.30843 9.95794C9.30843 10.28 9.54268 10.5474 9.8501 10.599V13.7496C9.8501 14.1086 10.1411 14.3996 10.5001 14.3996H11.0418C11.4007 14.3996 11.6918 14.1086 11.6918 13.7496C11.6918 13.4275 11.4575 13.1602 11.1501 13.1086V9.95794C11.1501 9.59896 10.8591 9.30794 10.5001 9.30794H9.95843ZM11.3126 7.52051C11.3126 7.96924 10.9489 8.33301 10.5001 8.33301C10.0514 8.33301 9.68762 7.96924 9.68762 7.52051C9.68762 7.07178 10.0514 6.70801 10.5001 6.70801C10.9489 6.70801 11.3126 7.07178 11.3126 7.52051Z"  fill=""/>
</svg>
