<svg    viewBox="0 0 21 21" fill="none" xmlns="http://www.w3.org/2000/svg">
<path fill-rule="evenodd" clip-rule="evenodd" d="M10.8293 4.51947C11.5787 3.77032 12.595 3.34952 13.6547 3.34961C14.7143 3.3497 15.7305 3.77068 16.4798 4.51995C17.229 5.26922 17.65 6.28543 17.6501 7.34506C17.6502 8.40469 17.2294 9.42097 16.4802 10.1704L14.5086 12.142C14.2548 12.3958 13.8432 12.3958 13.5894 12.142C13.3356 11.8881 13.3356 11.4766 13.5894 11.2227L15.5609 9.25129C15.5608 9.25132 15.5609 9.25126 15.5609 9.25129C16.0662 8.74571 16.3502 8.06002 16.3501 7.34517C16.35 6.63028 16.066 5.94469 15.5605 5.43919C15.055 4.93369 14.3694 4.64967 13.6545 4.64961C12.9397 4.64955 12.2541 4.93342 11.7485 5.43878C11.7485 5.43881 11.7485 5.43876 11.7485 5.43878L9.77697 7.41031C9.52313 7.66415 9.11157 7.66415 8.85773 7.41031C8.60389 7.15647 8.60389 6.74491 8.85773 6.49107L10.8293 4.51947ZM13.3255 7.67379C13.5794 7.92764 13.5794 8.33919 13.3255 8.59303L8.59386 13.3247C8.34002 13.5785 7.92846 13.5785 7.67462 13.3247C7.42078 13.0709 7.42078 12.6593 7.67462 12.4055L12.4063 7.67379C12.6601 7.41995 13.0717 7.41995 13.3255 7.67379ZM7.4108 8.85724C7.66464 9.11109 7.66464 9.52264 7.4108 9.77648L5.43935 11.7479C5.43932 11.748 5.43938 11.7479 5.43935 11.7479C4.93398 12.2535 4.65004 12.9392 4.6501 13.654C4.65016 14.3689 4.93417 15.0545 5.43968 15.56C5.94518 16.0655 6.63077 16.3495 7.34566 16.3496C8.06051 16.3497 8.74612 16.0658 9.2517 15.5604C9.25168 15.5605 9.25173 15.5604 9.2517 15.5604L11.2232 13.5889C11.4771 13.3351 11.8886 13.3351 12.1425 13.5889C12.3963 13.8427 12.3963 14.2543 12.1425 14.5081L10.1709 16.4797C9.42154 17.2288 8.40518 17.6497 7.34555 17.6496C6.28592 17.6495 5.26971 17.2285 4.52044 16.4793C3.77117 15.73 3.35019 14.7138 3.3501 13.6542C3.35001 12.5945 3.77081 11.5782 4.51996 10.8288L6.49156 8.85724C6.7454 8.6034 7.15696 8.6034 7.4108 8.85724Z"  fill=""/>
</svg>
