<svg    viewBox="0 0 21 21" fill="none" xmlns="http://www.w3.org/2000/svg">
<path fill-rule="evenodd" clip-rule="evenodd" d="M4.4231 5.34863C3.87081 5.34863 3.4231 5.79635 3.4231 6.34863C3.4231 6.90091 3.87081 7.34863 4.4231 7.34863C4.97538 7.34863 5.4231 6.90092 5.4231 6.34863C5.4231 5.79635 4.97538 5.34863 4.4231 5.34863ZM7.92581 5.6995C7.56682 5.6995 7.27581 5.99051 7.27581 6.3495C7.27581 6.70848 7.56682 6.9995 7.92581 6.9995H16.9258C17.2848 6.9995 17.5758 6.70848 17.5758 6.3495C17.5758 5.99051 17.2848 5.6995 16.9258 5.6995H7.92581ZM3.42327 10.8499C3.42327 10.2976 3.87098 9.84989 4.42327 9.84989C4.97555 9.84989 5.42327 10.2976 5.42327 10.8499C5.42327 11.4022 4.97555 11.8499 4.42327 11.8499C3.87098 11.8499 3.42327 11.4022 3.42327 10.8499ZM7.92703 10.198C7.56804 10.198 7.27703 10.489 7.27703 10.848C7.27703 11.2069 7.56804 11.498 7.92703 11.498H16.927C17.286 11.498 17.577 11.2069 17.577 10.848C17.577 10.489 17.286 10.198 16.927 10.198H7.92703ZM3.42327 15.3504C3.42327 14.7982 3.87096 14.3504 4.42327 14.3504C4.97558 14.3504 5.42327 14.7982 5.42327 15.3504C5.42327 15.9027 4.97558 16.3504 4.42327 16.3504C3.87096 16.3504 3.42327 15.9027 3.42327 15.3504ZM7.92703 14.6985C7.56804 14.6985 7.27703 14.9895 7.27703 15.3485C7.27703 15.7075 7.56804 15.9985 7.92703 15.9985H16.927C17.286 15.9985 17.577 15.7075 17.577 15.3485C17.577 14.9895 17.286 14.6985 16.927 14.6985H7.92703Z"  fill=""/>
</svg>
