<svg    viewBox="0 0 21 20" fill="none" xmlns="http://www.w3.org/2000/svg">
<path fill-rule="evenodd" clip-rule="evenodd" d="M10.5001 4.14961C9.34641 4.14961 8.23997 4.60791 7.42418 5.42369C6.6084 6.23948 6.1501 7.34592 6.1501 8.49961C6.1501 10.5156 7.2778 12.3659 8.49059 13.7606C9.08905 14.4488 9.68917 15.0041 10.1398 15.3872C10.2752 15.5023 10.3967 15.6015 10.5001 15.6837C10.6035 15.6015 10.725 15.5023 10.8604 15.3872C11.311 15.0041 11.9111 14.4488 12.5096 13.7606C13.7224 12.3659 14.8501 10.5156 14.8501 8.49961C14.8501 7.34592 14.3918 6.23948 13.576 5.42369C12.7602 4.60791 11.6538 4.14961 10.5001 4.14961ZM10.5001 16.4996C10.1273 17.0321 10.1272 17.032 10.127 17.0318L10.1252 17.0306L10.1212 17.0278L10.1079 17.0183C10.0967 17.0103 10.0808 16.9989 10.0607 16.9842C10.0204 16.9548 9.96289 16.9122 9.89055 16.8569C9.74592 16.7463 9.54176 16.585 9.29788 16.3777C8.81102 15.9639 8.16115 15.3629 7.5096 14.6136C6.2224 13.1333 4.8501 10.9836 4.8501 8.49961C4.8501 7.00114 5.44536 5.56404 6.50494 4.50446C7.56453 3.44488 9.00162 2.84961 10.5001 2.84961C11.9986 2.84961 13.4357 3.44488 14.4953 4.50446C15.5548 5.56404 16.1501 7.00114 16.1501 8.49961C16.1501 10.9836 14.7778 13.1333 13.4906 14.6136C12.839 15.3629 12.1892 15.9639 11.7023 16.3777C11.4584 16.585 11.2543 16.7463 11.1096 16.8569C11.0373 16.9122 10.9798 16.9548 10.9395 16.9842C10.9194 16.9989 10.9035 17.0103 10.8923 17.0183L10.879 17.0278L10.875 17.0306L10.8737 17.0315C10.8735 17.0316 10.8728 17.0321 10.5001 16.4996ZM10.5001 16.4996L10.8728 17.0321C10.649 17.1888 10.3508 17.1885 10.127 17.0318L10.5001 16.4996ZM10.5001 7.14961C9.75451 7.14961 9.1501 7.75402 9.1501 8.49961C9.1501 9.24519 9.75451 9.84961 10.5001 9.84961C11.2457 9.84961 11.8501 9.24519 11.8501 8.49961C11.8501 7.75402 11.2457 7.14961 10.5001 7.14961ZM7.8501 8.49961C7.8501 7.03605 9.03654 5.84961 10.5001 5.84961C11.9637 5.84961 13.1501 7.03605 13.1501 8.49961C13.1501 9.96316 11.9637 11.1496 10.5001 11.1496C9.03654 11.1496 7.8501 9.96316 7.8501 8.49961Z"  fill=""/>
</svg>
