<svg    viewBox="0 0 21 21" fill="none" xmlns="http://www.w3.org/2000/svg">
<path fill-rule="evenodd" clip-rule="evenodd" d="M10.5001 4.64961C10.0519 4.64961 9.62205 4.82766 9.30511 5.1446C8.98817 5.46153 8.81012 5.89139 8.81012 6.33961V8.02961H15.7001C16.3463 8.02961 16.8701 8.55344 16.8701 9.19961V16.4796C16.8701 17.1258 16.3463 17.6496 15.7001 17.6496H5.30013C4.65395 17.6496 4.13013 17.1258 4.13013 16.4796V9.19961C4.13013 8.55344 4.65395 8.02961 5.30013 8.02961H7.51012V6.33961C7.51012 5.54661 7.82514 4.78609 8.38587 4.22536C8.9466 3.66463 9.70712 3.34961 10.5001 3.34961C11.2931 3.34961 12.0536 3.66463 12.6144 4.22536C13.1751 4.78609 13.4901 5.54661 13.4901 6.33961C13.4901 6.69859 13.1991 6.98961 12.8401 6.98961C12.4811 6.98961 12.1901 6.69859 12.1901 6.33961C12.1901 5.89139 12.0121 5.46153 11.6951 5.1446C11.3782 4.82766 10.9483 4.64961 10.5001 4.64961ZM5.43013 9.32961V16.3496H15.5701V9.32961H5.43013ZM10.5001 11.4096C10.1411 11.4096 9.85012 11.7006 9.85012 12.0596C9.85012 12.4186 10.1411 12.7096 10.5001 12.7096C10.8591 12.7096 11.1501 12.4186 11.1501 12.0596C11.1501 11.7006 10.8591 11.4096 10.5001 11.4096ZM8.55012 12.0596C8.55012 10.9827 9.42316 10.1096 10.5001 10.1096C11.5771 10.1096 12.4501 10.9827 12.4501 12.0596C12.4501 12.9087 11.9075 13.631 11.1501 13.8987V14.9196C11.1501 15.2786 10.8591 15.5696 10.5001 15.5696C10.1411 15.5696 9.85012 15.2786 9.85012 14.9196V13.8987C9.09274 13.631 8.55012 12.9087 8.55012 12.0596Z"  fill=""/>
</svg>
