<svg    viewBox="0 0 21 21" fill="none" xmlns="http://www.w3.org/2000/svg">
<path fill-rule="evenodd" clip-rule="evenodd" d="M5.00254 4.64961C4.90971 4.64961 4.82069 4.68648 4.75505 4.75212C4.68941 4.81776 4.65254 4.90678 4.65254 4.99961V15.6426V15.9996C4.65254 16.0925 4.68944 16.1815 4.75501 16.247C4.82071 16.3127 4.90978 16.3496 5.00254 16.3496H12.0025C12.0953 16.3496 12.1844 16.3127 12.2501 16.2471C12.3156 16.1815 12.3525 16.0924 12.3525 15.9996V13.9996C12.3525 13.6406 12.6436 13.3496 13.0025 13.3496C13.3615 13.3496 13.6525 13.6406 13.6525 13.9996V15.9996C13.6525 16.4372 13.4787 16.8569 13.1692 17.1664C12.8599 17.4757 12.4402 17.6496 12.0025 17.6496H5.00254C4.56486 17.6496 4.14523 17.4757 3.83586 17.1664C3.52635 16.8569 3.35254 16.4372 3.35254 15.9996V4.99961C3.35254 4.562 3.52638 4.14232 3.83581 3.83288C4.14525 3.52345 4.56493 3.34961 5.00254 3.34961H12.0025C12.4402 3.34961 12.8598 3.52345 13.1693 3.83288C13.4787 4.14231 13.6525 4.56199 13.6525 4.99961V6.99961C13.6525 7.35859 13.3615 7.64961 13.0025 7.64961C12.6436 7.64961 12.3525 7.35859 12.3525 6.99961V4.99961C12.3525 4.90679 12.3157 4.81777 12.25 4.75213C12.1844 4.68649 12.0954 4.64961 12.0025 4.64961H11.3117H5.00254ZM14.2773 7.78611C14.5305 7.53172 14.9421 7.53082 15.1965 7.7841L17.4157 9.99365C17.4253 10.0032 17.4346 10.013 17.4436 10.0229C17.5692 10.1414 17.6476 10.3094 17.6476 10.4957C17.6476 10.5621 17.6376 10.6262 17.6191 10.6865C17.5887 10.825 17.5188 10.9564 17.4095 11.0628L15.1911 13.2204C14.9337 13.4706 14.5222 13.4649 14.2719 13.2076C14.0216 12.9502 14.0273 12.5387 14.2847 12.2884L15.4596 11.1457H9.99755C9.63857 11.1457 9.34755 10.8547 9.34755 10.4957C9.34755 10.1367 9.63857 9.8457 9.99755 9.8457H15.4246L14.2793 8.70535C14.0249 8.45207 14.024 8.04051 14.2773 7.78611Z"  fill=""/>
</svg>
