<svg   viewBox="0 0 20 21" fill="none" xmlns="http://www.w3.org/2000/svg">
<path fill-rule="evenodd" clip-rule="evenodd" d="M4.49994 4.59961C3.58867 4.59961 2.84995 5.33833 2.84995 6.24958V6.48815C2.84982 6.49543 2.84982 6.5027 2.84995 6.50997V14.7494C2.84995 15.6607 3.58868 16.3994 4.49994 16.3994H15.4999C16.4112 16.3994 17.1499 15.6607 17.1499 14.7494V6.51073C17.1501 6.50296 17.1501 6.49518 17.1499 6.48739V6.24958C17.1499 5.33834 16.4112 4.59961 15.4999 4.59961H4.49994ZM15.8332 6.1422C15.7878 6.00143 15.6558 5.89959 15.4999 5.89959H4.49994C4.34411 5.89959 4.21206 6.00143 4.16673 6.14219L9.69125 9.46462C9.75954 9.50405 9.86876 9.53713 9.99995 9.53713C10.1311 9.53713 10.2404 9.50405 10.3087 9.46462L15.8332 6.1422ZM4.14994 7.64907V14.7494C4.14994 14.9427 4.30664 15.0994 4.49994 15.0994H15.4999C15.6933 15.0994 15.8499 14.9428 15.8499 14.7494V7.64907L10.969 10.5844C10.6778 10.7554 10.335 10.8371 9.99995 10.8371C9.66487 10.8371 9.32212 10.7554 9.03087 10.5844L9.02493 10.5809L4.14994 7.64907Z"  fill=""/>
</svg>
