<svg   viewBox="0 0 20 21" fill="none" xmlns="http://www.w3.org/2000/svg">
<path fill-rule="evenodd" clip-rule="evenodd" d="M3.52665 3.95091C3.72866 3.85696 3.95331 3.82264 4.17416 3.852C4.39482 3.88133 4.60253 3.97301 4.77291 4.11627C6.3896 5.47207 8.03599 6.14859 9.27554 6.48632C9.8953 6.65517 10.4117 6.73883 10.7687 6.78022C10.9471 6.8009 11.0854 6.81098 11.1764 6.81589C11.2219 6.81835 11.2555 6.81951 11.2765 6.82005L11.2982 6.8205L11.3006 6.82053L13.9001 6.82053C14.7621 6.82053 15.5887 7.16294 16.1982 7.77243C16.8077 8.38193 17.1501 9.20858 17.1501 10.0705C17.1501 10.9325 16.8077 11.7591 16.1982 12.3686C15.7121 12.8547 15.088 13.1709 14.418 13.279L13.6697 16.2723C13.6242 16.4542 13.5357 16.6225 13.4115 16.7631C13.2874 16.9036 13.1314 17.0122 12.9565 17.0798C12.7816 17.1475 12.593 17.172 12.4067 17.1515C12.2203 17.131 12.0416 17.0661 11.8856 16.9621L11.1711 16.4857C11.0108 16.3789 10.8794 16.2341 10.7885 16.0643C10.6977 15.8945 10.6501 15.7049 10.6501 15.5122V13.3754C10.3012 13.4209 9.82973 13.5038 9.27554 13.6547C8.03588 13.9925 6.38931 14.6691 4.77248 16.0252C4.60218 16.1682 4.39464 16.2598 4.17416 16.2891C3.95331 16.3184 3.72866 16.2841 3.52665 16.1902C3.32464 16.0962 3.15365 15.9465 3.0338 15.7587C2.91395 15.5709 2.85021 15.3528 2.8501 15.13L2.8501 5.01142C2.85021 4.78863 2.91395 4.57016 3.0338 4.38235C3.15365 4.19454 3.32464 4.04486 3.52665 3.95091ZM10.6501 12.0659C10.6398 12.0671 10.6295 12.0683 10.619 12.0695C10.206 12.1174 9.62463 12.2122 8.93381 12.4005C7.60709 12.7619 5.87036 13.4695 4.1501 14.8541V5.28698C5.87036 6.67154 7.60709 7.37913 8.93381 7.74059C9.62463 7.92881 10.206 8.02369 10.619 8.07157C10.6295 8.07279 10.6398 8.07397 10.6501 8.07512V12.0659ZM11.9501 13.3205H13.0676L12.4532 15.7781L11.9501 15.4427V13.3205ZM11.9501 12.0205V8.12053H13.9001C14.4173 8.12053 14.9133 8.32598 15.279 8.69167C15.6447 9.05737 15.8501 9.55336 15.8501 10.0705C15.8501 10.5877 15.6447 11.0837 15.279 11.4494C14.9133 11.8151 14.4173 12.0205 13.9001 12.0205H11.9501Z"  fill=""/>
</svg>
