<svg    viewBox="0 0 21 21" fill="none" xmlns="http://www.w3.org/2000/svg">
<path fill-rule="evenodd" clip-rule="evenodd" d="M12.9427 3.56401C13.2844 3.42246 13.6507 3.34961 14.0205 3.34961C14.3904 3.34961 14.7567 3.42246 15.0984 3.56401C15.4401 3.70556 15.7506 3.91303 16.0122 4.17458C16.2737 4.43612 16.4812 4.74662 16.6228 5.08835C16.7643 5.43008 16.8372 5.79634 16.8372 6.16622C16.8372 6.5361 16.7643 6.90236 16.6228 7.24409C16.4815 7.58508 16.2746 7.89497 16.0139 8.15617L9.2884 14.9753C8.96335 15.3004 8.52246 15.483 8.06276 15.483C7.60306 15.483 7.16219 15.3004 6.83713 14.9753C6.51207 14.6503 6.32945 14.2094 6.32945 13.7497C6.32945 13.291 6.51126 12.8511 6.83497 12.5262L12.4739 6.79371C12.7256 6.53779 13.1371 6.5344 13.3931 6.78614C13.649 7.03788 13.6524 7.44942 13.4006 7.70535L7.75638 13.4433C7.67512 13.5246 7.62945 13.6348 7.62945 13.7497C7.62945 13.8646 7.67511 13.9748 7.75637 14.0561C7.83763 14.1373 7.94784 14.183 8.06276 14.183C8.17708 14.183 8.28675 14.1378 8.36788 14.0573L15.0898 7.24182L15.093 7.23863C15.2338 7.0978 15.3455 6.93061 15.4217 6.7466C15.4979 6.5626 15.5372 6.36539 15.5372 6.16622C15.5372 5.96706 15.4979 5.76984 15.4217 5.58584C15.3455 5.40184 15.2338 5.23465 15.0929 5.09381C14.9521 4.95298 14.7849 4.84127 14.6009 4.76505C14.4169 4.68884 14.2197 4.64961 14.0205 4.64961C13.8214 4.64961 13.6242 4.68884 13.4402 4.76505C13.2568 4.84101 13.0901 4.95221 12.9496 5.09236L6.22435 11.9113C5.73677 12.3989 5.46284 13.0602 5.46284 13.7497C5.46284 14.4392 5.73676 15.1005 6.22434 15.5881C6.71192 16.0757 7.37322 16.3496 8.06276 16.3496C8.7523 16.3496 9.4136 16.0757 9.90118 15.5881L15.457 10.0395C15.711 9.78585 16.1226 9.78612 16.3762 10.0401C16.6299 10.2941 16.6297 10.7057 16.3756 10.9594L10.8204 16.5074C10.089 17.2387 9.09708 17.6496 8.06276 17.6496C7.02844 17.6496 6.03648 17.2387 5.3051 16.5074C4.57372 15.776 4.16284 14.784 4.16284 13.7497C4.16284 12.7162 4.5731 11.7249 5.30345 10.9937L12.0289 4.17457C12.2904 3.91302 12.6009 3.70556 12.9427 3.56401Z"  fill=""/>
</svg>
