<svg    viewBox="0 0 21 21" fill="none" xmlns="http://www.w3.org/2000/svg">
<path fill-rule="evenodd" clip-rule="evenodd" d="M13.2094 4.68043L11.8263 6.06353L14.9362 9.17337L16.3193 7.79028L13.2094 4.68043ZM17.2911 8.6569C17.521 8.42705 17.6501 8.11532 17.6501 7.79028C17.6501 7.46523 17.521 7.1535 17.2911 6.92366L14.076 3.70857C13.8462 3.47873 13.5345 3.34961 13.2094 3.34961C12.8844 3.34961 12.5727 3.47873 12.3428 3.70857L10.4477 5.60369L3.70906 12.3423C3.59526 12.4561 3.50498 12.5912 3.44339 12.7399C3.44015 12.7477 3.437 12.7556 3.43393 12.7635C3.42992 12.7734 3.42617 12.7834 3.42268 12.7934C3.3747 12.9266 3.3501 13.0671 3.3501 13.2089V16.424C3.3501 16.7491 3.47922 17.0608 3.70906 17.2906C3.93891 17.5205 4.25064 17.6496 4.57568 17.6496H7.79077C7.95171 17.6496 8.11108 17.6179 8.25978 17.5563C8.40847 17.4947 8.54358 17.4044 8.65738 17.2906L17.2911 8.6569ZM14.0169 10.0926L10.9071 6.98277L4.91934 12.9705L8.02918 16.0804L14.0169 10.0926ZM6.45994 16.3496H4.6501V14.5398L6.45994 16.3496Z"  fill=""/>
</svg>
