<svg    viewBox="0 0 21 20" fill="none" xmlns="http://www.w3.org/2000/svg">
<path fill-rule="evenodd" clip-rule="evenodd" d="M3.3501 4.49961C3.3501 3.58834 4.08883 2.84961 5.0001 2.84961H16.0001C16.9114 2.84961 17.6501 3.58835 17.6501 4.49961V12.3416V12.3581V15.4996C17.6501 16.4109 16.9114 17.1496 16.0001 17.1496H5.0001C4.08883 17.1496 3.3501 16.4109 3.3501 15.4996V4.49961ZM16.3501 4.49961V11.0839L13.584 9.10191C13.381 8.94122 13.1295 8.85352 12.8701 8.85352C12.6012 8.85352 12.3407 8.94777 12.1341 9.11988C12.1239 9.12838 12.114 9.13719 12.1043 9.1463L4.99191 15.8495C4.80238 15.8452 4.6501 15.6902 4.6501 15.4996V4.49961C4.6501 4.30631 4.8068 4.14961 5.0001 4.14961H16.0001C16.1934 4.14961 16.3501 4.3063 16.3501 4.49961ZM16.0001 15.8496H6.88723L12.8829 10.1989L16.3501 12.6832V15.4996C16.3501 15.6929 16.1934 15.8496 16.0001 15.8496ZM8.0001 5.34961C6.81268 5.34961 5.8501 6.31219 5.8501 7.49961C5.8501 8.68702 6.81268 9.64961 8.0001 9.64961C9.18751 9.64961 10.1501 8.68702 10.1501 7.49961C10.1501 6.31219 9.18751 5.34961 8.0001 5.34961ZM7.1501 7.49961C7.1501 7.03016 7.53065 6.64961 8.0001 6.64961C8.46954 6.64961 8.8501 7.03016 8.8501 7.49961C8.8501 7.96905 8.46954 8.34961 8.0001 8.34961C7.53065 8.34961 7.1501 7.96905 7.1501 7.49961Z"  fill=""/>
</svg>
