<svg    viewBox="0 0 21 21" fill="none" xmlns="http://www.w3.org/2000/svg">
<path fill-rule="evenodd" clip-rule="evenodd" d="M14.6546 4.64972H14.9199C15.2789 4.64972 15.5699 4.3587 15.5699 3.99972C15.5699 3.64073 15.2789 3.34972 14.9199 3.34972H13.8925C13.8846 3.34957 13.8767 3.34957 13.8688 3.34972H8.3709C8.01191 3.34972 7.7209 3.64073 7.7209 3.99972C7.7209 4.3587 8.01191 4.64972 8.3709 4.64972H13.3346L14.5668 11.6323C14.6292 11.9858 14.9663 12.2218 15.3198 12.1594C15.6734 12.097 15.9094 11.7599 15.847 11.4063L14.6546 4.64972ZM5.12266 3.51876C5.38828 3.27728 5.79937 3.29685 6.04085 3.56248L7.77813 5.47348C7.78102 5.4766 7.78388 5.47974 7.78671 5.48292L14.0754 12.4005C14.0767 12.4019 14.078 12.4033 14.0793 12.4048L16.4409 15.0025C16.6823 15.2681 16.6628 15.6792 16.3971 15.9207C16.1315 16.1622 15.7204 16.1426 15.4789 15.877L13.3087 13.4897H11.4099V16.9997C11.4099 17.3587 11.1189 17.6497 10.7599 17.6497C10.4009 17.6497 10.1099 17.3587 10.1099 16.9997V13.4897H6.09253C6.08464 13.4899 6.07671 13.4899 6.06877 13.4897H5.03989C4.68091 13.4897 4.38989 13.1987 4.38989 12.8397C4.38989 12.4807 4.68091 12.1897 5.03989 12.1897H5.53455L6.60622 6.11697L5.07893 4.43696C4.83745 4.17133 4.85703 3.76024 5.12266 3.51876ZM7.71171 7.33301L6.85464 12.1897H12.1269L7.71171 7.33301Z"  fill=""/>
</svg>
