<svg    viewBox="0 0 21 21" fill="none" xmlns="http://www.w3.org/2000/svg">
<path fill-rule="evenodd" clip-rule="evenodd" d="M7.80475 3.34972H6.77738C6.4184 3.34972 6.12738 3.64073 6.12738 3.99972C6.12738 4.3587 6.4184 4.64972 6.77738 4.64972H7.04263L5.71204 12.1897H5.21738C4.8584 12.1897 4.56738 12.4807 4.56738 12.8397C4.56738 13.1987 4.8584 13.4897 5.21738 13.4897H6.24626C6.2542 13.4899 6.26213 13.4899 6.27002 13.4897H10.2874V16.9997C10.2874 17.3587 10.5784 17.6497 10.9374 17.6497C11.2964 17.6497 11.5874 17.3587 11.5874 16.9997V13.4897H15.6047C15.6126 13.4899 15.6206 13.4899 15.6285 13.4897H16.6574C17.0164 13.4897 17.3074 13.1987 17.3074 12.8397C17.3074 12.4807 17.0164 12.1897 16.6574 12.1897H16.1627L14.8321 4.64972H15.0974C15.4564 4.64972 15.7474 4.3587 15.7474 3.99972C15.7474 3.64073 15.4564 3.34972 15.0974 3.34972H14.07C14.0621 3.34957 14.0542 3.34957 14.0463 3.34972H7.82849C7.82056 3.34957 7.81264 3.34957 7.80475 3.34972ZM13.512 4.64972H8.36272L7.03213 12.1897H14.8426L13.512 4.64972Z"  fill=""/>
</svg>
