<svg    viewBox="0 0 21 21" fill="none" xmlns="http://www.w3.org/2000/svg">
<path fill-rule="evenodd" clip-rule="evenodd" d="M10.5001 3.34961C6.55126 3.34961 3.3501 6.55077 3.3501 10.4996C3.3501 14.4485 6.55127 17.6496 10.5001 17.6496C14.449 17.6496 17.6501 14.4485 17.6501 10.4996C17.6501 6.55078 14.449 3.34961 10.5001 3.34961ZM4.6501 10.4996C4.6501 7.26874 7.26923 4.64961 10.5001 4.64961C13.731 4.64961 16.3501 7.26874 16.3501 10.4996C16.3501 13.7305 13.731 16.3496 10.5001 16.3496C7.26923 16.3496 4.6501 13.7305 4.6501 10.4996ZM10.7167 7.67077C10.5029 7.62828 10.2813 7.65009 10.08 7.73341C9.87858 7.81675 9.70656 7.95784 9.5856 8.1387C9.46463 8.31958 9.4001 8.53218 9.4001 8.74961C9.4001 9.10859 9.10908 9.3996 8.7501 9.3996C8.39111 9.3996 8.1001 9.10859 8.1001 8.74961C8.1001 8.27479 8.24103 7.8107 8.50499 7.41601C8.76895 7.02131 9.14409 6.71379 9.58284 6.53221C10.0216 6.35064 10.5044 6.30315 10.9701 6.3957C11.4359 6.48826 11.8638 6.71674 12.1997 7.05235C12.5356 7.38796 12.7644 7.81561 12.8571 8.28126C12.9498 8.74692 12.9022 9.2296 12.7204 9.66823C12.5385 10.1068 12.2306 10.4816 11.8357 10.7453C11.6245 10.8862 11.3935 10.9921 11.1517 11.06V11.6663C11.1517 12.0252 10.8607 12.3163 10.5017 12.3163C10.1427 12.3163 9.85169 12.0252 9.85169 11.6663V10.4996C9.85169 10.1406 10.1427 9.8496 10.5017 9.8496C10.7197 9.8496 10.9328 9.785 11.1139 9.66405C11.2951 9.54311 11.4362 9.37127 11.5195 9.17035C11.6028 8.96944 11.6246 8.74838 11.5821 8.5351C11.5397 8.32184 11.4349 8.12587 11.2808 7.972C11.1268 7.81811 10.9305 7.71325 10.7167 7.67077ZM9.6001 13.7086C9.6001 14.2057 10.0031 14.6086 10.5001 14.6086C10.9971 14.6086 11.4001 14.2057 11.4001 13.7086C11.4001 13.2115 10.9971 12.8086 10.5001 12.8086C10.0031 12.8086 9.6001 13.2115 9.6001 13.7086Z"  fill=""/>
</svg>
