<svg    viewBox="0 0 21 20" fill="none" xmlns="http://www.w3.org/2000/svg">
<path fill-rule="evenodd" clip-rule="evenodd" d="M7.37511 3.77459H4.2751V6.87455C4.2751 7.23353 3.98409 7.52454 3.6251 7.52454C3.26611 7.52454 2.9751 7.23353 2.9751 6.87455V3.74959C2.9751 3.04544 3.54594 2.47461 4.2501 2.47461H7.37511C7.7341 2.47461 8.02511 2.76562 8.02511 3.1246C8.02511 3.48358 7.7341 3.77459 7.37511 3.77459ZM13.6251 2.47461C13.2661 2.47461 12.9751 2.76562 12.9751 3.1246C12.9751 3.48358 13.2661 3.77459 13.6251 3.77459H16.7251V6.87455C16.7251 7.23353 17.0162 7.52454 17.3751 7.52454C17.7341 7.52454 18.0251 7.23353 18.0251 6.87455V3.74959C18.0251 3.04544 17.4543 2.47461 16.7501 2.47461H13.6251ZM4.2751 13.1245C4.2751 12.7655 3.98409 12.4745 3.6251 12.4745C3.26611 12.4745 2.9751 12.7655 2.9751 13.1245V16.2494C2.9751 16.9536 3.54594 17.5244 4.2501 17.5244H7.37511C7.7341 17.5244 8.02511 17.2334 8.02511 16.8744C8.02511 16.5154 7.7341 16.2244 7.37511 16.2244H4.2751V13.1245ZM18.0251 13.1245C18.0251 12.7655 17.7341 12.4745 17.3751 12.4745C17.0162 12.4745 16.7251 12.7655 16.7251 13.1245V16.2244H13.6251C13.2661 16.2244 12.9751 16.5154 12.9751 16.8744C12.9751 17.2334 13.2661 17.5244 13.6251 17.5244H16.7501C17.4543 17.5244 18.0251 16.9536 18.0251 16.2494V13.1245Z"  fill=""/>
<path fill-rule="evenodd" clip-rule="evenodd" d="M6.76057 5.63175H14.2606C14.4263 5.63175 14.5853 5.6976 14.7025 5.81481C14.8197 5.93202 14.8856 6.09099 14.8856 6.25675V13.7568C14.8856 13.9225 14.8197 14.0815 14.7025 14.1987C14.5853 14.3159 14.4263 14.3818 14.2606 14.3818H6.76057C6.59481 14.3818 6.43584 14.3159 6.31863 14.1987C6.20142 14.0815 6.13557 13.9225 6.13557 13.7568V6.25675C6.13557 6.09099 6.20142 5.93202 6.31863 5.81481C6.43584 5.6976 6.59481 5.63175 6.76057 5.63175ZM13.6356 13.1318H7.38557V6.88175H13.6356V13.1318Z"  fill=""/>
</svg>
