<svg    viewBox="0 0 21 21" fill="none" xmlns="http://www.w3.org/2000/svg">
<path fill-rule="evenodd" clip-rule="evenodd" d="M9.5001 3.34961C6.10354 3.34961 3.3501 6.10305 3.3501 9.49961C3.3501 12.8962 6.10354 15.6496 9.5001 15.6496C10.9642 15.6496 12.3089 15.138 13.365 14.2837L16.5405 17.4592C16.7943 17.7131 17.2059 17.7131 17.4597 17.4592C17.7136 17.2054 17.7136 16.7938 17.4597 16.54L14.2842 13.3645C15.1385 12.3084 15.6501 10.9638 15.6501 9.49961C15.6501 6.10305 12.8967 3.34961 9.5001 3.34961ZM4.6501 9.49961C4.6501 6.82102 6.82151 4.64961 9.5001 4.64961C12.1787 4.64961 14.3501 6.82102 14.3501 9.49961C14.3501 12.1782 12.1787 14.3496 9.5001 14.3496C6.82151 14.3496 4.6501 12.1782 4.6501 9.49961Z"  fill=""/>
</svg>
