<svg   viewBox="0 0 20 21" fill="none" xmlns="http://www.w3.org/2000/svg">
<path fill-rule="evenodd" clip-rule="evenodd" d="M15.6701 3.39332C15.8692 3.33715 16.0798 3.33508 16.28 3.38732C16.4802 3.43956 16.6629 3.54423 16.8092 3.69054C16.9555 3.83685 17.0601 4.01952 17.1124 4.21973C17.1646 4.41995 17.1626 4.63047 17.1064 4.82961L13.7297 16.8016C13.6653 17.0297 13.5329 17.2327 13.3501 17.3835C13.1673 17.5343 12.9429 17.6257 12.7067 17.6455C12.4706 17.6653 12.234 17.6126 12.0286 17.4944C11.8233 17.3762 11.6589 17.1981 11.5574 16.9839L8.97261 11.5271L3.51582 8.9423C3.30165 8.84086 3.12355 8.67646 3.00532 8.47108C2.88709 8.2657 2.83436 8.02913 2.85418 7.79298C2.874 7.55684 2.96542 7.33236 3.11623 7.14957C3.26704 6.96677 3.47005 6.83436 3.69813 6.77003L15.6701 3.39332ZM15.7893 4.71042L4.40017 7.92274L9.32494 10.2555L11.9088 7.6717C12.1626 7.41786 12.5742 7.41786 12.828 7.6717C13.0818 7.92555 13.0818 8.3371 12.828 8.59094L10.2442 11.1748L12.577 16.0995L15.7893 4.71042Z"  fill=""/>
</svg>
