<svg    viewBox="0 0 21 21" fill="none" xmlns="http://www.w3.org/2000/svg">
<path fill-rule="evenodd" clip-rule="evenodd" d="M8.44024 5.02859C7.83583 5.25473 7.28159 5.58284 6.7871 5.98856L6.81097 7.54046C6.81304 7.67508 6.77326 7.80702 6.69712 7.91805C6.56506 8.11064 6.45159 8.30565 6.35516 8.50923C6.29702 8.63195 6.20191 8.73339 6.08318 8.79929L4.72842 9.55127C4.62192 10.1819 4.62594 10.8292 4.72883 11.456L6.08318 12.2077C6.20191 12.2736 6.29702 12.3751 6.35516 12.4978C6.45159 12.7014 6.56506 12.8964 6.69712 13.089C6.77326 13.2 6.81304 13.3319 6.81097 13.4666L6.78702 15.0237C7.28747 15.4343 7.84513 15.7523 8.43787 15.9736L9.77198 15.1719C9.88661 15.1031 10.0197 15.0712 10.1531 15.0807C10.3845 15.0973 10.6157 15.0973 10.8471 15.0807C10.9805 15.0712 11.1136 15.1031 11.2282 15.1719L12.56 15.9722C13.1644 15.746 13.7186 15.4179 14.2131 15.0122L14.1892 13.4603C14.1872 13.3257 14.2269 13.1938 14.3031 13.0827C14.4351 12.8901 14.5486 12.6951 14.645 12.4915C14.7032 12.3688 14.7983 12.2674 14.917 12.2015L16.2718 11.4495C16.3783 10.8189 16.3743 10.1716 16.2714 9.5448L14.917 8.79305C14.7983 8.72714 14.7032 8.62571 14.645 8.50298C14.5486 8.2994 14.4351 8.10439 14.3031 7.91181C14.2269 7.80077 14.1872 7.66883 14.1892 7.53422L14.2132 5.9771C13.7127 5.5665 13.1551 5.24842 12.5623 5.02716L11.2282 5.82883C11.1136 5.89771 10.9805 5.92955 10.8471 5.92003C10.6157 5.9035 10.3845 5.9035 10.1531 5.92003C10.0197 5.92955 9.88661 5.89771 9.77198 5.82883L8.44024 5.02859ZM14.2147 5.89391L14.2145 5.89919L14.2147 5.89391ZM6.78551 15.1069L6.78566 15.1016L6.78551 15.1069ZM9.05704 3.88257C8.74705 3.68655 8.38317 3.67077 8.07645 3.77746L8.07038 3.77961C7.2624 4.06965 6.53438 4.50333 5.89943 5.03587L5.89844 5.0367C5.62614 5.26601 5.48608 5.59501 5.48608 5.92722L5.50804 7.35995C5.42547 7.48998 5.34812 7.62316 5.27622 7.76037L4.03506 8.4493L4.02802 8.45326C3.74415 8.61547 3.52181 8.89822 3.46057 9.25481C3.3096 10.0879 3.31711 10.9375 3.46023 11.7502C3.52099 12.1078 3.74363 12.3912 4.02802 12.5538L5.27622 13.2466C5.34812 13.3839 5.42547 13.517 5.50804 13.6471L5.48626 15.0631C5.47493 15.4144 5.63159 15.7518 5.8922 15.9703C6.545 16.52 7.28049 16.9393 8.06377 17.221L8.07021 17.2233C8.40345 17.3392 8.75436 17.2916 9.03702 17.13L9.04932 17.1228L10.2708 16.3889C10.4237 16.3946 10.5765 16.3946 10.7294 16.3889L11.9431 17.1182C12.2531 17.3142 12.617 17.33 12.9237 17.2233L12.9298 17.2212C13.7378 16.9311 14.4658 16.4974 15.1008 15.9649L15.1018 15.9641C15.3741 15.7348 15.5141 15.4058 15.5141 15.0736L15.4922 13.6408C15.5747 13.5108 15.6521 13.3776 15.724 13.2404L16.9651 12.5515L16.9722 12.5475C17.2561 12.3853 17.4784 12.1025 17.5396 11.7459C17.6906 10.9128 17.6831 10.0633 17.54 9.25059C17.4792 8.89304 17.2566 8.60953 16.9722 8.44702L15.724 7.75413C15.6521 7.61692 15.5747 7.48374 15.4922 7.35371L15.5139 5.93766C15.5253 5.58642 15.3686 5.24899 15.108 5.03046C14.4552 4.48073 13.7197 4.06144 12.9364 3.77974L12.93 3.77746C12.5967 3.66155 12.2458 3.70921 11.9632 3.87073L11.9509 3.87793L10.7294 4.6119C10.5765 4.60621 10.4237 4.60621 10.2708 4.6119L9.05704 3.88257ZM10.4938 8.15677C9.19772 8.15677 8.14704 9.20745 8.14704 10.5035C8.14704 11.7996 9.19772 12.8503 10.4938 12.8503C11.7899 12.8503 12.8405 11.7996 12.8405 10.5035C12.8405 9.20745 11.7899 8.15677 10.4938 8.15677ZM6.84704 10.5035C6.84704 8.48948 8.47975 6.85677 10.4938 6.85677C12.5078 6.85677 14.1405 8.48948 14.1405 10.5035C14.1405 12.5176 12.5078 14.1503 10.4938 14.1503C8.47975 14.1503 6.84704 12.5176 6.84704 10.5035Z"  fill=""/>
</svg>
