<svg   viewBox="0 0 20 21" fill="none" xmlns="http://www.w3.org/2000/svg">
<path fill-rule="evenodd" clip-rule="evenodd" d="M14.2501 3.34961C12.6485 3.34961 11.3501 4.64798 11.3501 6.24961C11.3501 6.48364 11.3778 6.71119 11.4302 6.92917L7.98966 8.6571C7.45777 8.01134 6.65202 7.59961 5.7501 7.59961C4.14847 7.59961 2.8501 8.89798 2.8501 10.4996C2.8501 12.1012 4.14847 13.3996 5.7501 13.3996C6.65192 13.3996 7.45761 12.988 7.98949 12.3423L11.4301 14.0703C11.3778 14.2882 11.3501 14.5157 11.3501 14.7496C11.3501 16.3512 12.6485 17.6496 14.2501 17.6496C15.8517 17.6496 17.1501 16.3512 17.1501 14.7496C17.1501 13.148 15.8517 11.8496 14.2501 11.8496C13.3482 11.8496 12.5425 12.2613 12.0106 12.9071L8.57004 11.1791C8.62238 10.9612 8.6501 10.7336 8.6501 10.4996C8.6501 10.2657 8.6224 10.0382 8.5701 9.82033L12.0107 8.09233C12.5426 8.73797 13.3483 9.14961 14.2501 9.14961C15.8517 9.14961 17.1501 7.85124 17.1501 6.24961C17.1501 4.64798 15.8517 3.34961 14.2501 3.34961ZM7.21283 11.149C7.30106 10.9505 7.3501 10.7308 7.3501 10.4996C7.3501 10.2688 7.30122 10.0494 7.21324 9.85115C7.20101 9.83207 7.18966 9.81217 7.17927 9.79148C7.16821 9.76946 7.15853 9.74712 7.15017 9.72455C6.87725 9.23259 6.35256 8.89961 5.7501 8.89961C4.86644 8.89961 4.1501 9.61595 4.1501 10.4996C4.1501 11.3833 4.86644 12.0996 5.7501 12.0996C6.35279 12.0996 6.87766 11.7664 7.15049 11.2741C7.15877 11.2518 7.16835 11.2298 7.17927 11.208C7.18955 11.1876 7.20076 11.1679 7.21283 11.149ZM12.7869 14.1014C12.7992 14.0822 12.8105 14.0623 12.821 14.0415C12.8321 14.0194 12.8418 13.997 12.8502 13.9743C13.1231 13.4825 13.6478 13.1496 14.2501 13.1496C15.1337 13.1496 15.8501 13.866 15.8501 14.7496C15.8501 15.6332 15.1337 16.3496 14.2501 16.3496C13.3665 16.3496 12.6501 15.6332 12.6501 14.7496C12.6501 14.5189 12.6989 14.2995 12.7869 14.1014ZM12.821 6.95803C12.8319 6.97985 12.8416 7.002 12.8499 7.02438C13.1228 7.5165 13.6475 7.84961 14.2501 7.84961C15.1337 7.84961 15.8501 7.13326 15.8501 6.24961C15.8501 5.36596 15.1337 4.64961 14.2501 4.64961C13.3665 4.64961 12.6501 5.36596 12.6501 6.24961C12.6501 6.4807 12.6991 6.70034 12.7873 6.89872C12.7994 6.91769 12.8107 6.93746 12.821 6.95803Z"  fill=""/>
</svg>
