<svg    viewBox="0 0 21 21" fill="none" xmlns="http://www.w3.org/2000/svg">
<path fill-rule="evenodd" clip-rule="evenodd" d="M4.6501 4.64961V16.3496H16.3501V4.64961H4.6501ZM3.3501 4.59052C3.3501 3.90518 3.90567 3.34961 4.59101 3.34961H16.4092C17.0945 3.34961 17.6501 3.90518 17.6501 4.59052V16.4087C17.6501 17.094 17.0945 17.6496 16.4092 17.6496H4.59101C3.90567 17.6496 3.3501 17.094 3.3501 16.4087V4.59052ZM14.2203 8.27807C14.4682 8.53775 14.4586 8.94919 14.1989 9.19706L9.86555 13.3334C9.61437 13.5732 9.2191 13.5732 8.96793 13.3334L6.80129 11.2652C6.54161 11.0174 6.53205 10.6059 6.77992 10.3463C7.02779 10.0866 7.43924 10.077 7.69891 10.3249L9.41674 11.9647L13.3013 8.2567C13.561 8.00883 13.9724 8.0184 14.2203 8.27807Z"  fill=""/>
</svg>
