<svg   viewBox="0 0 20 21" fill="none" xmlns="http://www.w3.org/2000/svg">
<path fill-rule="evenodd" clip-rule="evenodd" d="M10.0227 3.34961C9.78946 3.34961 9.56323 3.41931 9.3709 3.54744C9.18163 3.67354 9.03403 3.85013 8.94151 4.05403L7.37014 7.36209L3.92792 7.89385C3.70277 7.91756 3.49086 8.00591 3.31562 8.14587C3.13339 8.29144 2.99901 8.48605 2.92495 8.7037C2.85094 8.92119 2.83917 9.15538 2.89054 9.37895C2.94171 9.6016 3.05419 9.80769 3.21822 9.97092L5.75688 12.5251L5.15158 16.2191L5.1514 16.2201C5.1148 16.4407 5.13798 16.6677 5.21925 16.8766C5.30078 17.086 5.43849 17.2711 5.62 17.4085C5.80209 17.5461 6.02064 17.6297 6.25025 17.6465C6.47961 17.663 6.7085 17.6122 6.909 17.5012L6.9101 17.5006L10.0227 15.7853L13.1352 17.5006L13.1363 17.5012C13.3369 17.6122 13.5652 17.6631 13.7945 17.6466C14.024 17.6298 14.2429 17.5464 14.4251 17.4086C14.6068 17.2712 14.7446 17.086 14.8261 16.8765C14.9074 16.6677 14.9307 16.4405 14.8939 16.2196L14.2884 12.5663L16.7995 9.96857C16.9584 9.8107 17.0693 9.61236 17.1226 9.39719C17.1398 9.30852 17.1601 9.05172 17.104 8.7338C17.0374 8.51807 16.912 8.32313 16.7394 8.17358C16.5683 8.0253 16.3577 7.92786 16.1309 7.89593L12.6752 7.36209L11.1039 4.054C11.0113 3.85011 10.8638 3.67355 10.6745 3.54746C10.4822 3.41931 10.2559 3.34961 10.0227 3.34961ZM10.0227 4.80776L8.52951 7.9512C8.44982 8.13172 8.3259 8.29125 8.16669 8.41273C8.00697 8.53457 7.81757 8.61355 7.61628 8.63948L4.24537 9.16023L6.70183 11.6317C6.84193 11.7696 6.94502 11.9394 7.00423 12.1246C7.06377 12.3109 7.07773 12.5089 7.04533 12.7014L7.04492 12.7038L6.46165 16.2634L9.44835 14.6175C9.4542 14.6142 9.46009 14.6111 9.46603 14.6081C9.63817 14.52 9.82871 14.4737 10.0227 14.4737C10.2167 14.4737 10.4072 14.52 10.5794 14.6081C10.5853 14.6111 10.5912 14.6143 10.597 14.6175L13.5833 16.2632L13.0004 12.7452L13.0001 12.7438C12.9677 12.5516 12.9814 12.3535 13.0411 12.1667C13.0998 11.9828 13.2017 11.8145 13.3396 11.6774L15.7763 9.15657L12.4291 8.63948C12.2278 8.61355 12.0384 8.53457 11.8787 8.41273C11.7195 8.29124 11.5956 8.13171 11.5159 7.95123L10.0227 4.80776Z"  fill=""/>
</svg>
