<svg    viewBox="0 0 20 20" fill="none" xmlns="http://www.w3.org/2000/svg">
<path fill-rule="evenodd" clip-rule="evenodd" d="M2.8501 5.27305C2.8501 4.91406 3.14111 4.62305 3.5001 4.62305H16.5001C16.8591 4.62305 17.1501 4.91406 17.1501 5.27305C17.1501 5.63203 16.8591 5.92305 16.5001 5.92305H3.5001C3.14111 5.92305 2.8501 5.63203 2.8501 5.27305ZM2.8501 10.0003C2.8501 9.64133 3.14111 9.35032 3.5001 9.35032H16.5001C16.8591 9.35032 17.1501 9.64133 17.1501 10.0003C17.1501 10.3593 16.8591 10.6503 16.5001 10.6503H3.5001C3.14111 10.6503 2.8501 10.3593 2.8501 10.0003ZM2.8501 14.7276C2.8501 14.3686 3.14111 14.0776 3.5001 14.0776H16.5001C16.8591 14.0776 17.1501 14.3686 17.1501 14.7276C17.1501 15.0866 16.8591 15.3776 16.5001 15.3776H3.5001C3.14111 15.3776 2.8501 15.0866 2.8501 14.7276Z"  fill=""/>
</svg>
