<svg    viewBox="0 0 21 21" fill="none" xmlns="http://www.w3.org/2000/svg">
<path fill-rule="evenodd" clip-rule="evenodd" d="M10.5 4.0625C9.70609 4.0625 9.0625 4.70609 9.0625 5.5C9.0625 6.29391 9.70609 6.9375 10.5 6.9375C11.2939 6.9375 11.9375 6.29391 11.9375 5.5C11.9375 4.70609 11.2939 4.0625 10.5 4.0625ZM10.5 9.0625C9.70609 9.0625 9.0625 9.70609 9.0625 10.5C9.0625 11.2939 9.70609 11.9375 10.5 11.9375C11.2939 11.9375 11.9375 11.2939 11.9375 10.5C11.9375 9.70609 11.2939 9.0625 10.5 9.0625ZM10.5 14.0625C9.70609 14.0625 9.0625 14.7061 9.0625 15.5C9.0625 16.2939 9.70609 16.9375 10.5 16.9375C11.2939 16.9375 11.9375 16.2939 11.9375 15.5C11.9375 14.7061 11.2939 14.0625 10.5 14.0625Z"  fill=""/>
</svg>
