<svg    viewBox="0 0 21 21" fill="none" xmlns="http://www.w3.org/2000/svg">
<path fill-rule="evenodd" clip-rule="evenodd" d="M4.0625 10.5C4.0625 9.70609 4.70609 9.0625 5.5 9.0625C6.29391 9.0625 6.9375 9.70609 6.9375 10.5C6.9375 11.2939 6.29391 11.9375 5.5 11.9375C4.70609 11.9375 4.0625 11.2939 4.0625 10.5ZM9.0625 10.5C9.0625 9.70609 9.70609 9.0625 10.5 9.0625C11.2939 9.0625 11.9375 9.70609 11.9375 10.5C11.9375 11.2939 11.2939 11.9375 10.5 11.9375C9.70609 11.9375 9.0625 11.2939 9.0625 10.5ZM15.5 9.0625C14.7061 9.0625 14.0625 9.70609 14.0625 10.5C14.0625 11.2939 14.7061 11.9375 15.5 11.9375C16.2939 11.9375 16.9375 11.2939 16.9375 10.5C16.9375 9.70609 16.2939 9.0625 15.5 9.0625Z"  fill=""/>
</svg>
