<svg   viewBox="0 0 20 21" fill="none" xmlns="http://www.w3.org/2000/svg">
<path fill-rule="evenodd" clip-rule="evenodd" d="M4.14985 5.34102V10.6081H6.38597V5.34102H4.14985ZM7.68597 5.34102V11.1046L9.93727 15.6073C9.9878 15.5929 10.0376 15.5755 10.0863 15.5554C10.2526 15.4865 10.4037 15.3855 10.531 15.2582C10.6582 15.131 10.7592 14.9799 10.8281 14.8136C10.897 14.6473 10.9324 14.469 10.9324 14.2891V12.7736C10.9324 12.4146 11.2234 12.1236 11.5824 12.1236H15.4895C15.5406 12.1236 15.5911 12.1127 15.6377 12.0917C15.6843 12.0707 15.7258 12.04 15.7597 12.0017C15.7935 11.9634 15.8188 11.9184 15.8338 11.8695C15.8489 11.8207 15.8534 11.7693 15.8471 11.7186L15.0893 5.65664C15.0784 5.5695 15.0361 5.48933 14.9703 5.43121C14.9044 5.37309 14.8196 5.34102 14.7318 5.34102H7.68597ZM6.63425 11.9081H4.00501C3.69865 11.9081 3.40483 11.7864 3.18819 11.5698C2.97156 11.3531 2.84985 11.0593 2.84985 10.7529V5.19618C2.84985 4.88981 2.97156 4.59599 3.18819 4.37935C3.40483 4.16272 3.69865 4.04102 4.00501 4.04102H14.7318C15.1365 4.04102 15.5272 4.18881 15.8306 4.45663C16.134 4.72445 16.3291 5.09384 16.3793 5.4954L17.137 11.5573C17.1662 11.7909 17.1454 12.0281 17.076 12.253C17.0065 12.478 16.89 12.6856 16.7342 12.8621C16.5784 13.0385 16.3869 13.1799 16.1723 13.2767C15.9577 13.3735 15.725 13.4236 15.4895 13.4236H12.2324V14.2891C12.2324 14.6398 12.1633 14.987 12.0291 15.3111C11.8949 15.6351 11.6982 15.9295 11.4502 16.1775C11.2022 16.4255 10.9078 16.6222 10.5838 16.7564C10.2598 16.8906 9.91248 16.9597 9.56177 16.9597C9.31557 16.9597 9.0905 16.8206 8.98039 16.6004L6.63425 11.9081Z"  fill=""/>
</svg>
