<svg   viewBox="0 0 20 21" fill="none" xmlns="http://www.w3.org/2000/svg">
<path fill-rule="evenodd" clip-rule="evenodd" d="M8.98039 4.40033C9.0905 4.18012 9.31557 4.04102 9.56177 4.04102C9.91248 4.04102 10.2598 4.11009 10.5838 4.24431C10.9078 4.37852 11.2022 4.57524 11.4502 4.82323C11.6982 5.07122 11.8949 5.36563 12.0291 5.68965C12.1633 6.01366 12.2324 6.36094 12.2324 6.71165V7.57713H15.4895C15.725 7.57713 15.9577 7.6272 16.1723 7.72401C16.3869 7.82082 16.5784 7.96216 16.7342 8.13865C16.89 8.31514 17.0065 8.52275 17.076 8.7477C17.1454 8.97264 17.1662 9.20979 17.137 9.44339L16.3793 15.5053C16.3291 15.9069 16.134 16.2763 15.8306 16.5441C15.5272 16.8119 15.1365 16.9597 14.7318 16.9597H4.00501C3.69865 16.9597 3.40483 16.838 3.18819 16.6214C2.97156 16.4047 2.84985 16.1109 2.84985 15.8045V10.2478C2.84985 9.94141 2.97156 9.64759 3.18819 9.43095C3.40483 9.21432 3.69864 9.09261 4.00501 9.09261H6.63425L8.98039 4.40033ZM6.38597 10.3926H4.14985V15.6597H6.38597V10.3926ZM7.68597 15.6597H14.7318C14.8196 15.6597 14.9044 15.6276 14.9703 15.5695C15.0361 15.5114 15.0784 15.4312 15.0893 15.3441L15.8471 9.28215C15.8534 9.23145 15.8489 9.17998 15.8338 9.13117C15.8188 9.08235 15.7935 9.0373 15.7597 8.99899C15.7258 8.96069 15.6843 8.93002 15.6377 8.90901C15.5911 8.888 15.5406 8.87713 15.4895 8.87713H11.5824C11.2234 8.87713 10.9324 8.58612 10.9324 8.22713V6.71165C10.9324 6.53166 10.897 6.35343 10.8281 6.18713C10.7592 6.02084 10.6582 5.86974 10.531 5.74247C10.4037 5.61519 10.2526 5.51423 10.0863 5.44535C10.0376 5.42516 9.9878 5.40785 9.93727 5.39346L7.68597 9.89606V15.6597Z"  fill=""/>
</svg>
