<svg    viewBox="0 0 21 21" fill="none" xmlns="http://www.w3.org/2000/svg">
<path fill-rule="evenodd" clip-rule="evenodd" d="M10.5001 4.64959C10.0094 4.64959 9.53888 4.8445 9.19194 5.19143C8.88053 5.50284 8.69161 5.91384 8.65618 6.34957H12.344C12.3086 5.91384 12.1197 5.50284 11.8082 5.19143C11.4613 4.8445 10.9907 4.64959 10.5001 4.64959ZM13.6465 6.34957C13.6093 5.56874 13.2828 4.82749 12.7275 4.27221C12.1367 3.68148 11.3355 3.34961 10.5001 3.34961C9.66466 3.34961 8.86344 3.68148 8.27271 4.27221C7.71742 4.82749 7.39086 5.56874 7.35366 6.34957H6.0001H4.5001C4.14111 6.34957 3.8501 6.64058 3.8501 6.99956C3.8501 7.35854 4.14111 7.64955 4.5001 7.64955H5.3501V15.9994C5.3501 16.437 5.52392 16.8567 5.8334 17.1662L5.83342 17.1662C6.14279 17.4755 6.56242 17.6494 7.0001 17.6494H14.0001C14.4377 17.6494 14.8574 17.4755 15.1668 17.1661C15.4762 16.8568 15.6501 16.4371 15.6501 15.9994V7.64955H16.5001C16.8591 7.64955 17.1501 7.35854 17.1501 6.99956C17.1501 6.64058 16.8591 6.34957 16.5001 6.34957H15.0001H13.6465ZM13.0001 7.64955H8.00009H6.6501V15.9994C6.6501 16.0923 6.68699 16.1813 6.75256 16.2469L6.75257 16.2469C6.81828 16.3126 6.90734 16.3494 7.0001 16.3494H14.0001C14.0929 16.3494 14.1819 16.3125 14.2476 16.2469C14.3132 16.1813 14.3501 16.0922 14.3501 15.9994V7.64955H13.0001ZM9.00009 9.3505C9.35908 9.3505 9.65009 9.64152 9.65009 10.0005V14.002C9.65009 14.361 9.35908 14.652 9.00009 14.652C8.64111 14.652 8.35009 14.361 8.35009 14.002V10.0005C8.35009 9.64152 8.64111 9.3505 9.00009 9.3505ZM12.6501 10.0005C12.6501 9.64152 12.3591 9.3505 12.0001 9.3505C11.6411 9.3505 11.3501 9.64152 11.3501 10.0005V14.002C11.3501 14.361 11.6411 14.652 12.0001 14.652C12.3591 14.652 12.6501 14.361 12.6501 14.002V10.0005Z"  fill=""/>
</svg>
