<svg   viewBox="0 0 20 21" fill="none" xmlns="http://www.w3.org/2000/svg">
<path fill-rule="evenodd" clip-rule="evenodd" d="M8.0001 3.34961C6.2604 3.34961 4.8501 4.75991 4.8501 6.49961C4.8501 8.2393 6.2604 9.64961 8.0001 9.64961C9.73979 9.64961 11.1501 8.2393 11.1501 6.49961C11.1501 4.75991 9.73979 3.34961 8.0001 3.34961ZM6.1501 6.49961C6.1501 5.47788 6.97837 4.64961 8.0001 4.64961C9.02182 4.64961 9.8501 5.47788 9.8501 6.49961C9.8501 7.52133 9.02182 8.34961 8.0001 8.34961C6.97837 8.34961 6.1501 7.52133 6.1501 6.49961ZM7.82732 11.649C8.47898 11.6182 9.12783 11.753 9.71326 12.0409C10.0354 12.1993 10.425 12.0666 10.5834 11.7445C10.7418 11.4223 10.6091 11.0328 10.2869 10.8743C9.50435 10.4895 8.63699 10.3093 7.76584 10.3505C6.89471 10.3917 6.04824 10.6531 5.3055 11.1102C4.56277 11.5672 3.948 12.2051 3.51861 12.9642C3.08922 13.7232 2.85921 14.5788 2.8501 15.4508V15.9997C2.8501 16.3587 3.14111 16.6497 3.5001 16.6497H9.5001C9.85908 16.6497 10.1501 16.3587 10.1501 15.9997C10.1501 15.6407 9.85908 15.3497 9.5001 15.3497H4.15296C4.17758 14.7372 4.34778 14.1387 4.65012 13.6042C4.97133 13.0364 5.43121 12.5592 5.98683 12.2173C6.54245 11.8754 7.17567 11.6799 7.82732 11.649ZM13.5001 10.3496C13.8591 10.3496 14.1501 10.6406 14.1501 10.9996V13.3496H16.5001C16.8591 13.3496 17.1501 13.6406 17.1501 13.9996C17.1501 14.3586 16.8591 14.6496 16.5001 14.6496H14.1501V16.9996C14.1501 17.3586 13.8591 17.6496 13.5001 17.6496C13.1411 17.6496 12.8501 17.3586 12.8501 16.9996V14.6496H10.5001C10.1411 14.6496 9.8501 14.3586 9.8501 13.9996C9.8501 13.6406 10.1411 13.3496 10.5001 13.3496H12.8501V10.9996C12.8501 10.6406 13.1411 10.3496 13.5001 10.3496Z"  fill=""/>
</svg>
