<svg   viewBox="0 0 20 21" fill="none" xmlns="http://www.w3.org/2000/svg">
<path fill-rule="evenodd" clip-rule="evenodd" d="M8.31992 3.43555C6.58023 3.43555 5.16992 4.84585 5.16992 6.58555C5.16992 8.32524 6.58023 9.73555 8.31992 9.73555C10.0596 9.73555 11.4699 8.32524 11.4699 6.58555C11.4699 4.84585 10.0596 3.43555 8.31992 3.43555ZM6.46992 6.58555C6.46992 5.56382 7.2982 4.73555 8.31992 4.73555C9.34165 4.73555 10.1699 5.56382 10.1699 6.58555C10.1699 7.60727 9.34165 8.43555 8.31992 8.43555C7.2982 8.43555 6.46992 7.60727 6.46992 6.58555ZM8.14714 11.735C8.7988 11.7041 9.44765 11.839 10.0331 12.1268C10.3552 12.2853 10.7448 12.1525 10.9032 11.8304C11.0616 11.5083 10.9289 11.1187 10.6068 10.9603C9.82417 10.5754 8.95681 10.3952 8.08567 10.4364C7.21454 10.4777 6.36806 10.739 5.62532 11.1961C4.8826 11.6532 4.26783 12.291 3.83844 13.0501C3.40905 13.8092 3.17903 14.6647 3.16992 15.5368V16.0857C3.16992 16.4447 3.46094 16.7357 3.81992 16.7357H9.81992C10.1789 16.7357 10.4699 16.4447 10.4699 16.0857C10.4699 15.7267 10.1789 15.4357 9.81992 15.4357H4.47279C4.4974 14.8231 4.6676 14.2247 4.96995 13.6902C5.29116 13.1223 5.75104 12.6452 6.30665 12.3033C6.86227 11.9613 7.49549 11.7658 8.14714 11.735ZM16.6398 12.2116C16.8936 12.4654 16.8936 12.877 16.6398 13.1308L14.9781 14.7925L16.6398 16.4542C16.8936 16.7081 16.8936 17.1196 16.6398 17.3735C16.3859 17.6273 15.9744 17.6273 15.7205 17.3735L14.0588 15.7118L12.3972 17.3735C12.1433 17.6273 11.7318 17.6273 11.4779 17.3735C11.2241 17.1196 11.2241 16.7081 11.4779 16.4542L13.1396 14.7925L11.4779 13.1308C11.224 12.877 11.224 12.4654 11.4779 12.2116C11.7317 11.9577 12.1433 11.9577 12.3971 12.2116L14.0588 13.8733L15.7206 12.2116C15.9744 11.9577 16.386 11.9577 16.6398 12.2116Z"  fill=""/>
</svg>
