<svg   viewBox="0 0 20 21" fill="none" xmlns="http://www.w3.org/2000/svg">
<path fill-rule="evenodd" clip-rule="evenodd" d="M9.99992 3.34961C8.21805 3.34961 6.77355 4.79411 6.77355 6.57598C6.77355 8.35786 8.21805 9.80235 9.99992 9.80235C11.7818 9.80235 13.2263 8.35786 13.2263 6.57598C13.2263 4.79411 11.7818 3.34961 9.99992 3.34961ZM8.10507 6.57598C8.10507 5.52949 8.95342 4.68113 9.99992 4.68113C11.0464 4.68113 11.8948 5.52949 11.8948 6.57598C11.8948 7.62248 11.0464 8.47084 9.99992 8.47084C8.95342 8.47084 8.10507 7.62248 8.10507 6.57598ZM10 11.1335C8.43083 11.1335 6.91152 11.6935 5.66062 12.718C4.41116 13.7414 3.49469 15.1739 3.03 16.801C2.97263 17.0019 3.01287 17.218 3.13867 17.3848C3.26448 17.5516 3.46126 17.6496 3.67016 17.6496H16.3299C16.5388 17.6496 16.7356 17.5516 16.8614 17.3848C16.9872 17.218 17.0274 17.0019 16.97 16.801C16.5052 15.1739 15.5888 13.7414 14.3394 12.718C13.0885 11.6935 11.5692 11.1335 10 11.1335ZM6.50433 13.7481C7.52867 12.9092 8.75288 12.465 10 12.465C11.2471 12.465 12.4713 12.9091 13.4957 13.7481C14.3051 14.4111 14.9572 15.2947 15.3905 16.3181H4.60953C5.04278 15.2947 5.69483 14.4112 6.50433 13.7481Z"  fill=""/>
</svg>
