<svg   viewBox="0 0 20 21" fill="none" xmlns="http://www.w3.org/2000/svg">
<path fill-rule="evenodd" clip-rule="evenodd" d="M7.99985 3.84961C6.26016 3.84961 4.84985 5.25991 4.84985 6.99961C4.84985 8.7393 6.26016 10.1496 7.99985 10.1496C9.73955 10.1496 11.1499 8.7393 11.1499 6.99961C11.1499 5.25991 9.73955 3.84961 7.99985 3.84961ZM6.14985 6.99961C6.14985 5.97788 6.97813 5.14961 7.99985 5.14961C9.02158 5.14961 9.84985 5.97788 9.84985 6.99961C9.84985 8.02133 9.02158 8.84961 7.99985 8.84961C6.97813 8.84961 6.14985 8.02133 6.14985 6.99961ZM7.76563 10.8505L7.99851 10.8447L8.0012 10.8447C8.07882 10.8449 8.15647 10.8468 8.23408 10.8505C9.1052 10.8917 9.9517 11.1531 10.6944 11.6102C11.4372 12.0672 12.0519 12.7051 12.4813 13.4642C12.9107 14.2232 13.1407 15.0788 13.1498 15.9508L13.1499 15.9576V16.4997C13.1499 16.8587 12.8588 17.1497 12.4999 17.1497H3.49985C3.14087 17.1497 2.84985 16.8587 2.84985 16.4997L2.84989 15.9508C2.859 15.0788 3.08899 14.2232 3.51838 13.4642C3.94777 12.7051 4.56254 12.0672 5.30526 11.6102C6.048 11.1531 6.89451 10.8917 7.76563 10.8505ZM7.99985 12.1447C7.94237 12.1449 7.88476 12.1463 7.82708 12.149C7.17543 12.1799 6.54219 12.3754 5.98659 12.7173C5.43098 13.0592 4.97109 13.5364 4.64989 14.1042C4.34754 14.6387 4.17733 15.2372 4.15272 15.8497H11.847C11.8224 15.2372 11.6522 14.6387 11.3498 14.1043C11.0286 13.5364 10.5687 13.0592 10.0131 12.7173C9.45752 12.3754 8.82428 12.1799 8.17263 12.149C8.11494 12.1463 8.05733 12.1449 7.99985 12.1447ZM11.3499 4.49961C11.3499 4.14062 11.6409 3.84961 11.9999 3.84961C13.7395 3.84961 15.1499 5.25991 15.1499 6.99961C15.1499 8.73931 13.7395 10.1496 11.9999 10.1496C11.6409 10.1496 11.3499 9.85859 11.3499 9.49961C11.3499 9.14062 11.6409 8.84961 11.9999 8.84961C13.0216 8.84961 13.8499 8.02133 13.8499 6.99961C13.8499 5.97789 13.0216 5.14961 11.9999 5.14961C11.6409 5.14961 11.3499 4.85859 11.3499 4.49961ZM12.3664 11.4636C12.4468 11.1137 12.7955 10.8953 13.1454 10.9756C13.6908 11.1009 14.2143 11.3146 14.6944 11.6101C15.4372 12.0671 16.0519 12.705 16.4813 13.4641C16.9107 14.2231 17.1407 15.0787 17.1498 15.9507L17.1499 15.9575L17.1499 16.4997C17.1499 16.8587 16.8589 17.1497 16.4999 17.1497H14.4999C14.1409 17.1497 13.8499 16.8587 13.8499 16.4997C13.8499 16.1407 14.1409 15.8497 14.4999 15.8497H15.847C15.8224 15.2372 15.6522 14.6386 15.3498 14.1041C15.0286 13.5363 14.5687 13.0591 14.0131 12.7172C13.654 12.4962 13.2624 12.3364 12.8543 12.2426C12.5045 12.1622 12.286 11.8135 12.3664 11.4636Z"  fill=""/>
</svg>
