<svg    viewBox="0 0 21 20" fill="none" xmlns="http://www.w3.org/2000/svg">
<path fill-rule="evenodd" clip-rule="evenodd" d="M10.5 4.14961C10.0094 4.14961 9.53883 4.34452 9.19189 4.69146C8.84494 5.0384 8.65003 5.50895 8.65003 5.9996V9.99962C8.65003 10.2426 8.69789 10.4831 8.79086 10.7076C8.88383 10.932 9.0201 11.136 9.19189 11.3078C9.36367 11.4795 9.56761 11.6158 9.79207 11.7088C10.0165 11.8018 10.2571 11.8496 10.5 11.8496C10.9907 11.8496 11.4612 11.6547 11.8082 11.3078C12.1551 10.9608 12.35 10.4903 12.35 9.99961V5.99961C12.35 5.50896 12.1551 5.0384 11.8082 4.69146C11.4612 4.34452 10.9907 4.14961 10.5 4.14961ZM8.27265 3.77222C8.86338 3.18148 9.6646 2.84961 10.5 2.84961C11.3355 2.84961 12.1367 3.18148 12.7274 3.77222C13.3182 4.36296 13.65 5.16418 13.65 5.99961V9.99961C13.65 10.835 13.3182 11.6363 12.7274 12.227C12.1367 12.8177 11.3355 13.1496 10.5 13.1496C10.0864 13.1496 9.67675 13.0681 9.29458 12.9098C8.9124 12.7515 8.56515 12.5195 8.27265 12.227C7.98014 11.9345 7.74812 11.5872 7.58981 11.2051C7.43151 10.8229 7.35003 10.4133 7.35003 9.99962V5.9996C7.35003 5.16417 7.68191 4.36296 8.27265 3.77222ZM5.95522 9.85364C6.31198 9.81373 6.63355 10.0706 6.67347 10.4273C6.77878 11.3685 7.22727 12.2379 7.9332 12.8692C8.63912 13.5006 9.55297 13.8496 10.5 13.8496C11.4471 13.8496 12.3609 13.5006 13.0669 12.8692C13.7728 12.2379 14.2213 11.3685 14.3266 10.4273C14.3665 10.0706 14.6881 9.81373 15.0448 9.85365C15.4016 9.89357 15.6585 10.2151 15.6185 10.5719C15.4777 11.8309 14.8778 12.9937 13.9335 13.8382C13.152 14.5372 12.18 14.9774 11.15 15.1084V16.4996C11.15 16.8586 10.859 17.1496 10.5 17.1496C10.141 17.1496 9.85003 16.8586 9.85003 16.4996V15.1084C8.82003 14.9774 7.84806 14.5371 7.06657 13.8382C6.12231 12.9937 5.5224 11.8309 5.38153 10.5719C5.34161 10.2151 5.59846 9.89356 5.95522 9.85364Z"  fill=""/>
</svg>
