<svg    viewBox="0 0 21 20" fill="none" xmlns="http://www.w3.org/2000/svg">
<path d="M15.0439 9.85353C15.4007 9.89287 15.6581 10.214 15.6187 10.5708C15.5695 11.0177 15.4616 11.4561 15.2979 11.8748C15.1672 12.2091 14.7901 12.3742 14.4558 12.2434C14.1215 12.1127 13.9564 11.7357 14.0871 11.4014C14.2093 11.089 14.2898 10.7618 14.3266 10.4284C14.3659 10.0716 14.687 9.8142 15.0439 9.85353Z"  fill=""/>
<path d="M9.59851 4.38368C9.87403 4.23003 10.1843 4.14945 10.4998 4.14961C10.7427 4.14961 10.9836 4.19746 11.2081 4.29043C11.4325 4.3834 11.6365 4.51967 11.8083 4.69146C11.98 4.86325 12.1163 5.06719 12.2093 5.29164C12.3023 5.51609 12.3501 5.75666 12.3501 5.9996V9.77643C12.3501 10.1354 12.6411 10.4264 13.0001 10.4264C13.3591 10.4264 13.6501 10.1354 13.6501 9.77643V5.9996C13.6501 5.58594 13.5686 5.17633 13.4103 4.79415C13.252 4.41198 13.02 4.06472 12.7275 3.77222C12.435 3.47972 12.0877 3.24769 11.7056 3.08939C11.3235 2.93113 10.9136 2.84965 10.5001 2.84961C9.96287 2.84939 9.43452 2.98664 8.96532 3.24831C8.49602 3.51003 8.10152 3.88752 7.81936 4.34482C7.63086 4.65034 7.72572 5.05081 8.03124 5.23931C8.33675 5.42781 8.73723 5.33295 8.92572 5.02744C9.09138 4.75896 9.32299 4.53734 9.59851 4.38368Z"  fill=""/>
<path fill-rule="evenodd" clip-rule="evenodd" d="M5.98106 4.06237C5.73958 3.79674 5.32849 3.77717 5.06286 4.01865C4.79724 4.26013 4.77766 4.67122 5.01914 4.93685L7.3501 7.5009V9.99961C7.3501 10.835 7.68198 11.6363 8.27272 12.227C8.86324 12.8175 9.66409 13.1494 10.4992 13.1496C11.0633 13.1504 11.613 12.9994 12.0928 12.7179L12.5718 13.2447C12.1614 13.5067 11.7033 13.6895 11.2212 13.7815C10.5243 13.9143 9.80427 13.8521 9.14054 13.6016C8.47682 13.3511 7.89519 12.9222 7.45986 12.362C7.02453 11.8019 6.75241 11.1324 6.67354 10.4273C6.63363 10.0706 6.31206 9.81373 5.9553 9.85364C5.59854 9.89356 5.34168 10.2151 5.3816 10.5719C5.4871 11.5149 5.85109 12.4105 6.43341 13.1598C7.01572 13.909 7.79372 14.4828 8.68154 14.8179C9.06012 14.9608 9.45238 15.0578 9.8501 15.1084V16.4996C9.8501 16.8586 10.1411 17.1496 10.5001 17.1496C10.8591 17.1496 11.1501 16.8586 11.1501 16.4996V15.1084C11.2552 15.095 11.3601 15.0784 11.4646 15.0585C12.1828 14.9215 12.861 14.6338 13.4557 14.2171L15.0191 15.9368C15.2606 16.2025 15.6717 16.222 15.9373 15.9806C16.203 15.7391 16.2225 15.328 15.9811 15.0624L5.98106 4.06237ZM8.6501 8.9309V9.99961C8.6501 10.4903 8.84501 10.9608 9.19195 11.3078C9.5389 11.6547 10.0095 11.8496 10.5001 11.8496C10.7363 11.8499 10.969 11.8049 11.1847 11.719L8.6501 8.9309Z"  fill=""/>
</svg>
