<svg    viewBox="0 0 21 21" fill="none" xmlns="http://www.w3.org/2000/svg">
<path fill-rule="evenodd" clip-rule="evenodd" d="M10.5001 3.34961C10.1879 3.34961 9.88119 3.4317 9.61073 3.58766C9.34026 3.74361 9.11556 3.96794 8.95916 4.23815L2.74318 14.9772C2.58653 15.2478 2.50392 15.5549 2.50366 15.8677C2.5034 16.1804 2.58551 16.4876 2.74171 16.7585C2.89792 17.0294 3.12271 17.2544 3.39348 17.4108C3.66425 17.5673 3.97144 17.6496 4.28415 17.6496H16.7161C17.0288 17.6496 17.336 17.5673 17.6068 17.4108C17.8775 17.2544 18.1023 17.0294 18.2585 16.7585C18.4147 16.4876 18.4968 16.1804 18.4966 15.8676C18.4963 15.5549 18.4137 15.2478 18.257 14.9772L12.0411 4.23815C11.8847 3.96794 11.66 3.74361 11.3895 3.58766C11.119 3.4317 10.8123 3.34961 10.5001 3.34961ZM10.2601 4.71385C10.3331 4.67176 10.4159 4.64961 10.5001 4.64961C10.5844 4.64961 10.6671 4.67176 10.7401 4.71385C10.8131 4.75593 10.8738 4.81647 10.916 4.88939L17.1319 15.6284L17.6646 15.3201L17.1319 15.6284C17.1742 15.7015 17.1965 15.7843 17.1966 15.8687C17.1966 15.9531 17.1745 16.036 17.1323 16.1091C17.0902 16.1822 17.0295 16.243 16.9564 16.2852C16.8834 16.3274 16.8005 16.3496 16.7161 16.3496H4.28415C4.19976 16.3496 4.11686 16.3274 4.04379 16.2852C3.97072 16.243 3.91006 16.1822 3.8679 16.1091C3.82575 16.036 3.80359 15.9531 3.80366 15.8687C3.80373 15.7843 3.82603 15.7015 3.8683 15.6284L10.0843 4.88939C10.1265 4.81647 10.1871 4.75594 10.2601 4.71385ZM11.1501 9.08678C11.1501 8.72779 10.8591 8.43678 10.5001 8.43678C10.1411 8.43678 9.85012 8.72779 9.85012 9.08678V11.913C9.85012 12.272 10.1411 12.563 10.5001 12.563C10.8591 12.563 11.1501 12.272 11.1501 11.913V9.08678ZM11.3482 14.4572C11.3482 14.9255 10.9686 15.3051 10.5003 15.3051C10.0321 15.3051 9.65247 14.9255 9.65247 14.4572C9.65247 13.989 10.0321 13.6094 10.5003 13.6094C10.9686 13.6094 11.3482 13.989 11.3482 14.4572Z"  fill=""/>
</svg>
