<svg    viewBox="0 0 21 21" fill="none" xmlns="http://www.w3.org/2000/svg">
<path fill-rule="evenodd" clip-rule="evenodd" d="M17.4597 4.45923C17.7136 4.20539 17.7136 3.79383 17.4597 3.53999C17.2059 3.28615 16.7943 3.28615 16.5405 3.53999L10.5001 9.58037L4.45972 3.53999C4.20588 3.28615 3.79432 3.28615 3.54048 3.53999C3.28664 3.79383 3.28664 4.20539 3.54048 4.45923L9.58086 10.4996L3.54048 16.54C3.28664 16.7938 3.28664 17.2054 3.54048 17.4592C3.79432 17.7131 4.20588 17.7131 4.45972 17.4592L10.5001 11.4188L16.5405 17.4592C16.7943 17.7131 17.2059 17.7131 17.4597 17.4592C17.7136 17.2054 17.7136 16.7938 17.4597 16.54L11.4193 10.4996L17.4597 4.45923Z"  fill=""/>
</svg>
