<svg    viewBox="0 0 21 21" fill="none" xmlns="http://www.w3.org/2000/svg">
<path fill-rule="evenodd" clip-rule="evenodd" d="M9.68781 4.64961C6.90569 4.64961 4.65034 6.90496 4.65034 9.68708C4.65034 12.4692 6.90569 14.7246 9.68781 14.7246C12.4699 14.7246 14.7253 12.4692 14.7253 9.68708C14.7253 6.90496 12.4699 4.64961 9.68781 4.64961ZM3.35034 9.68708C3.35034 6.18699 6.18772 3.34961 9.68781 3.34961C13.1879 3.34961 16.0253 6.18699 16.0253 9.68708C16.0253 11.2031 15.4929 12.5948 14.605 13.6855L17.4595 16.54C17.7133 16.7938 17.7133 17.2054 17.4595 17.4592C17.2057 17.7131 16.7941 17.7131 16.5403 17.4592L13.6857 14.6047C12.5951 15.4924 11.2036 16.0246 9.68781 16.0246C6.18772 16.0246 3.35034 13.1872 3.35034 9.68708ZM9.68781 6.87069C10.0468 6.87069 10.3378 7.1617 10.3378 7.52069V9.03735H11.8545C12.2135 9.03735 12.5045 9.32836 12.5045 9.68735C12.5045 10.0463 12.2135 10.3373 11.8545 10.3373H10.3378V11.854C10.3378 12.213 10.0468 12.504 9.68781 12.504C9.32883 12.504 9.03781 12.213 9.03781 11.854V10.3373H7.52116C7.16217 10.3373 6.87116 10.0463 6.87116 9.68735C6.87116 9.32836 7.16217 9.03735 7.52116 9.03735H9.03781V7.52069C9.03781 7.1617 9.32883 6.87069 9.68781 6.87069Z"  fill=""/>
</svg>
