<svg width="28" height="28" viewBox="0 0 28 28" fill="none" xmlns="http://www.w3.org/2000/svg">
<path fill-rule="evenodd" clip-rule="evenodd" d="M14 3.27148C7.9225 3.27148 3 8.19398 3 14.2715C2.99809 16.5808 3.72377 18.8321 5.07401 20.7056C6.42424 22.5791 8.3304 23.9796 10.5218 24.7083C11.0718 24.804 11.2775 24.474 11.2775 24.1847C11.2775 23.924 11.2632 23.0583 11.2632 22.1365C8.5 22.6458 7.785 21.4633 7.565 20.844C7.4407 20.5272 6.905 19.5515 6.4375 19.2897C6.0525 19.084 5.5025 18.5747 6.4232 18.5615C7.29 18.5472 7.9082 19.359 8.115 19.689C9.105 21.3522 10.6868 20.8847 11.3182 20.5965C11.415 19.8815 11.7032 19.4008 12.02 19.1258C9.5725 18.8508 7.015 17.9015 7.015 13.694C7.015 12.4972 7.4407 11.5083 8.1425 10.7383C8.0325 10.4633 7.6475 9.33578 8.2525 7.82328C8.2525 7.82328 9.1732 7.53398 11.2775 8.94968C12.1731 8.70179 13.0983 8.57708 14.0275 8.57898C14.9625 8.57898 15.8975 8.70218 16.7775 8.94968C18.8807 7.51968 19.8025 7.82328 19.8025 7.82328C20.4075 9.33578 20.0225 10.4633 19.9125 10.7383C20.6132 11.5083 21.04 12.484 21.04 13.694C21.04 17.9158 18.4693 18.8508 16.0218 19.1258C16.42 19.469 16.7643 20.129 16.7643 21.1608C16.7643 22.6315 16.75 23.814 16.75 24.1858C16.75 24.474 16.9568 24.8172 17.5068 24.7072C19.69 23.9694 21.587 22.5659 22.9311 20.694C24.2752 18.8221 24.9987 16.576 25 14.2715C25 8.19398 20.0775 3.27148 14 3.27148Z" fill="white"/>
</svg>
