<svg width="28" height="28" viewBox="0 0 28 28" fill="none" xmlns="http://www.w3.org/2000/svg">
<path d="M10.1501 3C9.27488 3 8.43552 3.34768 7.81665 3.96655C7.19778 4.58542 6.8501 5.42479 6.8501 6.3C6.8501 7.17521 7.19778 8.01458 7.81665 8.63345C8.43552 9.25232 9.27488 9.6 10.1501 9.6H17.8501C18.7253 9.6 19.5647 9.25232 20.1835 8.63345C20.8024 8.01458 21.1501 7.17521 21.1501 6.3C21.1501 5.42479 20.8024 4.58542 20.1835 3.96655C19.5647 3.34768 18.7253 3 17.8501 3H10.1501ZM17.8501 10.7C16.9749 10.7 16.1355 11.0477 15.5166 11.6665C14.8978 12.2854 14.5501 13.1248 14.5501 14C14.5501 14.8752 14.8978 15.7146 15.5166 16.3335C16.1355 16.9523 16.9749 17.3 17.8501 17.3C18.7253 17.3 19.5647 16.9523 20.1835 16.3335C20.8024 15.7146 21.1501 14.8752 21.1501 14C21.1501 13.1248 20.8024 12.2854 20.1835 11.6665C19.5647 11.0477 18.7253 10.7 17.8501 10.7ZM6.8501 14C6.8501 13.1248 7.19778 12.2854 7.81665 11.6665C8.43552 11.0477 9.27488 10.7 10.1501 10.7H13.4501V17.3H10.1501C9.27488 17.3 8.43552 16.9523 7.81665 16.3335C7.19778 15.7146 6.8501 14.8752 6.8501 14ZM10.1501 18.4C9.49742 18.4 8.8594 18.5935 8.31672 18.9561C7.77403 19.3188 7.35107 19.8341 7.1013 20.4371C6.85153 21.0401 6.78618 21.7037 6.91351 22.3438C7.04084 22.9839 7.35513 23.5719 7.81665 24.0335C8.27816 24.495 8.86616 24.8093 9.5063 24.9366C10.1464 25.0639 10.81 24.9986 11.413 24.7488C12.0159 24.499 12.5313 24.0761 12.8939 23.5334C13.2566 22.9907 13.4501 22.3527 13.4501 21.7V18.4H10.1501Z" fill="white"/>
</svg>
