<svg  viewBox="0 0 20 18" fill="none" xmlns="http://www.w3.org/2000/svg">
<path fill-rule="evenodd" clip-rule="evenodd" d="M16.9977 2.91639C18.2414 2.1752 16.1743 0.0791016 16.1743 0.0791016C16.1743 0.0791016 18.0141 1.26078 19.0486 3.60445C20.0659 5.90918 20.0587 7.82887 19.9545 8.8049C19.734 11.4656 18.4838 13.7749 16.6449 15.4033C15.6746 15.1061 14.2658 14.5502 13.1679 13.9041C11.3241 12.8175 10.2093 11.1963 9.24195 9.54453C9.0702 9.25126 8.90169 8.9545 8.73417 8.65949L8.73417 8.65948L8.7341 8.65936C8.43497 8.13258 8.13902 7.61139 7.8334 7.1256C7.35312 6.36218 6.83154 5.6563 6.19312 5.09339L6.19305 5.09333C4.37998 3.49577 2.91285 3.08261 1.64501 2.75111C4.96864 2.29093 7.46208 4.15872 9.95083 6.02298C12.5119 7.94145 15.0681 9.85619 18.5188 9.22639C19.2065 9.07118 19.5455 8.8155 19.7414 8.45885L19.7609 8.39893C20.2357 6.95364 18.7286 5.25386 17.3576 5.39799C14.2837 5.72117 13.1554 3.71016 12.8933 2.77434C12.6103 1.76541 12.9328 1.43327 13.2969 1.59621C13.3695 1.62871 13.5062 1.73304 13.6894 1.87281L13.6894 1.87282C14.4247 2.4338 15.9083 3.56569 16.9977 2.91639ZM13.8331 14.8619C14.6272 15.2485 15.4668 15.5777 16.1589 15.8072C15.1495 16.5938 13.9905 17.1877 12.7442 17.5424C13.0337 17.0296 13.2761 16.4575 13.4617 15.9634C13.6034 15.5861 13.7147 15.2468 13.7905 15.0018C13.8062 14.951 13.8205 14.9042 13.8331 14.8619ZM12.9631 15.7761C12.7183 16.4279 12.3884 17.1722 12.0049 17.7223C11.3675 17.8517 10.7114 17.9193 10.0444 17.9193L10.0426 17.9212L10.0155 17.9211C10.0711 16.51 10.3422 15.2927 10.6134 14.3999C10.7655 13.8995 10.9173 13.5021 11.0305 13.2309C11.0692 13.1381 11.1035 13.0601 11.1316 12.9979C11.643 13.5026 12.2236 13.9659 12.8976 14.3631L12.8977 14.3632C13.0441 14.4493 13.1955 14.5338 13.3503 14.6162C13.3327 14.6768 13.3097 14.7539 13.2817 14.8443C13.2082 15.0819 13.1003 15.4109 12.9631 15.7761ZM10.1038 14.2451C9.82214 15.172 9.54027 16.4373 9.483 17.9065C8.78959 17.87 8.12194 17.7663 7.48437 17.603C7.36642 15.3579 7.80475 13.5021 8.28662 12.1871C8.54224 11.4896 8.80988 10.9449 9.0126 10.5761C9.05191 10.5046 9.08878 10.4397 9.12263 10.3816C9.58845 11.1389 10.108 11.8929 10.7371 12.5862L10.7369 12.5866L10.7254 12.6097C10.7156 12.6297 10.7016 12.6587 10.6839 12.6966C10.6485 12.7722 10.5986 12.8829 10.539 13.0257C10.4198 13.3113 10.2616 13.7255 10.1038 14.2451ZM7.78651 12.0039C7.29815 13.3365 6.85395 15.1998 6.94401 17.4482C6.27996 17.2374 5.65184 16.9607 5.06496 16.6273C4.89465 13.3477 5.53858 11.0182 6.2251 9.50711C6.57689 8.73277 6.94074 8.17147 7.21412 7.80608C7.3024 7.68807 7.38126 7.5905 7.44724 7.51277C7.7238 7.9587 7.98847 8.42494 8.26154 8.90599L8.26161 8.90611L8.26175 8.90637C8.43048 9.2036 8.60241 9.50648 8.78234 9.8137L8.81284 9.86568L8.80801 9.87329C8.74346 9.97524 8.6528 10.125 8.54583 10.3196C8.33193 10.7087 8.05256 11.2779 7.78651 12.0039ZM5.74016 9.28679C5.04486 10.8172 4.4063 13.1151 4.51727 16.2922C3.946 15.9164 3.41939 15.4848 2.94308 15.0073C2.61582 11.5228 3.29859 9.06216 4.06035 7.47284C4.4488 6.66238 4.85901 6.07598 5.16955 5.69435C5.32483 5.50353 5.45517 5.36392 5.54536 5.27314L5.56317 5.25533C5.65471 5.33129 5.74728 5.41044 5.84092 5.49296C6.32736 5.92188 6.74894 6.45032 7.14759 7.04651C7.05848 7.14501 6.93418 7.29112 6.78764 7.48699C6.49326 7.88045 6.10915 8.47462 5.74016 9.28679ZM3.58004 7.24263C2.82924 8.80908 2.16812 11.1461 2.35999 14.3701C1.93186 13.86 1.55546 13.309 1.23624 12.7266C0.922372 9.82467 1.45474 7.64913 2.08072 6.18166C2.41468 5.39876 2.77607 4.81563 3.05198 4.43022C3.18992 4.23753 3.30644 4.09434 3.38736 4.00043C3.41703 3.966 3.44191 3.9382 3.4613 3.91702C3.98588 4.15426 4.54203 4.47134 5.14274 4.92285C5.04319 5.02453 4.91035 5.16899 4.75641 5.35818C4.4222 5.7689 3.98846 6.3905 3.58004 7.24263ZM1.59079 5.97267C1.0401 7.26367 0.566493 9.05745 0.614074 11.3599C-0.320906 8.8209 -0.241339 5.88291 1.22132 3.19118L1.41141 3.24103L1.41142 3.24103C1.90121 3.36915 2.4061 3.50122 2.9416 3.70242C2.85557 3.80481 2.745 3.944 2.61888 4.12018C2.32317 4.53325 1.94172 5.15001 1.59079 5.97267ZM10.4114 9.00011C10.4114 9.22023 10.233 9.39958 10.0119 9.39958C9.79092 9.39958 9.61247 9.22023 9.61247 9.00011C9.61247 8.77999 9.79092 8.60063 10.0119 8.60063C10.233 8.60063 10.4114 8.77999 10.4114 9.00011Z" fill="white"/>
</svg>
