<svg   viewBox="0 0 20 21" fill="none" xmlns="http://www.w3.org/2000/svg">
<path fill-rule="evenodd" clip-rule="evenodd" d="M7.9357 5.8283C8.97647 5.36835 10.141 5.26915 11.2446 5.54642C12.3482 5.82369 13.3275 6.46156 14.0273 7.35881C14.727 8.25604 15.1071 9.36134 15.1072 10.4992C15.1072 11.1068 14.993 11.5293 14.8463 11.7653C14.7376 11.9401 14.6121 12.031 14.3413 12.031C14.0705 12.031 13.945 11.9401 13.8364 11.7653C13.6896 11.5293 13.5754 11.1068 13.5754 10.4991L13.5754 7.94574C13.5754 7.38162 13.1181 6.92431 12.554 6.92431C12.207 6.92431 11.9004 7.09736 11.7158 7.36187C11.2066 7.08292 10.6221 6.92431 10.0006 6.92431C8.02632 6.92431 6.42584 8.52479 6.42584 10.4991C6.42584 12.4734 8.02632 14.0739 10.0006 14.0739C10.9021 14.0739 11.7256 13.7402 12.3545 13.1896C12.8254 13.7378 13.5002 14.0739 14.3413 14.0739C15.3472 14.0739 16.1154 13.5932 16.5812 12.8439C17.009 12.1557 17.1501 11.3015 17.1501 10.499C17.15 8.90599 16.6178 7.35865 15.6382 6.10249C14.6585 4.84634 13.2874 3.95332 11.7424 3.56514C10.1974 3.17696 8.56701 3.31585 7.10994 3.95978C5.65288 4.6037 4.45258 5.71578 3.6995 7.11955C2.94642 8.52332 2.68371 10.1384 2.95304 11.7085C3.22237 13.2785 4.00831 14.7137 5.18617 15.7862C6.36403 16.8588 7.86633 17.5073 9.4547 17.6288C11.0431 17.7503 12.6265 17.3379 13.9538 16.457C14.4239 16.1451 14.552 15.5111 14.2401 15.0411C13.9281 14.5711 13.2942 14.4429 12.8242 14.7549C11.8761 15.3841 10.7451 15.6787 9.61053 15.5919C8.47598 15.5051 7.40291 15.0419 6.56158 14.2758C5.72026 13.5097 5.15886 12.4846 4.96649 11.3631C4.77411 10.2416 4.96176 9.08797 5.49967 8.08528C6.03758 7.08259 6.89494 6.28825 7.9357 5.8283ZM11.5325 10.4991C11.5325 9.65303 10.8467 8.96717 10.0006 8.96717C9.15456 8.96717 8.46869 9.65303 8.46869 10.4991C8.46869 11.3452 9.15456 12.031 10.0006 12.031C10.8467 12.031 11.5325 11.3452 11.5325 10.4991Z"  fill=""/>
</svg>
