<svg   viewBox="0 0 20 21" fill="none" xmlns="http://www.w3.org/2000/svg">
<path fill-rule="evenodd" clip-rule="evenodd" d="M3.29731 3.24701C3.00441 3.5399 3.00441 4.01477 3.29731 4.30766L15.6419 16.6521C15.9348 16.945 16.4097 16.945 16.7025 16.6521C16.9954 16.3592 16.9954 15.8843 16.7025 15.5914L15.6554 14.5443H15.9945C16.2706 14.5443 16.4945 14.3204 16.4945 14.0443C16.4945 13.7681 16.2706 13.5444 15.9945 13.5444C15.7222 13.5444 15.5275 13.4511 15.2796 13.2033C15.0612 12.9849 14.9385 12.6887 14.9385 12.3799V7.97082C14.9385 6.66102 14.4182 5.40488 13.492 4.47871C12.5659 3.55254 11.3097 3.03223 9.9999 3.03223C8.69009 3.03223 7.43393 3.55254 6.50775 4.47871C6.35339 4.63308 6.21029 4.79661 6.079 4.96803L4.35797 3.24701C4.06508 2.95412 3.5902 2.95412 3.29731 3.24701ZM11.7717 14.5443L5.0631 7.83584C5.06187 7.88075 5.06126 7.92575 5.06126 7.97082V12.3799C5.06126 12.6887 4.93857 12.9849 4.72018 13.2033C4.47234 13.4512 4.27767 13.5444 4.00537 13.5444C3.72922 13.5444 3.50537 13.7681 3.50537 14.0443C3.50537 14.3204 3.72922 14.5443 4.00537 14.5443H11.7717ZM8.39133 15.4036C8.43869 15.3517 8.50571 15.3221 8.57596 15.3221H11.4241C11.4944 15.3221 11.5614 15.3517 11.6087 15.4036C11.6561 15.4554 11.6795 15.5249 11.6731 15.5948C11.6375 15.9844 11.4668 16.3512 11.188 16.63C10.8729 16.9451 10.4456 17.1221 10 17.1221C9.55447 17.1221 9.12716 16.9451 8.8121 16.63C8.53324 16.3512 8.36254 15.9844 8.327 15.5948C8.32061 15.5249 8.34396 15.4554 8.39133 15.4036Z"  fill=""/>
</svg>
