<svg   viewBox="0 0 20 21" fill="none" xmlns="http://www.w3.org/2000/svg">
<path fill-rule="evenodd" clip-rule="evenodd" d="M6.66622 4.40818C7.55036 3.52405 8.74952 3.02734 9.99988 3.02734C11.2502 3.02734 12.4494 3.52405 13.3336 4.40818C14.2177 5.29231 14.7144 6.49146 14.7144 7.74182V12.4563C14.7144 12.7341 14.8248 13.0006 15.0212 13.1971C15.2177 13.3935 15.4842 13.5039 15.7621 13.5039C16.0513 13.5039 16.2859 13.7385 16.2859 14.0278C16.2859 14.317 16.0513 14.5516 15.7621 14.5516H4.2377C3.9484 14.5516 3.71387 14.317 3.71387 14.0278C3.71387 13.7385 3.9484 13.5039 4.2377 13.5039C4.51556 13.5039 4.78204 13.3935 4.97852 13.1971C5.17499 13.0006 5.28537 12.7341 5.28537 12.4563V7.74182C5.28537 6.49146 5.78208 5.29231 6.66622 4.40818ZM8.39103 15.4036C8.43839 15.3517 8.5054 15.3221 8.57566 15.3221H11.4238C11.494 15.3221 11.5611 15.3517 11.6084 15.4036C11.6558 15.4554 11.6791 15.5249 11.6728 15.5948C11.6372 15.9844 11.4665 16.3512 11.1877 16.63C10.8726 16.9451 10.4453 17.1221 9.99972 17.1221C9.55417 17.1221 9.12686 16.9451 8.8118 16.63C8.53294 16.3512 8.36224 15.9844 8.32669 15.5948C8.32031 15.5249 8.34366 15.4554 8.39103 15.4036Z"  fill=""/>
</svg>
