<svg   viewBox="0 0 20 21" fill="none" xmlns="http://www.w3.org/2000/svg">
<path fill-rule="evenodd" clip-rule="evenodd" d="M2.8501 4.86551C2.8501 4.07576 3.49033 3.43555 4.2801 3.43555H15.7201C16.5099 3.43555 17.1501 4.07576 17.1501 4.86551V6.39692C17.1501 6.97911 16.8022 7.48003 16.3029 7.70312H3.6973C3.19802 7.48003 2.8501 6.97911 2.8501 6.39692V4.86551ZM3.66832 8.98884V15.2826C3.66832 16.0723 4.30855 16.7125 5.09832 16.7125H14.904C15.6938 16.7125 16.334 16.0723 16.334 15.2826V8.98884H3.66832ZM6.93492 11.166C6.93492 10.8275 7.2093 10.5531 7.54778 10.5531H12.4506C12.7891 10.5531 13.0635 10.8275 13.0635 11.166C13.0635 11.5044 12.7891 11.7788 12.4506 11.7788H7.54778C7.2093 11.7788 6.93492 11.5044 6.93492 11.166Z"  fill=""/>
</svg>
