<svg   viewBox="0 0 20 21" fill="none" xmlns="http://www.w3.org/2000/svg">
<path fill-rule="evenodd" clip-rule="evenodd" d="M4.6916 8.98294H15.3083V16.3496H4.6916V8.98294ZM6.91244 11.041C6.91244 10.6821 7.20345 10.3911 7.56244 10.3911H9.45827C9.70813 10.3911 9.93588 10.5343 10.0441 10.7595C10.1524 10.9847 10.1219 11.252 9.96583 11.4471L9.43672 12.1085C9.58373 12.2224 9.71195 12.3597 9.816 12.5153C9.97438 12.7523 10.0719 13.0246 10.0999 13.3083C10.1279 13.5919 10.0855 13.878 9.97653 14.1414C9.86754 14.4047 9.6953 14.6371 9.47506 14.818C9.25482 14.9989 8.99337 15.1227 8.71387 15.1784C8.43437 15.2342 8.14544 15.2201 7.87266 15.1375C7.59988 15.0549 7.35168 14.9064 7.15003 14.7049C6.89604 14.4513 6.89578 14.0397 7.14947 13.7857C7.40316 13.5317 7.81471 13.5315 8.06871 13.7851C8.11912 13.8355 8.18117 13.8726 8.24937 13.8933C8.31756 13.9139 8.38979 13.9174 8.45967 13.9035C8.52955 13.8896 8.59491 13.8586 8.64997 13.8134C8.70503 13.7682 8.74809 13.7101 8.77533 13.6443C8.80258 13.5784 8.81317 13.5069 8.80617 13.436C8.79917 13.3651 8.7748 13.297 8.7352 13.2377C8.69561 13.1785 8.64202 13.13 8.57918 13.0964C8.51634 13.0628 8.44619 13.0452 8.37494 13.0452C8.12507 13.0452 7.89733 12.902 7.78909 12.6768C7.68085 12.4516 7.71128 12.1843 7.86737 11.9892L8.10586 11.691H7.56244C7.20345 11.691 6.91244 11.4 6.91244 11.041ZM12.4573 10.4597C12.6775 10.5698 12.8166 10.7949 12.8166 11.0411V14.5619C12.8166 14.9209 12.5256 15.2119 12.1666 15.2119C11.8076 15.2119 11.5166 14.9209 11.5166 14.5619V12.3411L11.4733 12.3736C11.1861 12.589 10.7787 12.5308 10.5633 12.2436C10.3479 11.9564 10.4061 11.549 10.6933 11.3336L11.7766 10.5211C11.9736 10.3734 12.2371 10.3496 12.4573 10.4597Z"  fill=""/>
<path fill-rule="evenodd" clip-rule="evenodd" d="M6.74994 3.34961C7.10892 3.34961 7.39994 3.64062 7.39994 3.99961V4.43294H12.5999V3.99961C12.5999 3.64062 12.891 3.34961 13.2499 3.34961C13.6089 3.34961 13.8999 3.64062 13.8999 3.99961V4.43294H15.4166C16.0747 4.43294 16.6083 4.96647 16.6083 5.62461V16.4579C16.6083 17.1161 16.0747 17.6496 15.4166 17.6496H4.58327C3.92513 17.6496 3.3916 17.1161 3.3916 16.4579V5.62461C3.3916 4.96647 3.92513 4.43294 4.58327 4.43294H6.09994V3.99961C6.09994 3.64062 6.39095 3.34961 6.74994 3.34961ZM6.09994 5.73294H4.6916V7.68294H15.3083V5.73294H13.8999V6.16628C13.8999 6.52526 13.6089 6.81628 13.2499 6.81628C12.891 6.81628 12.5999 6.52526 12.5999 6.16628V5.73294H7.39994V6.16628C7.39994 6.52526 7.10892 6.81628 6.74994 6.81628C6.39095 6.81628 6.09994 6.52526 6.09994 6.16628V5.73294ZM15.3083 8.98294H4.6916V16.3496H15.3083V8.98294Z"  fill=""/>
</svg>
