<svg    viewBox="0 0 20 20" fill="none" xmlns="http://www.w3.org/2000/svg">
<path fill-rule="evenodd" clip-rule="evenodd" d="M2.35035 2.35035C2.01994 2.68076 2.01994 3.21647 2.35035 3.54688L2.55126 3.7478C2.57122 3.76382 2.5905 3.78109 2.60901 3.7996L16.5161 17.7067C16.8484 17.9788 17.3395 17.9598 17.6497 17.6497C17.98 17.3192 17.98 16.7835 17.6497 16.4532L16.7144 15.5179C16.8198 15.4645 16.9171 15.3945 17.0022 15.3093C17.2137 15.0978 17.3326 14.8108 17.3326 14.5116V7.74305C17.3326 7.44385 17.2137 7.15692 17.0022 6.94535C16.7907 6.7338 16.5037 6.61494 16.2045 6.61494H13.9483L12.2562 4.35874H7.74375L6.80583 5.6093L3.54688 2.35035C3.21647 2.01994 2.68076 2.01994 2.35035 2.35035ZM12.4549 15.6397L3.47623 6.66103C3.29708 6.71388 3.13217 6.8109 2.99771 6.94535C2.78615 7.15692 2.66729 7.44385 2.66729 7.74305V14.5116C2.66729 14.8108 2.78615 15.0978 2.99771 15.3093C3.20927 15.5209 3.49621 15.6397 3.79539 15.6397H12.4549ZM12.5558 10.5457C12.5558 10.7931 12.5207 11.0323 12.4551 11.2585L9.28708 8.09056C9.51334 8.02497 9.75254 7.98982 9.99995 7.98982C11.4115 7.98982 12.5558 9.13411 12.5558 10.5457Z"  fill=""/>
</svg>
