<svg    viewBox="0 0 20 20" fill="none" xmlns="http://www.w3.org/2000/svg">
<path fill-rule="evenodd" clip-rule="evenodd" d="M7.6 4.7C7.69443 4.5741 7.84262 4.5 8 4.5H12C12.1574 4.5 12.3056 4.5741 12.4 4.7L13.75 6.5H15.5C15.8978 6.5 16.2794 6.65804 16.5607 6.93934C16.842 7.22064 17 7.60217 17 8V14C17 14.3978 16.842 14.7794 16.5607 15.0607C16.2794 15.342 15.8978 15.5 15.5 15.5H4.5C4.10217 15.5 3.72064 15.342 3.43934 15.0607C3.15804 14.7794 3 14.3978 3 14V8C3 7.60218 3.15804 7.22064 3.43934 6.93934C3.72064 6.65804 4.10217 6.5 4.5 6.5H6.25L7.6 4.7ZM12.4613 10.7113C12.4613 12.0707 11.3593 13.1726 9.99999 13.1726C8.64064 13.1726 7.53867 12.0707 7.53867 10.7113C7.53867 9.35197 8.64064 8.25 9.99999 8.25C11.3593 8.25 12.4613 9.35197 12.4613 10.7113Z"  fill=""/>
</svg>
