<svg   viewBox="0 0 20 21" fill="none" xmlns="http://www.w3.org/2000/svg">
<path fill-rule="evenodd" clip-rule="evenodd" d="M4.09101 3.34961C3.40567 3.34961 2.8501 3.90518 2.8501 4.5905V16.4085C2.8501 17.0938 3.40567 17.6494 4.09101 17.6494H15.9092C16.5946 17.6494 17.1501 17.0938 17.1501 16.4085V4.5905C17.1501 3.90518 16.5946 3.34961 15.9092 3.34961H4.09101ZM12.6287 8.07593C12.9883 7.73273 13.558 7.74598 13.9012 8.10553C14.2444 8.46507 14.2311 9.03476 13.8716 9.37796L9.53822 13.5143C9.19044 13.8462 8.64314 13.8462 8.29536 13.5143L6.12871 11.4461C5.76916 11.1029 5.75591 10.5332 6.09912 10.1737C6.44233 9.81413 7.01203 9.80089 7.37158 10.1441L8.9168 11.6191L12.6287 8.07593Z"  fill=""/>
</svg>
