<svg   viewBox="0 0 20 21" fill="none" xmlns="http://www.w3.org/2000/svg">
<path fill-rule="evenodd" clip-rule="evenodd" d="M16.7793 4.57393C17.2141 4.93328 17.2754 5.57711 16.916 6.01196L8.70377 15.9496L8.7013 15.9526C8.5145 16.1769 8.28006 16.3568 8.01504 16.479C7.75 16.6014 7.46104 16.6631 7.16916 16.6597C6.87251 16.6561 6.57963 16.5852 6.31427 16.4525C6.04981 16.3203 5.81862 16.13 5.63794 15.896C5.63733 15.8952 5.63672 15.8945 5.63611 15.8937L3.06531 12.5883C2.71897 12.1431 2.79919 11.5013 3.24447 11.155C3.68976 10.8087 4.3315 10.8889 4.67783 11.3342L7.19418 14.5695L15.3412 4.71063C15.7006 4.27578 16.3445 4.21458 16.7793 4.57393Z"  fill=""/>
</svg>
