<svg   viewBox="0 0 20 21" fill="none" xmlns="http://www.w3.org/2000/svg">
<path fill-rule="evenodd" clip-rule="evenodd" d="M2.8501 10.0737C2.8501 6.12495 6.05127 2.92383 10.0001 2.92383C13.949 2.92383 17.1501 6.12495 17.1501 10.0737C17.1501 14.0225 13.949 17.2236 10.0001 17.2236C6.05127 17.2236 2.8501 14.0225 2.8501 10.0737ZM11.2789 7.52218C11.6304 7.17071 12.2003 7.17072 12.5517 7.52219C12.9032 7.87366 12.9032 8.44351 12.5517 8.79497L11.2731 10.0736L12.5518 11.3523C12.9032 11.7038 12.9032 12.2736 12.5518 12.6251C12.2003 12.9766 11.6305 12.9766 11.279 12.6251L10.0003 11.3464L8.72163 12.6251C8.37016 12.9766 7.80032 12.9765 7.44884 12.6251C7.09737 12.2736 7.09737 11.7038 7.44883 11.3523L8.7275 10.0736L7.44881 8.79493C7.09734 8.44346 7.09733 7.87361 7.4488 7.52215C7.80027 7.17068 8.37011 7.17068 8.72159 7.52216L10.0003 8.80085L11.2789 7.52218Z"  fill=""/>
</svg>
