<svg   viewBox="0 0 20 21" fill="none" xmlns="http://www.w3.org/2000/svg">
<path fill-rule="evenodd" clip-rule="evenodd" d="M2.8501 10.0738C2.8501 6.12499 6.05126 2.92383 10.0001 2.92383C13.9489 2.92383 17.1501 6.12499 17.1501 10.0738C17.1501 14.0227 13.9489 17.2238 10.0001 17.2238C6.05126 17.2238 2.8501 14.0227 2.8501 10.0738ZM13.6302 7.8274C13.287 7.46785 12.7173 7.4546 12.3578 7.79781L9.00694 10.9963L7.64228 9.69365C7.28274 9.35044 6.71304 9.36368 6.36983 9.72323C6.02663 10.0828 6.03987 10.6525 6.39942 10.9957L8.38551 12.8915C8.73329 13.2235 9.28058 13.2235 9.62837 12.8915L13.6006 9.09985C13.9602 8.75665 13.9734 8.18695 13.6302 7.8274Z"  fill=""/>
</svg>
