<svg   viewBox="0 0 20 21" fill="none" xmlns="http://www.w3.org/2000/svg">
<path fill-rule="evenodd" clip-rule="evenodd" d="M10.0001 4.22383C6.76923 4.22383 4.1501 6.84296 4.1501 10.0738C4.1501 13.3047 6.76923 15.9238 10.0001 15.9238C13.231 15.9238 15.8501 13.3047 15.8501 10.0738C15.8501 6.84296 13.231 4.22383 10.0001 4.22383ZM2.8501 10.0738C2.8501 6.12499 6.05126 2.92383 10.0001 2.92383C13.9489 2.92383 17.1501 6.12499 17.1501 10.0738C17.1501 14.0227 13.9489 17.2238 10.0001 17.2238C6.05126 17.2238 2.8501 14.0227 2.8501 10.0738Z"  fill=""/>
<path d="M14.5001 10.0738C14.5001 12.5591 12.4854 14.5738 10.0001 14.5738C7.51482 14.5738 5.5001 12.5591 5.5001 10.0738C5.5001 7.58855 7.51482 5.57383 10.0001 5.57383C12.4854 5.57383 14.5001 7.58855 14.5001 10.0738Z"  fill=""/>
</svg>
