<svg   viewBox="0 0 20 21" fill="none" xmlns="http://www.w3.org/2000/svg">
<path fill-rule="evenodd" clip-rule="evenodd" d="M10.0001 2.92383C6.05127 2.92383 2.8501 6.12495 2.8501 10.0737C2.8501 14.0225 6.05127 17.2236 10.0001 17.2236C13.949 17.2236 17.1501 14.0225 17.1501 10.0737C17.1501 6.12495 13.949 2.92383 10.0001 2.92383ZM10.0002 6.46577C9.50315 6.46577 9.1002 6.86871 9.1002 7.36576V9.17407H7.29186C6.7948 9.17407 6.39186 9.57701 6.39186 10.0741C6.39186 10.5711 6.7948 10.974 7.29186 10.974H9.1002V12.7824C9.1002 13.2794 9.50315 13.6823 10.0002 13.6823C10.4973 13.6823 10.9002 13.2794 10.9002 12.7824V10.974H12.7085C13.2056 10.974 13.6086 10.5711 13.6086 10.0741C13.6086 9.57701 13.2056 9.17407 12.7085 9.17407H10.9002V7.36576C10.9002 6.86871 10.4973 6.46577 10.0002 6.46577Z"  fill=""/>
</svg>
