<svg   viewBox="0 0 20 21" fill="none" xmlns="http://www.w3.org/2000/svg">
<path fill-rule="evenodd" clip-rule="evenodd" d="M10.0001 3.34961C6.05126 3.34961 2.8501 6.55077 2.8501 10.4996C2.8501 14.4484 6.05126 17.6496 10.0001 17.6496C13.9489 17.6496 17.1501 14.4484 17.1501 10.4996C17.1501 6.55077 13.9489 3.34961 10.0001 3.34961ZM9.1001 6.70762C9.1001 6.21056 9.50304 5.80762 10.0001 5.80762C10.4972 5.80762 10.9001 6.21056 10.9001 6.70762V9.59928H13.7918C14.2888 9.59928 14.6918 10.0022 14.6918 10.4993C14.6918 10.9963 14.2888 11.3993 13.7918 11.3993H10.0001C9.50304 11.3993 9.1001 10.9963 9.1001 10.4993V6.70762Z"  fill=""/>
</svg>
