<svg   viewBox="0 0 20 21" fill="none" xmlns="http://www.w3.org/2000/svg">
<path fill-rule="evenodd" clip-rule="evenodd" d="M11.649 4.37795C11.649 4.0746 11.8317 3.80113 12.112 3.68504C12.3922 3.56896 12.7148 3.63312 12.9293 3.84762L15.3283 6.24664C15.6212 6.53953 15.6212 7.01441 15.3283 7.3073L12.9293 9.70632C12.7148 9.92082 12.3922 9.98499 12.112 9.8689C11.8317 9.75282 11.649 9.47934 11.649 9.17599V7.77687H9.99995C7.90234 7.77687 6.2019 9.47732 6.2019 11.5749C6.2019 13.6725 7.90234 15.373 9.99995 15.373C12.0976 15.373 13.798 13.6725 13.798 11.5749C13.798 11.0226 14.2457 10.5749 14.798 10.5749C15.3503 10.5749 15.798 11.0226 15.798 11.5749C15.798 14.7771 13.2021 17.373 9.99995 17.373C6.79777 17.373 4.2019 14.7771 4.2019 11.5749C4.2019 8.37275 6.79777 5.77687 9.99995 5.77687H11.649V4.37795Z"  fill=""/>
</svg>
