<svg   viewBox="0 0 20 21" fill="none" xmlns="http://www.w3.org/2000/svg">
<path fill-rule="evenodd" clip-rule="evenodd" d="M8.35092 4.37795C8.35092 4.0746 8.16819 3.80113 7.88793 3.68504C7.60767 3.56896 7.28509 3.63312 7.07059 3.84762L4.67157 6.24664C4.37867 6.53953 4.37867 7.01441 4.67157 7.3073L7.07059 9.70632C7.28509 9.92082 7.60767 9.98499 7.88793 9.8689C8.16819 9.75282 8.35092 9.47934 8.35092 9.17599V7.77687H9.99994C12.0975 7.77687 13.798 9.47732 13.798 11.5749C13.798 13.6725 12.0975 15.373 9.99994 15.373C7.90234 15.373 6.2019 13.6725 6.2019 11.5749C6.2019 11.0226 5.75418 10.5749 5.2019 10.5749C4.64961 10.5749 4.2019 11.0226 4.2019 11.5749C4.2019 14.7771 6.79777 17.373 9.99994 17.373C13.2021 17.373 15.798 14.7771 15.798 11.5749C15.798 8.37275 13.2021 5.77687 9.99994 5.77687H8.35092V4.37795Z"  fill=""/>
</svg>
