<svg   viewBox="0 0 20 21" fill="none" xmlns="http://www.w3.org/2000/svg">
<path fill-rule="evenodd" clip-rule="evenodd" d="M8.00708 3.20527C5.22481 4.01117 3.14128 6.46178 2.87817 9.43544H6.14695C6.33932 7.24065 6.97572 5.1191 8.00708 3.20527ZM6.14695 10.7122H2.87817C3.14128 13.6859 5.22481 16.1365 8.00708 16.9424C6.97571 15.0286 6.33932 12.907 6.14695 10.7122ZM9.6448 17.2151C8.41294 15.2683 7.65044 13.0378 7.42906 10.7122H12.571C12.3497 13.0378 11.5872 15.2683 10.3553 17.2151C10.2376 17.2209 10.1192 17.2238 10.0001 17.2238C9.88094 17.2238 9.7625 17.2209 9.6448 17.2151ZM11.993 16.9424C14.7753 16.1365 16.8588 13.6859 17.122 10.7122H13.8531C13.6608 12.907 13.0244 15.0286 11.993 16.9424ZM13.8531 9.43544H17.122C16.8588 6.46177 14.7753 4.01115 11.993 3.20527C13.0244 5.11909 13.6608 7.24064 13.8531 9.43544ZM9.64481 2.9325C9.7625 2.92674 9.88095 2.92383 10.0001 2.92383C10.1192 2.92383 10.2376 2.92674 10.3553 2.9325C11.5872 4.87931 12.3496 7.10982 12.571 9.43544H7.42906C7.65044 7.10982 8.41294 4.87931 9.64481 2.9325Z"  fill=""/>
</svg>
