<svg   viewBox="0 0 20 21" fill="none" xmlns="http://www.w3.org/2000/svg">
<path fill-rule="evenodd" clip-rule="evenodd" d="M4.38224 2.92383C3.53606 2.92383 2.8501 3.60979 2.8501 4.45597V12.6274C2.8501 13.4736 3.53606 14.1595 4.38224 14.1595H12.5537C13.3998 14.1595 14.0858 13.4736 14.0858 12.6274V4.45597C14.0858 3.60979 13.3998 2.92383 12.5537 2.92383H4.38224ZM17.1501 7.2649C17.1501 6.84181 16.8071 6.49883 16.384 6.49883C15.961 6.49883 15.618 6.84181 15.618 7.2649V14.9256C15.618 15.3487 15.275 15.6917 14.8519 15.6917H7.19117C6.76808 15.6917 6.4251 16.0347 6.4251 16.4578C6.4251 16.8808 6.76808 17.2238 7.19117 17.2238H14.8519C16.1211 17.2238 17.1501 16.1948 17.1501 14.9256V7.2649Z"  fill=""/>
</svg>
