<svg   viewBox="0 0 20 21" fill="none" xmlns="http://www.w3.org/2000/svg">
<path fill-rule="evenodd" clip-rule="evenodd" d="M17.1499 14.671C17.1499 16.0813 16.0066 17.2246 14.5963 17.2246L5.40347 17.2246C3.99319 17.2246 2.8499 16.0813 2.8499 14.671L2.8499 5.47818C2.8499 4.06789 3.99319 2.92461 5.40348 2.92461L9.9999 2.92461C10.564 2.92461 11.0213 3.3819 11.0213 3.94604C11.0213 4.51017 10.564 4.96747 9.9999 4.96747L5.40347 4.96747C5.12146 4.96747 4.89276 5.19616 4.89276 5.47818L4.89276 14.671C4.89276 14.9531 5.12146 15.1818 5.40347 15.1818L14.5963 15.1818C14.8784 15.1818 15.107 14.9531 15.107 14.671L15.107 10.0746C15.107 9.51049 15.5644 9.05318 16.1285 9.05318C16.6926 9.05318 17.1499 9.51049 17.1499 10.0746L17.1499 14.671ZM12.5924 3.23992C12.6714 3.04902 12.8576 2.92461 13.0642 2.92461L16.6392 2.92461C16.9212 2.92461 17.1499 3.15331 17.1499 3.43532L17.1499 7.01032C17.1499 7.21689 17.0255 7.40311 16.8346 7.48216C16.6438 7.56121 16.4241 7.51751 16.2781 7.37145L15.2128 6.30625L10.7222 10.7969C10.3233 11.1958 9.67654 11.1958 9.27764 10.7969C8.87875 10.398 8.87875 9.75124 9.27764 9.35235L13.7683 4.86165L12.7031 3.7965C12.557 3.65044 12.5133 3.43073 12.5924 3.23992Z"  fill=""/>
</svg>
