<svg   viewBox="0 0 20 21" fill="none" xmlns="http://www.w3.org/2000/svg">
<path fill-rule="evenodd" clip-rule="evenodd" d="M16.4032 6.56954C15.9655 6.33401 15.4197 6.49792 15.1842 6.93564C14.93 7.40803 14.5994 7.84293 14.2057 8.22563C14.1713 8.2537 14.1386 8.28458 14.1081 8.3182C13.0679 9.28167 11.6192 9.88884 10.0008 9.88884C8.37722 9.88884 6.92451 9.27786 5.88365 8.30913C5.85846 8.28213 5.83189 8.25695 5.80412 8.23364C5.4068 7.849 5.07328 7.41132 4.81731 6.93563C4.58179 6.49792 4.03602 6.33401 3.59831 6.56954C3.16059 6.80507 2.99669 7.35084 3.23222 7.78855C3.43154 8.15897 3.66415 8.51004 3.92614 8.83856L2.12198 10.3506C1.74102 10.6698 1.69101 11.2375 2.01028 11.6185C2.32955 11.9994 2.8972 12.0494 3.27816 11.7301L5.22113 10.1018C5.7683 10.5182 6.37803 10.8638 7.03409 11.125L6.16851 13.3049C5.98507 13.7669 6.21087 14.2901 6.67284 14.4735C7.13481 14.657 7.65801 14.4312 7.84145 13.9692L8.7831 11.5977C9.18005 11.6577 9.58684 11.6888 10.0008 11.6888C10.4129 11.6888 10.8179 11.658 11.2132 11.5985L12.1545 13.9692C12.3379 14.4312 12.8611 14.657 13.3231 14.4735C13.7851 14.2901 14.0109 13.7669 13.8275 13.3049L12.9626 11.1269C13.6202 10.8656 14.2313 10.5196 14.7797 10.1024L16.722 11.7302C17.103 12.0494 17.6706 11.9994 17.9899 11.6184C18.3091 11.2375 18.2591 10.6698 17.8782 10.3506L16.0748 8.83926C16.337 8.51055 16.5698 8.15923 16.7693 7.78854C17.0048 7.35083 16.8409 6.80506 16.4032 6.56954Z"  fill=""/>
</svg>
