<svg   viewBox="0 0 20 21" fill="none" xmlns="http://www.w3.org/2000/svg">
<path fill-rule="evenodd" clip-rule="evenodd" d="M2 10.5C2 10.8404 2.1132 11.1686 2.3177 11.4213C3.61247 12.975 6.55962 16 10 16C13.4404 16 16.3876 12.975 17.6824 11.4213C17.8868 11.1686 18 10.8404 18 10.5C18 10.1597 17.8868 9.83142 17.6824 9.57876C16.3876 8.025 13.4404 5 10 5C6.55962 5 3.61247 8.025 2.3177 9.57876C2.1132 9.83142 2 10.1597 2 10.5ZM10 13C11.3807 13 12.5 11.8807 12.5 10.5C12.5 9.11929 11.3807 8 10 8C8.61929 8 7.5 9.11929 7.5 10.5C7.5 11.8807 8.61929 13 10 13Z"  fill=""/>
</svg>
