<svg   viewBox="0 0 20 21" fill="none" xmlns="http://www.w3.org/2000/svg">
<path fill-rule="evenodd" clip-rule="evenodd" d="M13.0184 3.92411H14.2501C14.6877 3.92411 15.1074 4.09793 15.4169 4.40741C15.7262 4.71678 15.9001 5.13643 15.9001 5.57411V15.5741C15.9001 16.0117 15.7262 16.4314 15.4168 16.7408C15.1074 17.0502 14.6877 17.2241 14.2501 17.2241H5.7501C5.31242 17.2241 4.89279 17.0502 4.58342 16.7409C4.27393 16.4314 4.1001 16.0117 4.1001 15.5741V5.57411C4.1001 5.13649 4.27397 4.71679 4.58338 4.40737C4.89281 4.09795 5.31248 3.92411 5.7501 3.92411H6.98406C7.2363 3.33587 7.82064 2.92383 8.50121 2.92383H11.5012C12.1818 2.92383 12.7661 3.33587 13.0184 3.92411ZM8.15121 4.57383C8.15121 4.38053 8.30792 4.22383 8.50121 4.22383H11.5012C11.6945 4.22383 11.8512 4.38053 11.8512 4.57383V5.07383C11.8512 5.26712 11.6945 5.42383 11.5012 5.42383H8.50121C8.30792 5.42383 8.15121 5.26712 8.15121 5.07383V4.57383ZM12.6396 8.53657C12.9268 8.75196 12.985 9.15938 12.7696 9.44657L9.76961 13.4466C9.56262 13.7225 9.17609 13.7888 8.88905 13.5974L7.38905 12.5974C7.09036 12.3983 7.00965 11.9947 7.20878 11.696C7.40791 11.3973 7.81147 11.3166 8.11016 11.5157L9.09854 12.1747L11.7296 8.66657C11.945 8.37938 12.3524 8.32118 12.6396 8.53657Z"  fill=""/>
</svg>
