<svg   viewBox="0 0 20 21" fill="none" xmlns="http://www.w3.org/2000/svg">
<path fill-rule="evenodd" clip-rule="evenodd" d="M3.39701 3.49185C3.59242 3.36461 3.8206 3.29688 4.05379 3.29688H15.9464C16.1796 3.29688 16.4078 3.36461 16.6032 3.49185C16.7986 3.61909 16.9529 3.80035 17.0472 4.01361C17.1415 4.22687 17.1719 4.46293 17.1346 4.69312C17.0973 4.92331 16.9939 5.13771 16.8371 5.31025L12.3112 10.2887V14.1706C12.3112 14.3688 12.2622 14.5639 12.1687 14.7386C12.0752 14.9133 11.94 15.0622 11.7752 15.1722L9.56041 16.6487C9.37913 16.7695 9.16845 16.8389 8.95084 16.8494C8.73323 16.8599 8.51684 16.8112 8.32475 16.7084C8.13266 16.6056 7.97208 16.4526 7.86012 16.2657C7.74816 16.0788 7.68903 15.865 7.68903 15.6471V10.2887L3.16313 5.31025C3.00627 5.1377 2.9029 4.92331 2.8656 4.69312C2.8283 4.46293 2.85866 4.22686 2.953 4.01361C3.04733 3.80035 3.20159 3.61909 3.39701 3.49185Z"  fill=""/>
</svg>
