<svg   viewBox="0 0 20 21" fill="none" xmlns="http://www.w3.org/2000/svg">
<path fill-rule="evenodd" clip-rule="evenodd" d="M9.16139 3.877C9.71641 3.97792 10.0845 4.50966 9.98362 5.06468L9.55256 7.43553H11.5619L12.0594 4.69924C12.1603 4.14422 12.6921 3.77609 13.2471 3.877C13.8021 3.97792 14.1702 4.50966 14.0693 5.06468L13.6383 7.43553H16.1287C16.6928 7.43553 17.1501 7.89284 17.1501 8.45696C17.1501 9.02108 16.6928 9.47839 16.1287 9.47839H13.2668L12.8954 11.5212H15.3858C15.9499 11.5212 16.4072 11.9786 16.4072 12.5427C16.4072 13.1068 15.9499 13.5641 15.3858 13.5641H12.524L12.0265 16.3004C11.9256 16.8554 11.3938 17.2235 10.8388 17.1226C10.2838 17.0217 9.91566 16.49 10.0166 15.935L10.4476 13.5641H8.43827L7.94076 16.3004C7.83985 16.8554 7.30811 17.2235 6.75309 17.1226C6.19807 17.0217 5.82995 16.49 5.93086 15.935L6.36192 13.5641H3.87153C3.30741 13.5641 2.8501 13.1068 2.8501 12.5427C2.8501 11.9786 3.30741 11.5212 3.87153 11.5212H6.73335L7.10478 9.47839H4.61438C4.05026 9.47839 3.59295 9.02108 3.59295 8.45696C3.59295 7.89284 4.05026 7.43553 4.61438 7.43553H7.47621L7.97372 4.69924C8.07463 4.14422 8.60637 3.77609 9.16139 3.877ZM9.18113 9.47839L8.8097 11.5212H10.8191L11.1905 9.47839H9.18113Z"  fill=""/>
</svg>
