<svg   viewBox="0 0 20 21" fill="none" xmlns="http://www.w3.org/2000/svg">
<path fill-rule="evenodd" clip-rule="evenodd" d="M10.0001 17.6496C13.9489 17.6496 17.1501 14.4485 17.1501 10.4996C17.1501 6.55078 13.9489 3.34961 10.0001 3.34961C6.05127 3.34961 2.8501 6.55078 2.8501 10.4996C2.8501 14.4485 6.05127 17.6496 10.0001 17.6496ZM8.46795 12.9255C8.11538 12.9255 7.82956 13.2113 7.82956 13.5639C7.82956 13.9165 8.11538 14.2023 8.46795 14.2023H10.0001H11.5322C11.8848 14.2023 12.1706 13.9165 12.1706 13.5639C12.1706 13.2113 11.8848 12.9255 11.5322 12.9255H10.6385V9.9889C10.6385 9.63632 10.3527 9.3505 10.0001 9.3505H8.97867C8.62609 9.3505 8.34028 9.63632 8.34028 9.9889C8.34028 10.3415 8.62609 10.6273 8.97867 10.6273H9.3617V12.9255H8.46795ZM11.0215 7.43532C11.0215 7.99944 10.5642 8.45675 10.0001 8.45675C9.43598 8.45675 8.97867 7.99944 8.97867 7.43532C8.97867 6.87121 9.43598 6.4139 10.0001 6.4139C10.5642 6.4139 11.0215 6.87121 11.0215 7.43532Z"  fill=""/>
</svg>
