<svg   viewBox="0 0 20 21" fill="none" xmlns="http://www.w3.org/2000/svg">
<path fill-rule="evenodd" clip-rule="evenodd" d="M13.1547 3.09961C12.0288 3.09951 10.9489 3.54664 10.1526 4.34264L8.18097 6.31425C7.8295 6.66572 7.8295 7.23556 8.18097 7.58703C8.53244 7.93849 9.10229 7.9385 9.45377 7.58703L11.4253 5.61553C11.884 5.15706 12.506 4.89953 13.1546 4.89959C13.8031 4.89964 14.4252 5.15731 14.8838 5.61593C15.3424 6.07455 15.6001 6.69655 15.6001 7.34514C15.6002 7.99366 15.3426 8.61578 14.8841 9.07447L12.9127 11.0459C12.5612 11.3973 12.5612 11.9672 12.9127 12.3186C13.2641 12.6701 13.834 12.6701 14.1854 12.3186L16.1571 10.347C16.9531 9.55074 17.4002 8.4709 17.4001 7.34498C17.4001 6.21907 16.9527 5.1393 16.1566 4.34316C15.3604 3.54702 14.2806 3.09971 13.1547 3.09961ZM7.08759 8.68039C6.73612 8.32893 6.16627 8.32893 5.8148 8.68039L3.84315 10.652C3.04713 11.4483 2.6 12.5281 2.6001 13.654C2.60019 14.78 3.04751 15.8597 3.84367 16.6559C4.63982 17.452 5.71961 17.8993 6.84554 17.8994C7.97148 17.8995 9.05145 17.4523 9.84774 16.6563L11.8193 14.6848C12.1707 14.3333 12.1707 13.7635 11.8193 13.412C11.4678 13.0605 10.8979 13.0605 10.5465 13.412L8.57494 15.3835C8.11625 15.842 7.49424 16.0995 6.8457 16.0994C6.1971 16.0994 5.57509 15.8417 5.11646 15.3831C4.65784 14.9245 4.40016 14.3025 4.4001 13.6539C4.40005 13.0054 4.65769 12.3832 5.11617 11.9246L7.08759 9.95317C7.43906 9.6017 7.43906 9.03186 7.08759 8.68039Z"  fill=""/>
</svg>
