<svg    viewBox="0 0 20 20" fill="none" xmlns="http://www.w3.org/2000/svg">
<path fill-rule="evenodd" clip-rule="evenodd" d="M9.62698 17.0318C9.62698 17.0318 9.62735 17.0321 10.0001 16.4996L9.62698 17.0318ZM10.0001 16.4996L10.3728 17.0321C10.149 17.1888 9.85078 17.1885 9.62698 17.0318L9.62517 17.0306L9.62118 17.0278L9.60787 17.0183C9.59666 17.0103 9.58083 16.9989 9.5607 16.9842C9.52043 16.9548 9.46289 16.9122 9.39055 16.8569C9.24592 16.7463 9.04176 16.585 8.79788 16.3777C8.31102 15.9639 7.66115 15.3629 7.0096 14.6136C5.7224 13.1333 4.3501 10.9836 4.3501 8.49961C4.3501 7.00114 4.94536 5.56404 6.00494 4.50446C7.06453 3.44488 8.50162 2.84961 10.0001 2.84961C11.4986 2.84961 12.9357 3.44488 13.9953 4.50446C15.0548 5.56404 15.6501 7.00114 15.6501 8.49961C15.6501 10.9836 14.2778 13.1333 12.9906 14.6136C12.339 15.3629 11.6892 15.9639 11.2023 16.3777C10.9584 16.585 10.7543 16.7463 10.6096 16.8569C10.5373 16.9122 10.4798 16.9548 10.4395 16.9842C10.4194 16.9989 10.4035 17.0103 10.3923 17.0183L10.379 17.0278L10.375 17.0306L10.3737 17.0315C10.3737 17.0315 10.3728 17.0321 10.0001 16.4996ZM7.3501 8.49961C7.3501 7.03605 8.53654 5.84961 10.0001 5.84961C11.4637 5.84961 12.6501 7.03605 12.6501 8.49961C12.6501 9.96316 11.4637 11.1496 10.0001 11.1496C8.53654 11.1496 7.3501 9.96316 7.3501 8.49961Z"  fill=""/>
</svg>
