<svg   viewBox="0 0 20 21" fill="none" xmlns="http://www.w3.org/2000/svg">
<path fill-rule="evenodd" clip-rule="evenodd" d="M10.0001 4.22383C9.5519 4.22383 9.12205 4.40188 8.80511 4.71882C8.48817 5.03575 8.31012 5.46561 8.31012 5.91383V7.60383H15.2001C15.8463 7.60383 16.3701 8.12766 16.3701 8.77383V16.0538C16.3701 16.7 15.8463 17.2238 15.2001 17.2238H4.80013C4.15395 17.2238 3.63013 16.7 3.63013 16.0538V8.77383C3.63013 8.12766 4.15395 7.60383 4.80013 7.60383H7.01012V5.91383C7.01012 5.12083 7.32514 4.36031 7.88587 3.79958C8.4466 3.23885 9.20712 2.92383 10.0001 2.92383C10.7931 2.92383 11.5536 3.23885 12.1144 3.79958C12.6751 4.36031 12.9901 5.12083 12.9901 5.91383C12.9901 6.27281 12.6991 6.56383 12.3401 6.56383C11.9811 6.56383 11.6901 6.27281 11.6901 5.91383C11.6901 5.46561 11.5121 5.03575 11.1951 4.71882C10.8782 4.40188 10.4483 4.22383 10.0001 4.22383ZM8.05012 11.6338C8.05012 10.5569 8.92316 9.68383 10.0001 9.68383C11.0771 9.68383 11.9501 10.5569 11.9501 11.6338C11.9501 12.4829 11.4075 13.2052 10.6501 13.4729V14.4938C10.6501 14.8528 10.3591 15.1438 10.0001 15.1438C9.64113 15.1438 9.35012 14.8528 9.35012 14.4938V13.4729C8.59274 13.2052 8.05012 12.4829 8.05012 11.6338Z"  fill=""/>
</svg>
