<svg   viewBox="0 0 20 21" fill="none" xmlns="http://www.w3.org/2000/svg">
<path fill-rule="evenodd" clip-rule="evenodd" d="M2.8501 4.45597C2.8501 3.60979 3.53606 2.92383 4.38224 2.92383H11.5322C12.3784 2.92383 13.0644 3.60979 13.0644 4.45597V6.43614C12.6531 6.76544 12.381 7.24501 12.3143 7.77559H8.72331C7.45404 7.77559 6.4251 8.80453 6.4251 10.0738C6.4251 11.3431 7.45404 12.372 8.72331 12.372H12.3143C12.381 12.9026 12.6531 13.3822 13.0644 13.7115V15.6917C13.0644 16.5378 12.3784 17.2238 11.5322 17.2238H4.38224C3.53606 17.2238 2.8501 16.5378 2.8501 15.6917V4.45597ZM14.048 7.32323C13.7617 7.44181 13.5751 7.72115 13.5751 8.03099V9.05242H8.72331C8.1592 9.05242 7.70188 9.50973 7.70188 10.0738C7.70188 10.638 8.1592 11.0953 8.72331 11.0953H13.5751V12.1167C13.5751 12.4266 13.7617 12.7059 14.048 12.8245C14.3342 12.943 14.6637 12.8775 14.8828 12.6584L16.9257 10.6155C17.2249 10.3164 17.2249 9.83132 16.9257 9.53215L14.8828 7.4893C14.6637 7.2702 14.3342 7.20467 14.048 7.32323Z"  fill=""/>
</svg>
