<svg   viewBox="0 0 20 21" fill="none" xmlns="http://www.w3.org/2000/svg">
<path fill-rule="evenodd" clip-rule="evenodd" d="M2.8501 6.1591C2.8501 5.31291 3.53606 4.62695 4.38224 4.62695H15.618C16.4641 4.62695 17.1501 5.31291 17.1501 6.1591L10.3917 10.6655C10.2964 10.7268 10.158 10.7705 10.0001 10.7705C9.84215 10.7705 9.70379 10.7268 9.60847 10.6655L2.8501 6.1591ZM2.8501 8.04297V14.8412C2.8501 15.6874 3.53606 16.3734 4.38224 16.3734H15.618C16.4641 16.3734 17.1501 15.6874 17.1501 14.8412V8.04296L11.0965 12.0794L11.0906 12.0833C10.7692 12.2925 10.3833 12.3966 10.0001 12.3966C9.61692 12.3966 9.23098 12.2925 8.90959 12.0833L8.90367 12.0794L2.8501 8.04297Z"  fill=""/>
</svg>
