<svg   viewBox="0 0 20 21" fill="none" xmlns="http://www.w3.org/2000/svg">
<path fill-rule="evenodd" clip-rule="evenodd" d="M10.6409 10.4661C10.6399 10.4482 10.6394 10.4302 10.6394 10.412V6.76418C10.2917 6.71845 9.82411 6.63574 9.27556 6.48628C8.036 6.14857 6.38961 5.47205 4.77291 4.11627C4.60254 3.97301 4.39483 3.88133 4.17416 3.852C3.95331 3.82264 3.72867 3.85696 3.52665 3.95091C3.32464 4.04486 3.15365 4.19454 3.0338 4.38235C2.91395 4.57015 2.85021 4.78862 2.8501 5.01141V15.1298C2.85021 15.3526 2.91395 15.5708 3.0338 15.7586C3.15365 15.9464 3.32464 16.0961 3.52665 16.19C3.72867 16.284 3.95331 16.3183 4.17416 16.2889C4.39464 16.2596 4.60219 16.1681 4.77248 16.025C6.38932 14.669 8.03589 13.9924 9.27556 13.6546C9.82487 13.505 10.2929 13.4222 10.6409 13.3765V10.4661Z"  fill=""/>
<path d="M10.6501 15.5121C10.6501 15.7047 10.6977 15.8943 10.7886 16.0642C10.8795 16.234 11.0109 16.3787 11.1711 16.4856L11.8856 16.9619C12.0416 17.0659 12.2203 17.1309 12.4067 17.1514C12.5931 17.1719 12.7816 17.1473 12.9565 17.0797C13.1314 17.0121 13.2875 16.9034 13.4116 16.7629C13.5357 16.6224 13.6242 16.4541 13.6697 16.2722L14.418 13.2789C15.088 13.1708 15.7122 12.8546 16.1982 12.3685C16.8077 11.759 17.1501 10.9324 17.1501 10.0705C17.1501 9.20851 16.8077 8.38187 16.1982 7.77239C15.5887 7.1629 14.7621 6.82049 13.9001 6.82049H12.6409V13.8652C12.6409 14.4175 12.1932 14.8652 11.6409 14.8652C11.3142 14.8549 10.6587 14.9698 10.6501 15.5121Z"  fill=""/>
</svg>
