<svg   viewBox="0 0 20 21" fill="none" xmlns="http://www.w3.org/2000/svg">
<path fill-rule="evenodd" clip-rule="evenodd" d="M12.4324 3.3276C12.7958 3.17708 13.1853 3.09961 13.5786 3.09961C13.9719 3.09961 14.3614 3.17708 14.7248 3.3276C15.0882 3.47812 15.4184 3.69875 15.6965 3.97687C15.9746 4.255 16.1953 4.58519 16.3458 4.94858C16.4963 5.31197 16.5738 5.70145 16.5738 6.09478C16.5738 6.48811 16.4963 6.87759 16.3458 7.24098C16.1957 7.60343 15.9758 7.93285 15.6987 8.21053L8.86188 15.1426C8.50669 15.4977 8.02493 15.6973 7.52261 15.6973C7.02028 15.6973 6.53854 15.4977 6.18334 15.1425C5.82815 14.7873 5.6286 14.3056 5.6286 13.8033C5.6286 13.3022 5.82716 12.8216 6.18071 12.4666L11.9122 6.63996C12.2193 6.3278 12.7213 6.32366 13.0334 6.63073C13.3456 6.93779 13.3497 7.43977 13.0427 7.75193L7.30461 13.5853C7.24678 13.6431 7.21428 13.7215 7.21428 13.8033C7.21428 13.885 7.24676 13.9635 7.30459 14.0213C7.36241 14.0791 7.44083 14.1116 7.52261 14.1116C7.60376 14.1116 7.68161 14.0796 7.7393 14.0226L14.5753 7.09143C14.7061 6.96055 14.81 6.80518 14.8808 6.63417C14.9516 6.46316 14.9881 6.27988 14.9881 6.09478C14.9881 5.90968 14.9516 5.7264 14.8808 5.55539C14.81 5.38438 14.7062 5.229 14.5753 5.09812C14.4444 4.96723 14.289 4.86341 14.118 4.79258C13.947 4.72175 13.7637 4.68529 13.5786 4.68529C13.3935 4.68529 13.2102 4.72175 13.0392 4.79258C12.869 4.8631 12.7142 4.96633 12.5837 5.09641L5.74732 12.028C5.27648 12.4988 5.01195 13.1374 5.01195 13.8033C5.01195 14.4691 5.27646 15.1077 5.7473 15.5786C6.21814 16.0494 6.85674 16.3139 7.52261 16.3139C8.18847 16.3139 8.82707 16.0494 9.29791 15.5786L14.9454 9.93846C15.2552 9.62903 15.7572 9.62936 16.0666 9.93919C16.3761 10.249 16.3757 10.751 16.0659 11.0604L10.4192 16.6998C9.65094 17.468 8.60902 17.8996 7.52261 17.8996C6.43619 17.8996 5.39427 17.468 4.62606 16.6998C3.85785 15.9316 3.42627 14.8897 3.42627 13.8033C3.42627 12.7178 3.85707 11.6768 4.62399 10.9088L11.4607 3.97686C11.7388 3.69873 12.069 3.47812 12.4324 3.3276Z"  fill=""/>
</svg>
