<svg   viewBox="0 0 20 21" fill="none" xmlns="http://www.w3.org/2000/svg">
<path fill-rule="evenodd" clip-rule="evenodd" d="M16.7911 8.23111C17.021 8.00127 17.1501 7.68954 17.1501 7.3645C17.1501 7.03945 17.021 6.72772 16.7911 6.49788L13.576 3.28279C13.3462 3.05295 13.0345 2.92383 12.7094 2.92383C12.3844 2.92383 12.0727 3.05295 11.8428 3.28279L9.94769 5.17791L3.20906 11.9165C3.09526 12.0303 3.00498 12.1655 2.94339 12.3141L2.93393 12.3377C2.92992 12.3476 2.92617 12.3576 2.92268 12.3677C2.8747 12.5008 2.8501 12.6414 2.8501 12.7832V15.9982C2.8501 16.3233 2.97922 16.635 3.20906 16.8649C3.43891 17.0947 3.75064 17.2238 4.07568 17.2238H7.29077C7.45171 17.2238 7.61108 17.1921 7.75978 17.1305C7.90847 17.0689 8.04358 16.9787 8.15738 16.8649L16.7911 8.23111Z"  fill=""/>
</svg>
