<svg   viewBox="0 0 20 21" fill="none" xmlns="http://www.w3.org/2000/svg">
<path fill-rule="evenodd" clip-rule="evenodd" d="M7.82236 10.3093L8.97362 8.55021C9.08344 8.3824 9.15007 8.19004 9.16756 7.99025C9.18504 7.79045 9.15285 7.58944 9.07385 7.4051L7.65273 4.08916L7.65226 4.08805C7.54925 3.84623 7.37055 3.64435 7.143 3.51275C6.9151 3.38094 6.65053 3.32678 6.38917 3.35841L6.38486 3.35894C5.40815 3.48376 4.51042 3.96032 3.85976 4.69937C3.20911 5.43843 2.85015 6.38931 2.8501 7.37397C2.8501 10.0992 3.9327 12.7129 5.85975 14.64C7.7868 16.567 10.4004 17.6496 13.1257 17.6496C14.1104 17.6496 15.0613 17.2906 15.8003 16.6399C16.5394 15.9893 17.0159 15.0916 17.1408 14.1148L17.1413 14.1105C17.1729 13.8492 17.1188 13.5846 16.987 13.3567C16.8553 13.1291 16.6534 12.9504 16.4115 12.8474L16.4105 12.847L13.0975 11.4271C12.9115 11.3474 12.7086 11.3153 12.5071 11.3339C12.3057 11.3524 12.112 11.4208 11.9437 11.5331L10.2117 12.688C9.17847 12.1751 8.33984 11.3402 7.82236 10.3093Z"  fill=""/>
</svg>
