<svg    viewBox="0 0 20 20" fill="none" xmlns="http://www.w3.org/2000/svg">
<path fill-rule="evenodd" clip-rule="evenodd" d="M17 15.5C17 16.3284 16.3284 17 15.5 17H4.5C3.67157 17 3 16.3284 3 15.5V4.5C3 3.67157 3.67157 3 4.5 3H15.5C16.3284 3 17 3.67157 17 4.5V15.5ZM6.75 5C5.7835 5 5 5.7835 5 6.75C5 7.7165 5.7835 8.5 6.75 8.5C7.7165 8.5 8.5 7.7165 8.5 6.75C8.5 5.7835 7.7165 5 6.75 5ZM11.401 9.59901L5.5 15.5H15.5V11.5L12.6893 9.49238C12.2915 9.20825 11.7466 9.25335 11.401 9.59901Z"  fill=""/>
</svg>
