<svg   viewBox="0 0 20 21" fill="none" xmlns="http://www.w3.org/2000/svg">
<path fill-rule="evenodd" clip-rule="evenodd" d="M6.19254 1.97011C5.91391 1.66362 5.43958 1.64103 5.13308 1.91966C4.82659 2.19829 4.804 2.67263 5.08263 2.97912L15.4826 14.4191C15.7613 14.7256 16.2356 14.7482 16.5421 14.4696C16.8486 14.1909 16.8712 13.7166 16.5925 13.4101L14.5661 11.181L13.6769 5.42285H14.1177C14.5319 5.42285 14.8677 5.08707 14.8677 4.67285C14.8677 4.25864 14.5319 3.92285 14.1177 3.92285H7.96776L6.19254 1.97011ZM13.3318 14.2645L5.86138 6.01162L4.39134 12.7645H3.9624C3.54819 12.7645 3.2124 13.1003 3.2124 13.5145C3.2124 13.9287 3.54819 14.2645 3.9624 14.2645H8.9324V17.6745C8.9324 18.0887 9.26819 18.4245 9.6824 18.4245C10.0966 18.4245 10.4324 18.0887 10.4324 17.6745V14.2645H13.3318Z"  fill=""/>
</svg>
