<svg   viewBox="0 0 20 21" fill="none" xmlns="http://www.w3.org/2000/svg">
<path fill-rule="evenodd" clip-rule="evenodd" d="M6.86788 2.9503H5.84001C5.49538 2.9503 5.21601 3.22967 5.21601 3.5743C5.21601 3.91893 5.49538 4.1983 5.84001 4.1983H6.13625L4.79648 11.7903H4.28001C3.93538 11.7903 3.65601 12.0697 3.65601 12.4143C3.65601 12.7589 3.93538 13.0383 4.28001 13.0383H5.30933C5.31695 13.0384 5.32456 13.0384 5.33214 13.0383H9.37601V16.5743C9.37601 16.9189 9.65538 17.1983 10 17.1983C10.3446 17.1983 10.624 16.9189 10.624 16.5743V13.0383H14.6679C14.6755 13.0384 14.6831 13.0384 14.6907 13.0383H15.72C16.0646 13.0383 16.344 12.7589 16.344 12.4143C16.344 12.0697 16.0646 11.7903 15.72 11.7903H15.2035L13.8638 4.1983H14.16C14.5046 4.1983 14.784 3.91893 14.784 3.5743C14.784 3.22967 14.5046 2.9503 14.16 2.9503H13.1321C13.1246 2.95016 13.117 2.95016 13.1093 2.9503H6.89067C6.88305 2.95016 6.87546 2.95016 6.86788 2.9503Z"  fill=""/>
</svg>
