<svg   viewBox="0 0 20 21" fill="none" xmlns="http://www.w3.org/2000/svg">
<path fill-rule="evenodd" clip-rule="evenodd" d="M2.8501 10.4995C2.8501 6.55073 6.05127 3.34961 10.0001 3.34961C13.949 3.34961 17.1501 6.55073 17.1501 10.4995C17.1501 14.4483 13.949 17.6494 10.0001 17.6494C6.05128 17.6494 2.8501 14.4483 2.8501 10.4995ZM8.98727 6.16351C9.47169 5.96305 10.0047 5.91062 10.5189 6.0128C11.0331 6.11498 11.5055 6.36723 11.8764 6.73779C12.2473 7.10834 12.5 7.58054 12.6023 8.09472C12.7047 8.6089 12.6522 9.1419 12.4514 9.62624C12.2506 10.1105 11.9106 10.5244 11.4746 10.8154C11.2951 10.9353 11.1026 11.0321 10.9017 11.1045V11.5285C10.9017 12.0255 10.4988 12.4285 10.0017 12.4285C9.50466 12.4285 9.10171 12.0255 9.10171 11.5285V10.3618C9.10171 9.86479 9.50466 9.46185 10.0017 9.46185C10.1703 9.46185 10.3351 9.41189 10.4752 9.31839C10.6152 9.22489 10.7243 9.09208 10.7886 8.93687C10.8529 8.78169 10.8698 8.61094 10.837 8.4462C10.8042 8.28148 10.7232 8.13005 10.6042 8.01114C10.4851 7.8922 10.3334 7.81112 10.168 7.77826C10.0027 7.7454 9.83128 7.76227 9.67558 7.8267C9.51986 7.89115 9.38689 8.00022 9.29344 8.13996C9.19996 8.27972 9.15012 8.44395 9.15012 8.61188C9.15012 9.10893 8.74718 9.51187 8.25012 9.51187C7.75307 9.51187 7.35012 9.10893 7.35012 8.61188C7.35012 8.08757 7.50574 7.57512 7.79721 7.13932C8.08867 6.70351 8.50288 6.36398 8.98727 6.16351ZM10.0001 12.9652C9.36508 12.9652 8.85012 13.48 8.85012 14.1152C8.85012 14.7504 9.36508 15.2652 10.0001 15.2652C10.6352 15.2652 11.1501 14.7504 11.1501 14.1152C11.1501 13.48 10.6352 12.9652 10.0001 12.9652Z"  fill=""/>
</svg>
