<svg    viewBox="0 0 20 20" fill="none" xmlns="http://www.w3.org/2000/svg">
<path fill-rule="evenodd" clip-rule="evenodd" d="M4.19995 3.9502C4.06188 3.9502 3.94995 4.06212 3.94995 4.2002V6.6002C3.94995 7.01441 3.61416 7.3502 3.19995 7.3502C2.78574 7.3502 2.44995 7.01441 2.44995 6.6002V4.2002C2.44995 3.2337 3.23345 2.4502 4.19995 2.4502H6.59995C7.01416 2.4502 7.34995 2.78598 7.34995 3.2002C7.34995 3.61441 7.01416 3.9502 6.59995 3.9502H4.19995ZM12.65 3.2002C12.65 2.78598 12.9857 2.4502 13.4 2.4502H15.8C16.7664 2.4502 17.55 3.2337 17.55 4.20019V6.6002C17.55 7.01441 17.2142 7.3502 16.8 7.3502C16.3857 7.3502 16.05 7.01441 16.05 6.6002V4.20019C16.05 4.06212 15.938 3.9502 15.8 3.9502H13.4C12.9857 3.9502 12.65 3.61441 12.65 3.2002ZM3.19995 12.6502C3.61416 12.6502 3.94995 12.986 3.94995 13.4002V15.8002C3.94995 15.9383 4.06188 16.0502 4.19995 16.0502H6.59995C7.01416 16.0502 7.34995 16.386 7.34995 16.8002C7.34995 17.2144 7.01416 17.5502 6.59995 17.5502H4.19995C3.23345 17.5502 2.44995 16.7667 2.44995 15.8002V13.4002C2.44995 12.986 2.78574 12.6502 3.19995 12.6502ZM16.8 12.6502C17.2142 12.6502 17.55 12.986 17.55 13.4002V15.8002C17.55 16.7667 16.7665 17.5502 15.8 17.5502H13.4C12.9857 17.5502 12.65 17.2144 12.65 16.8002C12.65 16.386 12.9857 16.0502 13.4 16.0502H15.8C15.938 16.0502 16.05 15.9383 16.05 15.8002V13.4002C16.05 12.986 16.3857 12.6502 16.8 12.6502Z"  fill=""/>
<path fill-rule="evenodd" clip-rule="evenodd" d="M6.24995 5.6252H13.75C13.9157 5.6252 14.0747 5.69105 14.1919 5.80826C14.3091 5.92547 14.375 6.08444 14.375 6.2502V13.7502C14.375 13.916 14.3091 14.0749 14.1919 14.1921C14.0747 14.3094 13.9157 14.3752 13.75 14.3752H6.24995C6.08419 14.3752 5.92522 14.3094 5.80801 14.1921C5.6908 14.0749 5.62495 13.916 5.62495 13.7502V6.2502C5.62495 6.08444 5.6908 5.92547 5.80801 5.80826C5.92522 5.69105 6.08419 5.6252 6.24995 5.6252Z"  fill=""/>
</svg>
