<svg   viewBox="0 0 20 21" fill="none" xmlns="http://www.w3.org/2000/svg">
<path fill-rule="evenodd" clip-rule="evenodd" d="M4.89293 9.4781C4.89293 7.22165 6.72214 5.39244 8.97859 5.39244C11.235 5.39244 13.0643 7.22165 13.0643 9.4781C13.0643 11.7346 11.235 13.5638 8.97859 13.5638C6.72214 13.5638 4.89293 11.7346 4.89293 9.4781ZM8.97859 3.34961C5.59392 3.34961 2.8501 6.09343 2.8501 9.4781C2.8501 12.8628 5.59392 15.6066 8.97859 15.6066C10.3021 15.6066 11.5277 15.187 12.5295 14.4736L15.4063 17.3505C15.8051 17.7493 16.4519 17.7493 16.8507 17.3505C17.2496 16.9516 17.2496 16.3048 16.8507 15.906L13.974 13.0292C14.6875 12.0274 15.1071 10.8017 15.1071 9.4781C15.1071 6.09343 12.3633 3.34961 8.97859 3.34961Z"  fill=""/>
</svg>
