<svg   viewBox="0 0 20 21" fill="none" xmlns="http://www.w3.org/2000/svg">
<path fill-rule="evenodd" clip-rule="evenodd" d="M16.28 3.38732C16.0798 3.33508 15.8692 3.33715 15.6701 3.39332L3.69813 6.77003C3.47005 6.83436 3.26704 6.96677 3.11623 7.14957C2.96542 7.33236 2.874 7.55684 2.85418 7.79298C2.83436 8.02913 2.88709 8.2657 3.00532 8.47108C3.12355 8.67646 3.30165 8.84086 3.51582 8.9423L8.01293 11.0725L11.3354 7.75008C11.7259 7.35955 12.3591 7.35955 12.7496 7.75008C13.1401 8.1406 13.1401 8.77377 12.7496 9.16429L9.42716 12.4867L11.5574 16.9839C11.6589 17.1981 11.8233 17.3762 12.0286 17.4944C12.234 17.6126 12.4706 17.6653 12.7067 17.6455C12.9429 17.6257 13.1673 17.5343 13.3501 17.3835C13.5329 17.2327 13.6653 17.0297 13.7297 16.8016L17.1064 4.82961C17.1626 4.63047 17.1646 4.41995 17.1124 4.21973C17.0601 4.01952 16.9555 3.83685 16.8092 3.69054C16.6629 3.54423 16.4802 3.43956 16.28 3.38732Z"  fill=""/>
</svg>
