<svg   viewBox="0 0 20 21" fill="none" xmlns="http://www.w3.org/2000/svg">
<path fill-rule="evenodd" clip-rule="evenodd" d="M8.55704 3.88257C8.24705 3.68655 7.88317 3.67077 7.57645 3.77746L7.57038 3.77961C6.7624 4.06965 6.03438 4.50333 5.39943 5.03587L5.39844 5.0367C5.12614 5.26601 4.98608 5.59501 4.98608 5.92722L5.00804 7.35995C4.92547 7.48998 4.84812 7.62316 4.77622 7.76037L3.53506 8.4493L3.52802 8.45326C3.24415 8.61547 3.02181 8.89822 2.96057 9.25481C2.8096 10.0879 2.81711 10.9375 2.96023 11.7502C3.02099 12.1078 3.24363 12.3912 3.52802 12.5538L4.77622 13.2466C4.84812 13.3839 4.92547 13.517 5.00804 13.6471L4.98626 15.0631C4.97493 15.4144 5.13159 15.7518 5.3922 15.9703C6.045 16.52 6.78049 16.9393 7.56377 17.221L7.57021 17.2233C7.90345 17.3392 8.25436 17.2916 8.53702 17.13L8.54932 17.1228L9.77078 16.3889C9.92365 16.3946 10.0765 16.3946 10.2294 16.3889L11.4431 17.1182C11.7531 17.3142 12.117 17.33 12.4237 17.2233L12.4298 17.2212C13.2378 16.9311 13.9658 16.4974 14.6008 15.9649L14.6018 15.9641C14.8741 15.7348 15.0141 15.4058 15.0141 15.0736L14.9922 13.6408C15.0747 13.5108 15.1521 13.3776 15.224 13.2404L16.4651 12.5515L16.4722 12.5475C16.7561 12.3853 16.9784 12.1025 17.0396 11.7459C17.1906 10.9128 17.1831 10.0633 17.04 9.25059C16.9792 8.89304 16.7566 8.60953 16.4722 8.44702L15.224 7.75413C15.1521 7.61692 15.0747 7.48374 14.9922 7.35371L15.0139 5.93766C15.0253 5.58642 14.8686 5.24899 14.608 5.03046C13.9552 4.48073 13.2197 4.06144 12.4364 3.77974L12.43 3.77746C12.0967 3.66155 11.7458 3.70921 11.4632 3.87073L11.4509 3.87793L10.2294 4.6119C10.0765 4.60621 9.92365 4.60621 9.77077 4.6119L8.55704 3.88257ZM9.99379 8.15677C8.69772 8.15677 7.64704 9.20745 7.64704 10.5035C7.64704 11.7996 8.69772 12.8503 9.99379 12.8503C11.2899 12.8503 12.3405 11.7996 12.3405 10.5035C12.3405 9.20745 11.2899 8.15677 9.99379 8.15677Z"  fill=""/>
</svg>
