<svg   viewBox="0 0 20 21" fill="none" xmlns="http://www.w3.org/2000/svg">
<path fill-rule="evenodd" clip-rule="evenodd" d="M14.3412 8.96747C15.8925 8.96747 17.1501 7.70986 17.1501 6.15854C17.1501 4.60721 15.8925 3.34961 14.3412 3.34961C12.7898 3.34961 11.5322 4.60721 11.5322 6.15854C11.5322 6.20321 11.5333 6.24763 11.5353 6.29178L7.44913 8.33489C6.96309 7.9325 6.3393 7.69068 5.65903 7.69068C4.1077 7.69068 2.8501 8.94828 2.8501 10.4996C2.8501 12.0509 4.1077 13.3085 5.65903 13.3085C6.3393 13.3085 6.96309 13.0667 7.44913 12.6643L11.5353 14.7075C11.5333 14.7516 11.5322 14.796 11.5322 14.8407C11.5322 16.392 12.7898 17.6496 14.3412 17.6496C15.8925 17.6496 17.1501 16.392 17.1501 14.8407C17.1501 13.2894 15.8925 12.0318 14.3412 12.0318C13.5727 12.0318 12.8763 12.3403 12.3692 12.8404L8.4428 10.8772C8.45938 10.7537 8.46795 10.6276 8.46795 10.4996C8.46795 10.3716 8.45938 10.2455 8.4428 10.122L12.3692 8.15885C12.8763 8.65887 13.5727 8.96747 14.3412 8.96747Z"  fill=""/>
</svg>
