<svg   viewBox="0 0 20 21" fill="none" xmlns="http://www.w3.org/2000/svg">
<path d="M9.3709 3.54744C9.56323 3.41931 9.78946 3.34961 10.0227 3.34961C10.2559 3.34961 10.4822 3.41931 10.6745 3.54746C10.8638 3.67355 11.0113 3.85011 11.1039 4.054L12.6752 7.36209L16.1309 7.89593C16.3577 7.92786 16.5683 8.0253 16.7394 8.17358C16.912 8.32313 17.0374 8.51807 17.104 8.7338C17.1601 9.05172 17.1398 9.30852 17.1226 9.39719C17.0693 9.61236 16.9584 9.8107 16.7995 9.96857L14.2884 12.5663L14.8939 16.2196C14.9307 16.4405 14.9074 16.6677 14.8261 16.8765C14.7446 17.086 14.6068 17.2712 14.4251 17.4086C14.2429 17.5464 14.024 17.6298 13.7945 17.6466C13.5652 17.6631 13.3369 17.6122 13.1363 17.5012L13.1352 17.5006L10.0227 15.7853L6.9101 17.5006L6.909 17.5012C6.7085 17.6122 6.47961 17.663 6.25025 17.6465C6.02064 17.6297 5.80209 17.5461 5.62 17.4085C5.43849 17.2711 5.30078 17.086 5.21925 16.8766C5.13798 16.6677 5.1148 16.4407 5.1514 16.2201L5.15158 16.2191L5.75688 12.5251L3.21822 9.97092C3.05419 9.80769 2.94171 9.6016 2.89054 9.37895C2.83917 9.15538 2.85094 8.92119 2.92495 8.7037C2.99901 8.48605 3.13339 8.29144 3.31562 8.14587C3.49086 8.00591 3.70277 7.91756 3.92792 7.89385L7.37014 7.36209L8.94151 4.05403C9.03403 3.85013 9.18163 3.67354 9.3709 3.54744Z"  fill=""/>
</svg>
