<svg   viewBox="0 0 20 21" fill="none" xmlns="http://www.w3.org/2000/svg">
<path fill-rule="evenodd" clip-rule="evenodd" d="M5 8.5625C3.92995 8.5625 3.0625 9.42995 3.0625 10.5C3.0625 11.5701 3.92995 12.4375 5 12.4375C6.07005 12.4375 6.9375 11.5701 6.9375 10.5C6.9375 9.42995 6.07005 8.5625 5 8.5625ZM10 8.5625C8.92995 8.5625 8.0625 9.42995 8.0625 10.5C8.0625 11.5701 8.92995 12.4375 10 12.4375C11.0701 12.4375 11.9375 11.5701 11.9375 10.5C11.9375 9.42995 11.0701 8.5625 10 8.5625ZM15 8.5625C13.9299 8.5625 13.0625 9.42995 13.0625 10.5C13.0625 11.5701 13.9299 12.4375 15 12.4375C16.0701 12.4375 16.9375 11.5701 16.9375 10.5C16.9375 9.42995 16.0701 8.5625 15 8.5625Z"  fill=""/>
</svg>
