<svg   viewBox="0 0 20 21" fill="none" xmlns="http://www.w3.org/2000/svg">
<path fill-rule="evenodd" clip-rule="evenodd" d="M11.9375 5.5C11.9375 4.42995 11.0701 3.5625 10 3.5625C8.92995 3.5625 8.0625 4.42995 8.0625 5.5C8.0625 6.57005 8.92995 7.4375 10 7.4375C11.0701 7.4375 11.9375 6.57005 11.9375 5.5ZM11.9375 10.5C11.9375 9.42995 11.0701 8.5625 10 8.5625C8.92995 8.5625 8.0625 9.42995 8.0625 10.5C8.0625 11.5701 8.92995 12.4375 10 12.4375C11.0701 12.4375 11.9375 11.5701 11.9375 10.5ZM11.9375 15.5C11.9375 14.4299 11.0701 13.5625 10 13.5625C8.92995 13.5625 8.0625 14.4299 8.0625 15.5C8.0625 16.5701 8.92995 17.4375 10 17.4375C11.0701 17.4375 11.9375 16.5701 11.9375 15.5Z"  fill=""/>
</svg>
