<svg   viewBox="0 0 20 21" fill="none" xmlns="http://www.w3.org/2000/svg">
<path fill-rule="evenodd" clip-rule="evenodd" d="M3.5001 4.62305C2.86497 4.62305 2.3501 5.13792 2.3501 5.77305C2.3501 6.40817 2.86497 6.92305 3.5001 6.92305H16.5001C17.1352 6.92305 17.6501 6.40817 17.6501 5.77305C17.6501 5.13792 17.1352 4.62305 16.5001 4.62305H3.5001ZM3.5001 9.35032C2.86497 9.35032 2.3501 9.86519 2.3501 10.5003C2.3501 11.1354 2.86497 11.6503 3.5001 11.6503H16.5001C17.1352 11.6503 17.6501 11.1354 17.6501 10.5003C17.6501 9.86519 17.1352 9.35032 16.5001 9.35032H3.5001ZM3.5001 14.0776C2.86497 14.0776 2.3501 14.5925 2.3501 15.2276C2.3501 15.8627 2.86497 16.3776 3.5001 16.3776H16.5001C17.1352 16.3776 17.6501 15.8627 17.6501 15.2276C17.6501 14.5925 17.1352 14.0776 16.5001 14.0776H3.5001Z"  fill=""/>
</svg>
