<svg   viewBox="0 0 20 21" fill="none" xmlns="http://www.w3.org/2000/svg">
<path fill-rule="evenodd" clip-rule="evenodd" d="M8.98064 4.40033C9.09074 4.18012 9.31581 4.04102 9.56202 4.04102C9.91273 4.04102 10.26 4.11009 10.584 4.24431C10.908 4.37852 11.2024 4.57524 11.4504 4.82323C11.6984 5.07122 11.8952 5.36563 12.0294 5.68965C12.1636 6.01366 12.2327 6.36094 12.2327 6.71165V7.57713H15.4898C15.7252 7.57713 15.9579 7.6272 16.1725 7.72401C16.3871 7.82082 16.5787 7.96216 16.7345 8.13865C16.8903 8.31514 17.0068 8.52275 17.0762 8.7477C17.1457 8.97264 17.1665 9.20979 17.1373 9.44339L16.3795 15.5053C16.3293 15.9069 16.1342 16.2763 15.8308 16.5441C15.5275 16.8119 15.1367 16.9597 14.732 16.9597H8.05518C7.50289 16.9597 7.05518 16.512 7.05518 15.9597V8.25125L8.98064 4.40033ZM5.05518 9.59261C5.05518 9.31647 4.83132 9.09261 4.55518 9.09261H4.00526C3.69889 9.09261 3.40507 9.21432 3.18844 9.43095C2.9718 9.64759 2.8501 9.94141 2.8501 10.2478V15.8045C2.8501 16.1109 2.9718 16.4047 3.18844 16.6214C3.40507 16.838 3.69889 16.9597 4.00526 16.9597H4.55518C4.83132 16.9597 5.05518 16.7358 5.05518 16.4597V9.59261Z"  fill=""/>
</svg>
