<svg   viewBox="0 0 20 21" fill="none" xmlns="http://www.w3.org/2000/svg">
<path fill-rule="evenodd" clip-rule="evenodd" d="M5.44312 4.54102C5.44312 4.26487 5.21926 4.04102 4.94312 4.04102H4.00526C3.69889 4.04102 3.40507 4.16272 3.18844 4.37935C2.9718 4.59599 2.8501 4.88981 2.8501 5.19618V10.7529C2.8501 11.0593 2.9718 11.3531 3.18844 11.5698C3.40507 11.7864 3.69889 11.9081 4.00526 11.9081H4.94312C5.21926 11.9081 5.44312 11.6842 5.44312 11.4081V4.54102ZM7.44312 13.5253L8.98064 16.6004C9.09074 16.8206 9.31581 16.9597 9.56202 16.9597C9.91273 16.9597 10.26 16.8906 10.584 16.7564C10.908 16.6222 11.2025 16.4255 11.4504 16.1775C11.6984 15.9295 11.8952 15.6351 12.0294 15.3111C12.1636 14.987 12.2327 14.6398 12.2327 14.2891V13.4236H15.4898C15.7252 13.4236 15.9579 13.3735 16.1725 13.2767C16.3871 13.1799 16.5787 13.0385 16.7345 12.8621C16.8903 12.6856 17.0068 12.478 17.0762 12.253C17.1457 12.0281 17.1665 11.7909 17.1373 11.5573L16.3795 5.4954C16.3293 5.09384 16.1342 4.72445 15.8308 4.45663C15.5275 4.18881 15.1367 4.04102 14.732 4.04102H8.44312C7.89083 4.04102 7.44312 4.48873 7.44312 5.04102V13.5253Z"  fill=""/>
</svg>
