<svg   viewBox="0 0 20 21" fill="none" xmlns="http://www.w3.org/2000/svg">
<path fill-rule="evenodd" clip-rule="evenodd" d="M8.69194 5.19143C9.03888 4.8445 9.50944 4.64959 10.0001 4.64959C10.4907 4.64959 10.9613 4.8445 11.3082 5.19143C11.6197 5.50284 11.8086 5.91384 11.844 6.34957H8.15618C8.19161 5.91384 8.38053 5.50284 8.69194 5.19143ZM12.2275 4.27221C12.7828 4.82749 13.1093 5.56874 13.1465 6.34957H14.5001H16.0001C16.3591 6.34957 16.6501 6.64058 16.6501 6.99956C16.6501 7.35854 16.3591 7.64955 16.0001 7.64955H15.1501V15.9994C15.1501 16.4371 14.9762 16.8568 14.6668 17.1661C14.3574 17.4755 13.9377 17.6494 13.5001 17.6494H6.5001C6.06242 17.6494 5.64277 17.4755 5.3334 17.1662C5.02392 16.8567 4.8501 16.437 4.8501 15.9994V7.64955H4.0001C3.64111 7.64955 3.3501 7.35854 3.3501 6.99956C3.3501 6.64058 3.64111 6.34957 4.0001 6.34957H5.5001H6.85366C6.89086 5.56874 7.21742 4.82749 7.77271 4.27221C8.36344 3.68148 9.16466 3.34961 10.0001 3.34961C10.8355 3.34961 11.6367 3.68148 12.2275 4.27221ZM7.1001 10.0103C7.1001 9.51329 7.50304 9.11035 8.0001 9.11035C8.49715 9.11035 8.9001 9.51329 8.9001 10.0103V14.0118C8.9001 14.5089 8.49715 14.9118 8.0001 14.9118C7.50304 14.9118 7.1001 14.5089 7.1001 14.0118V10.0103ZM11.1001 10.0103C11.1001 9.51329 11.503 9.11035 12.0001 9.11035C12.4971 9.11035 12.9001 9.51329 12.9001 10.0103V14.0118C12.9001 14.5089 12.4971 14.9118 12.0001 14.9118C11.503 14.9118 11.1001 14.5089 11.1001 14.0118V10.0103Z"  fill=""/>
</svg>
