<svg   viewBox="0 0 20 21" fill="none" xmlns="http://www.w3.org/2000/svg">
<path fill-rule="evenodd" clip-rule="evenodd" d="M8.33123 9.85216C10.0236 9.85216 11.3955 8.48024 11.3955 6.7879C11.3955 5.09555 10.0236 3.72363 8.33123 3.72363C6.63889 3.72363 5.26696 5.09555 5.26696 6.7879C5.26696 8.48024 6.63889 9.85216 8.33123 9.85216ZM3.22412 15.9807C3.22412 13.1601 5.51065 10.8736 8.33123 10.8736C9.24566 10.8736 10.104 11.1139 10.8464 11.5348C10.1322 12.3463 10.1626 13.5842 10.9378 14.3593L11.2825 14.7041L10.9378 15.0488C10.539 15.4475 10.3373 15.9687 10.3327 16.4914H3.73483C3.45277 16.4914 3.22412 16.2627 3.22412 15.9807ZM11.857 12.3567C11.8691 12.3446 11.8816 12.333 11.8943 12.3218C11.8944 12.3219 11.8944 12.3219 11.8945 12.322C12.1954 12.0584 12.6534 12.0701 12.9404 12.3571L14.2043 13.6211L15.4683 12.3571C15.7675 12.0579 16.2525 12.0579 16.5517 12.3571C16.8508 12.6563 16.8509 13.1413 16.5517 13.4405L15.2877 14.7044L16.5517 15.9684C16.8508 16.2676 16.8508 16.7526 16.5517 17.0518C16.2525 17.351 15.7675 17.351 15.4683 17.0518L14.2043 15.7878L12.9404 17.0518C12.6412 17.351 12.1562 17.351 11.857 17.0518C11.7027 16.8974 11.6279 16.6936 11.6329 16.4914H11.6329C11.6374 16.3015 11.7121 16.1129 11.857 15.968L13.1208 14.7043L11.857 13.4405C11.7074 13.2909 11.6326 13.0947 11.6326 12.8986C11.6326 12.7025 11.7074 12.5064 11.857 12.3567Z"  fill=""/>
</svg>
