<svg   viewBox="0 0 20 21" fill="none" xmlns="http://www.w3.org/2000/svg">
<path fill-rule="evenodd" clip-rule="evenodd" d="M9.99988 3.34961C8.21801 3.34961 6.77351 4.79411 6.77351 6.57598C6.77351 8.35786 8.21801 9.80235 9.99988 9.80235C11.7818 9.80235 13.2263 8.35786 13.2263 6.57598C13.2263 4.79411 11.7818 3.34961 9.99988 3.34961ZM10 11.1339C8.43083 11.1339 6.91152 11.6939 5.66062 12.7184C4.41116 13.7418 3.49469 15.1743 3.03 16.8014C2.97263 17.0023 3.01287 17.2184 3.13867 17.3852C3.26448 17.552 3.46126 17.65 3.67016 17.65H16.3299C16.5388 17.65 16.7356 17.552 16.8614 17.3852C16.9872 17.2184 17.0274 17.0023 16.97 16.8014C16.5052 15.1743 15.5888 13.7418 14.3394 12.7184C13.0885 11.6939 11.5692 11.1339 10 11.1339Z"  fill=""/>
</svg>
