<svg   viewBox="0 0 20 21" fill="none" xmlns="http://www.w3.org/2000/svg">
<path fill-rule="evenodd" clip-rule="evenodd" d="M11.0215 7.18047C11.0215 8.87282 9.64955 10.2447 7.9572 10.2447C6.26486 10.2447 4.89294 8.87282 4.89294 7.18047C4.89294 5.48813 6.26486 4.11621 7.9572 4.11621C9.64955 4.11621 11.0215 5.48813 11.0215 7.18047ZM7.9572 11.2661C5.13663 11.2661 2.8501 13.5527 2.8501 16.3732C2.8501 16.6552 3.07875 16.8839 3.36081 16.8839H12.5536C12.8357 16.8839 13.0643 16.6552 13.0643 16.3732C13.0643 13.5527 10.7778 11.2661 7.9572 11.2661ZM16.6394 16.8839H14.2671C14.3153 16.7222 14.3412 16.5507 14.3412 16.3732C14.3412 14.2884 13.3418 12.4371 11.796 11.272C11.8779 11.2681 11.9602 11.2661 12.043 11.2661C14.8635 11.2661 17.1501 13.5527 17.1501 16.3732C17.1501 16.6552 16.9214 16.8839 16.6394 16.8839ZM12.043 10.2447C11.7348 10.2447 11.4372 10.1992 11.1566 10.1146C11.8656 9.34196 12.2983 8.31175 12.2983 7.18047C12.2983 6.0492 11.8656 5.01899 11.1566 4.24635C11.4372 4.16171 11.7348 4.11621 12.043 4.11621C13.7353 4.11621 15.1073 5.48813 15.1073 7.18047C15.1073 8.87282 13.7353 10.2447 12.043 10.2447Z"  fill=""/>
</svg>
