<svg   viewBox="0 0 20 21" fill="none" xmlns="http://www.w3.org/2000/svg">
<path fill-rule="evenodd" clip-rule="evenodd" d="M11.0215 6.4139C11.0215 8.10625 9.64959 9.47818 7.95724 9.47818C6.26489 9.47818 4.89295 8.10625 4.89295 6.4139C4.89295 4.72154 6.26489 3.34961 7.95724 3.34961C9.64959 3.34961 11.0215 4.72154 11.0215 6.4139ZM13.8305 11.0103C14.2535 11.0103 14.5965 11.3533 14.5965 11.7764V13.5639H16.384C16.8071 13.5639 17.1501 13.9069 17.1501 14.33C17.1501 14.753 16.8071 15.096 16.384 15.096H14.5965V16.8835C14.5965 17.3066 14.2535 17.6496 13.8305 17.6496C13.4074 17.6496 13.0644 17.3066 13.0644 16.8835V15.096H11.2769C10.8538 15.096 10.5108 14.753 10.5108 14.33C10.5108 13.9069 10.8538 13.5639 11.2769 13.5639H13.0644V11.7764C13.0644 11.3533 13.4074 11.0103 13.8305 11.0103ZM7.95724 10.4996C9.48261 10.4996 10.8518 11.1683 11.7876 12.2286V12.2871H11.2769C10.1486 12.2871 9.23403 13.2017 9.23403 14.33C9.23403 15.0991 9.65906 15.769 10.2871 16.1175H3.36081C3.07875 16.1175 2.8501 15.8888 2.8501 15.6068C2.8501 12.7861 5.13665 10.4996 7.95724 10.4996Z"  fill=""/>
</svg>
