<svg    viewBox="0 0 20 20" fill="none" xmlns="http://www.w3.org/2000/svg">
<path fill-rule="evenodd" clip-rule="evenodd" d="M10 3.01465C9.21864 3.01465 8.46927 3.32505 7.91675 3.87757C7.36423 4.43009 7.05383 5.17946 7.05383 5.96084V9.3855C7.05383 10.1669 7.36423 10.9162 7.91675 11.4688C8.46927 12.0213 9.21864 12.3317 10 12.3317C10.7814 12.3317 11.5308 12.0213 12.0833 11.4688C12.6358 10.9162 12.9462 10.1669 12.9462 9.3855V5.96084C12.9462 5.17946 12.6358 4.43009 12.0833 3.87757C11.5308 3.32505 10.7814 3.01465 10 3.01465ZM9.25 15.0221V16.2347C9.25 16.6489 9.58579 16.9847 10 16.9847C10.4142 16.9847 10.75 16.6489 10.75 16.2347V15.0221C13.5334 14.8916 15.75 12.5936 15.75 9.77796C15.75 9.36374 15.4142 9.02796 15 9.02796C14.5858 9.02796 14.25 9.36374 14.25 9.77796C14.25 11.849 12.5711 13.5279 10.5 13.5279H10.0137C10.0091 13.5278 10.0046 13.5278 10 13.5278C9.99543 13.5278 9.99088 13.5278 9.98633 13.5279H9.5C7.42893 13.5279 5.75 11.849 5.75 9.77796C5.75 9.36374 5.41421 9.02796 5 9.02796C4.58579 9.02796 4.25 9.36374 4.25 9.77796C4.25 12.5936 6.46659 14.8916 9.25 15.0221Z"  fill=""/>
</svg>
