<svg    viewBox="0 0 20 20" fill="none" xmlns="http://www.w3.org/2000/svg">
<path fill-rule="evenodd" clip-rule="evenodd" d="M7.91669 3.86292C8.46921 3.3104 9.21858 3 9.99996 3C10.7813 3 11.5307 3.3104 12.0832 3.86292C12.6357 4.41544 12.9461 5.16481 12.9461 5.94619V9.37085C12.9461 10.0498 12.7118 10.7047 12.2878 11.2271L13.3088 12.2481C13.8951 11.586 14.25 10.7163 14.25 9.76331C14.25 9.34909 14.5858 9.01331 15 9.01331C15.4142 9.01331 15.75 9.34909 15.75 9.76331C15.75 11.1308 15.2266 12.3764 14.3707 13.3101L16.7803 15.7197C17.0732 16.0126 17.0732 16.4874 16.7803 16.7803C16.4874 17.0732 16.0126 17.0732 15.7197 16.7803L11.0593 12.12C11.0585 12.1203 11.0577 12.1206 11.0569 12.1209L7.05377 8.11776V8.11443L3.21967 4.28033C2.92678 3.98744 2.92678 3.51256 3.21967 3.21967C3.51256 2.92678 3.98744 2.92678 4.28033 3.21967L7.05377 5.99311V5.94619C7.05377 5.16481 7.36417 4.41544 7.91669 3.86292ZM10.75 14.2632C10.75 13.849 10.4142 13.5132 10 13.5132L9.98633 13.5133H9.5C7.42893 13.5133 5.75 11.8344 5.75 9.76331C5.75 9.34909 5.41421 9.01331 5 9.01331C4.58579 9.01331 4.25 9.34909 4.25 9.76331C4.25 12.579 6.46659 14.877 9.25 15.0075V16.2201C9.25 16.6343 9.58579 16.9701 10 16.9701C10.4142 16.9701 10.75 16.6343 10.75 16.2201V14.2632Z"  fill=""/>
</svg>
