<svg   viewBox="0 0 20 21" fill="none" xmlns="http://www.w3.org/2000/svg">
<path fill-rule="evenodd" clip-rule="evenodd" d="M9.99987 3.34961C9.68767 3.34961 9.38095 3.4317 9.11048 3.58766C8.84002 3.74361 8.61531 3.96794 8.45891 4.23815L2.24294 14.9772C2.08629 15.2478 2.00368 15.5549 2.00342 15.8677C2.00316 16.1804 2.08526 16.4876 2.24147 16.7585C2.39767 17.0294 2.62247 17.2544 2.89324 17.4108C3.164 17.5673 3.4712 17.6496 3.7839 17.6496H16.2158C16.5285 17.6496 16.8357 17.5673 17.1065 17.4108C17.3773 17.2544 17.6021 17.0294 17.7583 16.7585C17.9145 16.4876 17.9966 16.1804 17.9963 15.8676C17.9961 15.5549 17.9135 15.2478 17.7568 14.9772L11.5408 4.23815C11.3844 3.96794 11.1597 3.74361 10.8893 3.58766C10.6188 3.4317 10.3121 3.34961 9.99987 3.34961ZM9.09985 8.82383C9.09985 8.32677 9.5028 7.92383 9.99985 7.92383C10.4969 7.92383 10.8999 8.32677 10.8999 8.82383V11.65C10.8999 12.1471 10.4969 12.55 9.99985 12.55C9.5028 12.55 9.09985 12.1471 9.09985 11.65V8.82383ZM8.9021 14.4182C8.9021 13.8118 9.39363 13.3203 9.99996 13.3203C10.6063 13.3203 11.0978 13.8118 11.0978 14.4182C11.0978 15.0245 10.6063 15.516 9.99996 15.516C9.39363 15.516 8.9021 15.0245 8.9021 14.4182Z"  fill=""/>
</svg>
