<svg   viewBox="0 0 20 21" fill="none" xmlns="http://www.w3.org/2000/svg">
<path fill-rule="evenodd" clip-rule="evenodd" d="M4.59379 3.64878C4.19489 3.24989 3.54816 3.24989 3.14927 3.64878C2.75037 4.04767 2.75037 4.6944 3.14927 5.0933L8.55559 10.4996L3.14927 15.906C2.75037 16.3048 2.75037 16.9516 3.14927 17.3505C3.54816 17.7493 4.19489 17.7493 4.59379 17.3505L10.0001 11.9441L15.4064 17.3505C15.8053 17.7493 16.4521 17.7493 16.8509 17.3505C17.2498 16.9516 17.2498 16.3048 16.8509 15.906L11.4446 10.4996L16.8509 5.0933C17.2498 4.6944 17.2498 4.04767 16.8509 3.64878C16.4521 3.24989 15.8053 3.24989 15.4064 3.64878L10.0001 9.05511L4.59379 3.64878Z"  fill=""/>
</svg>
