<svg   viewBox="0 0 20 21" fill="none" xmlns="http://www.w3.org/2000/svg">
<path fill-rule="evenodd" clip-rule="evenodd" d="M8.97859 3.34961C5.59392 3.34961 2.8501 6.09343 2.8501 9.4781C2.8501 12.8628 5.59392 15.6066 8.97859 15.6066C10.3021 15.6066 11.5277 15.187 12.5295 14.4736L15.4063 17.3505C15.8051 17.7493 16.4519 17.7493 16.8507 17.3505C17.2496 16.9516 17.2496 16.3048 16.8507 15.906L13.974 13.0292C14.6875 12.0274 15.1071 10.8017 15.1071 9.4781C15.1071 6.09343 12.3633 3.34961 8.97859 3.34961ZM8.11219 8.58536H6.81841C6.31071 8.58536 5.89913 8.99694 5.89913 9.50464C5.89913 10.0123 6.31071 10.4239 6.81841 10.4239H8.11219H11.2445C11.7522 10.4239 12.1638 10.0123 12.1638 9.50464C12.1638 8.99694 11.7522 8.58536 11.2445 8.58536H8.11219Z"  fill=""/>
</svg>
