<svg   viewBox="0 0 20 21" fill="none" xmlns="http://www.w3.org/2000/svg">
<path fill-rule="evenodd" clip-rule="evenodd" d="M8.97859 3.34961C5.59392 3.34961 2.8501 6.09343 2.8501 9.4781C2.8501 12.8628 5.59392 15.6066 8.97859 15.6066C10.3021 15.6066 11.5277 15.187 12.5295 14.4736L15.4063 17.3505C15.8051 17.7493 16.4519 17.7493 16.8507 17.3505C17.2496 16.9516 17.2496 16.3048 16.8507 15.906L13.974 13.0292C14.6875 12.0274 15.1071 10.8017 15.1071 9.4781C15.1071 6.09343 12.3633 3.34961 8.97859 3.34961ZM8.96688 6.37196C8.45918 6.37196 8.0476 6.78354 8.0476 7.29124V8.58502H6.75382C6.24612 8.58502 5.83455 8.99659 5.83455 9.50429C5.83455 10.012 6.24612 10.4236 6.75382 10.4236H8.0476V11.7173C8.0476 12.225 8.45918 12.6366 8.96688 12.6366C9.47458 12.6366 9.88615 12.225 9.88615 11.7173V10.4236H11.1799C11.6876 10.4236 12.0992 10.012 12.0992 9.50429C12.0992 8.99659 11.6876 8.58502 11.1799 8.58502H9.88615V7.29124C9.88615 6.78354 9.47458 6.37196 8.96688 6.37196Z"  fill=""/>
</svg>
